<?xml version="1.0" encoding="iso-8859-1"?>
<!-- Generator: Adobe Illustrator 19.0.0, SVG Export Plug-In . SVG Version: 6.00 Build 0)  -->
<svg version="1.1" id="Layer_1" xmlns="http://www.w3.org/2000/svg" xmlns:xlink="http://www.w3.org/1999/xlink" x="0px" y="0px"
	 viewBox="0 0 384 384" style="enable-background:new 0 0 384 384;" xml:space="preserve">
<g>
	<g>
		<g>
			<path d="M251.969,126.8c-3.2-3.2-8-3.2-11.2,0l-50.8,50.8l-51.2-50.8c-3.2-3.2-8-3.2-11.2,0c-3.2,3.2-3.2,8,0,11.2l50.8,50.8
				l-50.8,51.2c-3.2,3.2-3.2,8,0,11.2c1.6,1.6,3.6,2.4,5.6,2.4s4-0.8,5.6-2.4l51.2-50.8l50.8,50.8c1.6,1.6,3.6,2.4,5.6,2.4
				s4-0.8,5.6-2.4c3.2-3.2,3.2-8,0-11.2l-50.8-51.2l50.8-50.8C255.169,134.8,255.169,130,251.969,126.8z"/>
			<path d="M351.569,306.4l-28.8-48c-5.2-8.4-8.4-17.2-9.2-26.8l-17.6-120c0-0.4,0-0.4,0-0.8c-5.6-23.6-22.8-42.8-45.2-52l-4.4-2
				c-1.2-0.8-2.8-1.2-4-1.6c-0.8-0.4-1.2-0.4-2-0.8c-0.4-0.4-0.8-0.4-0.8-0.4l-20.4-39.2c-4-9.2-13.6-14.8-24.4-14.8h-4
				c-10.4,0-19.6,5.6-24.8,15.2l-20.8,38.8l-0.4,0.4c-2.4,0.8-5.2,1.6-6.8,2.4l-4.8,1.6c-22.4,9.2-39.6,28.4-45.2,52
				c0,0.4,0,0.4,0,0.8l-17.6,120c-1.6,9.2-4.8,18.4-9.2,26.8l-28.8,48c-3.6,6.4-4,13.6-0.4,20c3.6,6.4,10,10,17.6,10h96
				c0,0.8-0.4,1.2-0.4,2c0,25.2,20.8,46,46,46s46-20.8,46-46c0-0.8,0-1.2-0.4-2h98.4c7.2,0,13.6-4,17.2-10
				C355.569,320,355.169,312.4,351.569,306.4z M220.769,338.4c0,16.4-13.6,30-30,30c-16.4,0-30-13.6-30-30c0-0.8,0-1.2-0.4-2h60.4
				C220.769,337.2,220.769,337.6,220.769,338.4z M337.969,318.4c-0.4,0.4-1.2,2-3.2,2h-285.6c-2.4,0-3.2-1.2-3.6-2
				c-0.4-0.8-0.8-2,0-4l28.8-48c6-10.4,9.6-21.2,11.2-32.4l17.6-119.6c4.8-18.4,18-33.6,35.2-40.4l4.8-1.6c2-0.8,4-1.6,6.4-2.4h0.4
				c3.6-1.6,6.8-4,8.8-7.2c0,0,0-0.4,0.4-0.4l20.8-39.2c2.4-4.4,6-6.4,10.4-6.4h4c4.4,0,8.4,2.4,10,5.6c0,0,0,0.4,0.4,0.4l20.8,39.6
				c0,0,0,0.4,0.4,0.4c2,3.2,4.8,6,8.8,7.2c1.2,0.4,2,0.8,3.2,1.2c0.8,0.4,1.2,0.4,2,0.8c0,0,0.4,0,0.4,0.4l4.8,2
				c17.6,7.2,30.8,22,35.6,40.4l17.6,119.2c1.2,11.2,5.2,22.4,11.6,32.8l28.8,48C338.769,316,338.369,317.6,337.969,318.4z"/>
		</g>
	</g>
</g>
<g>
</g>
<g>
</g>
<g>
</g>
<g>
</g>
<g>
</g>
<g>
</g>
<g>
</g>
<g>
</g>
<g>
</g>
<g>
</g>
<g>
</g>
<g>
</g>
<g>
</g>
<g>
</g>
<g>
</g>
</svg>
