<?xml version="1.0" encoding="iso-8859-1"?>
<!-- Generator: Adobe Illustrator 19.0.0, SVG Export Plug-In . SVG Version: 6.00 Build 0)  -->
<svg version="1.1" id="Layer_1" xmlns="http://www.w3.org/2000/svg" xmlns:xlink="http://www.w3.org/1999/xlink" x="0px" y="0px"
	 viewBox="0 0 367.6 367.6" style="enable-background:new 0 0 367.6 367.6;" xml:space="preserve">
<g>
	<g>
		<g>
			<path d="M286.5,222.4L182.9,326c-34.4,34.4-90,34.4-124.4,0l-2.8-2.8c-16.4-16.4-25.6-38.8-25.6-62.4c0-23.6,9.2-45.6,25.6-62.4
				l164-164c12-12,28-18.8,45.2-18.8s33.2,6.8,45.2,18.8l8.4,8.4c24.8,24.8,24.8,65.6,0,90.4l-68,68l-56,56.8
				c-18.8,18.8-49.2,18.8-68,0l-2.8-2.8c-18.8-18.8-18.8-49.2,0-68L231.3,80c3.2-3.2,3.2-8,0-11.2s-8-3.2-11.2,0L112.5,176
				c-24.8,24.8-24.8,65.6,0,90.4l2.8,2.8c12.4,12.4,28.8,18.8,45.2,18.8c16.4,0,32.8-6.4,45.2-18.8l56.4-56.4l68-68
				c31.2-31.2,31.2-82,0-113.2l-8.4-8.4C306.5,8,286.5,0,265.3,0c-21.2,0-41.6,8.4-56.4,23.2l-164,164c-20,19.6-30.8,46-30.8,73.6
				s10.8,54,30.4,73.6l2.8,2.8c20.4,20.4,46.8,30.4,73.6,30.4c26.8,0,53.2-10,73.6-30.4l103.6-103.6c3.2-3.2,3.2-8,0-11.2
				S289.7,219.2,286.5,222.4z"/>
			<path d="M327.3,181.6l-8.8,8.8c-3.2,3.2-3.2,8,0,11.2c1.6,1.6,3.6,2.4,5.6,2.4s4-0.8,5.6-2.4l8.8-8.8c3.2-3.2,3.2-8,0-11.2
				C335.3,178.8,330.5,178.8,327.3,181.6z"/>
		</g>
	</g>
</g>
<g>
</g>
<g>
</g>
<g>
</g>
<g>
</g>
<g>
</g>
<g>
</g>
<g>
</g>
<g>
</g>
<g>
</g>
<g>
</g>
<g>
</g>
<g>
</g>
<g>
</g>
<g>
</g>
<g>
</g>
</svg>
