<?xml version="1.0" encoding="iso-8859-1"?>
<!-- Generator: Adobe Illustrator 19.0.0, SVG Export Plug-In . SVG Version: 6.00 Build 0)  -->
<svg version="1.1" id="Layer_1" xmlns="http://www.w3.org/2000/svg" xmlns:xlink="http://www.w3.org/1999/xlink" x="0px" y="0px"
	 viewBox="0 0 432 432" style="enable-background:new 0 0 432 432;" xml:space="preserve">
<g>
	<g>
		<path d="M408,168h-24v-40c0-22-18-40-40-40H40c-22,0-40,18-40,40v176c0,22,18,40,40,40h304c22,0,40-18,40-40v-40h24
			c13.2,0,24-10.8,24-24v-48C432,178.8,421.2,168,408,168z M40,328c-13.2,0-24-10.8-24-24V128c0-13.2,10.8-24,24-24h85.2l18,14.4
			c24.4,19.6,42.4,46.8,51.2,76.8l12.8,45.2c9.2,32,27.2,60,51.6,80.8l7.6,6.8H40z M368,304c0,13.2-10.8,24-24,24h-53.2l-21.6-18.8
			c-22-19.2-38.4-44.4-46.8-73.2l-12.8-45.2c-9.6-33.6-29.2-62.8-56.8-84.8l-2-2H344c13.2,0,24,10.8,24,24V304z M416,240
			c0,4.4-3.6,8-8,8h-24v-64h24c4.4,0,8,3.6,8,8V240z"/>
	</g>
</g>
<g>
</g>
<g>
</g>
<g>
</g>
<g>
</g>
<g>
</g>
<g>
</g>
<g>
</g>
<g>
</g>
<g>
</g>
<g>
</g>
<g>
</g>
<g>
</g>
<g>
</g>
<g>
</g>
<g>
</g>
</svg>
