<?xml version="1.0" encoding="iso-8859-1"?>
<!-- Generator: Adobe Illustrator 19.0.0, SVG Export Plug-In . SVG Version: 6.00 Build 0)  -->
<svg version="1.1" id="Layer_1" xmlns="http://www.w3.org/2000/svg" xmlns:xlink="http://www.w3.org/1999/xlink" x="0px" y="0px"
	 viewBox="0 0 511.652 511.652" style="enable-background:new 0 0 511.652 511.652;" xml:space="preserve">
<g>
	<g>
		<g>
			<path d="M488,327.626c-16-16.8-37.6-25.6-60.4-25.6H424h-0.4c-0.8,0-2-0.4-2.4-1.2c-0.8-0.8-1.2-2-1.2-3.6c0.4-2.8,0.4-5.6,0.4-8
				c0-72.8-59.2-132-132-132c-13.2,0-26,2-38,5.6c-3.6-7.2-8-13.6-13.2-19.6c0.4,0,0.4-0.4,0.8-0.4l42-42c3.2-3.2,3.2-8,0-11.2
				s-8-3.2-11.2,0l-42.4,42.4c-0.4,0.4-0.4,0.4-0.8,0.8c-15.2-12.4-33.6-20.4-53.6-22c0-0.4,0-0.8,0-1.2v-60c0-4.4-3.6-8-8-8
				c-4.4,0-8,3.6-8,8v60c0,0.4,0,0.8,0,1.2c-20.4,1.6-38.8,9.6-53.6,22c-0.4-0.4-0.4-0.8-0.8-0.8l-42.4-42.4c-3.2-3.2-8-3.2-11.2,0
				s-3.2,8,0,11.2l42.4,42.4c0.4,0.4,0.4,0.4,0.8,0.8c-12.8,14.8-20.8,33.2-22.8,53.6H68H8c-4.4,0-8,3.6-8,8c0,4.4,3.6,8,8,8h60
				c0,0,0,0,0.4,0c1.6,20,9.2,39.2,22,54.4l-42.4,42.4c-3.2,3.2-3.2,8,0,11.2c1.6,1.6,3.6,2.4,5.6,2.4s4-0.8,5.6-2.4l42.4-42.4
				c2.4,2,4.8,4,7.6,5.6c-18.8,20.8-29.6,47.6-29.2,76.8c0.8,59.6,51.2,108.4,112.4,108.4H426c46.4,0,84-35.6,85.6-80.8
				C512.4,366.026,504,344.426,488,327.626z M84,206.426c0-44,36-80,80-80c29.6,0,57.2,16.4,70.8,42.4c-33.2,14.8-59.6,42.8-72,78.4
				c-1.2,3.6-4,6.4-7.2,7.6c-12.8,4.4-24.4,10.8-34.4,18.8C97.6,259.226,84,234.426,84,206.426z M495.6,388.426
				c-1.6,36.8-32,65.6-69.6,65.6H192.4c-52.4,0-95.6-41.6-96.4-92.4c-0.8-41.6,25.2-78,64.4-91.2c8.4-2.8,14.4-9.2,17.6-18
				c16-47.2,60.4-78.8,110-78.8c64,0,116,52,116,116c0,2,0,4-0.4,6c0,0.4,0,0.4,0,0.8c-0.4,6,2,11.6,6,16c4,4,9.2,6,14.4,5.6h3.6
				c18.8,0,36,7.6,49.2,20.8C489.6,352.426,496.4,370.026,495.6,388.426z"/>
			<path d="M132.4,167.226c1.6,0,3.2-0.4,4.4-1.2c2.4-1.6,4.4-2.8,6.8-3.6c4-1.6,6-6.4,4-10.4c-1.6-4-6.4-6-10.4-4
				c-3.6,1.6-7.2,3.6-9.2,5.2c-3.6,2.4-4.8,7.6-2.4,11.2C127.2,166.026,130,167.226,132.4,167.226z"/>
			<path d="M126.4,247.626c3.2-2.8,4-8,1.2-11.2c-7.6-8.4-11.6-20-11.6-30.8c0-8.4,2-16.4,6.4-24c2-4,0.8-8.8-2.8-10.8
				c-4-2-8.8-0.8-10.8,2.8c-6,10-8.8,20.8-8.8,32c0,14.8,5.2,29.6,15.2,41.2c1.6,2,3.6,2.8,6,2.8
				C123.2,249.626,124.8,248.826,126.4,247.626z"/>
		</g>
	</g>
</g>
<g>
</g>
<g>
</g>
<g>
</g>
<g>
</g>
<g>
</g>
<g>
</g>
<g>
</g>
<g>
</g>
<g>
</g>
<g>
</g>
<g>
</g>
<g>
</g>
<g>
</g>
<g>
</g>
<g>
</g>
</svg>
