<?xml version="1.0" encoding="iso-8859-1"?>
<!-- Generator: Adobe Illustrator 19.0.0, SVG Export Plug-In . SVG Version: 6.00 Build 0)  -->
<svg version="1.1" id="Layer_1" xmlns="http://www.w3.org/2000/svg" xmlns:xlink="http://www.w3.org/1999/xlink" x="0px" y="0px"
	 viewBox="0 0 368 368" style="enable-background:new 0 0 368 368;" xml:space="preserve">
<g>
	<g>
		<g>
			<path d="M184,111.6c4.4,0,8-3.6,8-8V92c0-4.4-3.6-8-8-8c-4.4,0-8,3.6-8,8v11.6C176,108,179.6,111.6,184,111.6z"/>
			<path d="M249.2,211.6L192,268.8V139.6c0-4.4-3.6-8-8-8c-4.4,0-8,3.6-8,8v129.2l-57.2-57.2c-3.2-3.2-8-3.2-11.2,0
				c-3.2,3.2-3.2,8,0,11.2l70.8,70.8c1.6,1.6,3.6,2.4,5.6,2.4s4-0.8,5.6-2.4l70.8-70.8c3.2-3.2,3.2-8,0-11.2
				S252.4,208.4,249.2,211.6z"/>
			<path d="M184,0C82.4,0,0,82.4,0,184s82.4,184,184,184s184-82.4,184-184S285.6,0,184,0z M184,352c-92.8,0-168-75.2-168-168
				S91.2,16,184,16s168,75.2,168,168S276.8,352,184,352z"/>
		</g>
	</g>
</g>
<g>
</g>
<g>
</g>
<g>
</g>
<g>
</g>
<g>
</g>
<g>
</g>
<g>
</g>
<g>
</g>
<g>
</g>
<g>
</g>
<g>
</g>
<g>
</g>
<g>
</g>
<g>
</g>
<g>
</g>
</svg>
