<?xml version="1.0" encoding="iso-8859-1"?>
<!-- Generator: Adobe Illustrator 19.0.0, SVG Export Plug-In . SVG Version: 6.00 Build 0)  -->
<svg version="1.1" id="Layer_1" xmlns="http://www.w3.org/2000/svg" xmlns:xlink="http://www.w3.org/1999/xlink" x="0px" y="0px"
	 viewBox="0 0 368.4 368.4" style="enable-background:new 0 0 368.4 368.4;" xml:space="preserve">
<g>
	<g>
		<g>
			<path d="M293.2,20.327c-35.2-12.8-71.2-2.8-96.8,27.2c-3.2,3.6-7.6,5.6-12.4,5.6s-9.2-2-12.4-5.6c-25.6-30-61.6-40-96.8-27.2
				C30,37.127,0,84.327,0,137.927c0,82.8,68.4,136,134.8,187.2c8.8,6.8,18,13.6,26.8,20.8c6.8,5.2,14.4,7.6,22.4,7.6
				s16-2.4,22.8-7.6c8.8-7.2,18-14,27.2-21.2c66-51.2,134.4-104,134.4-186.8C368,83.927,338,36.727,293.2,20.327z M224,311.927
				c-9.2,7.2-18.4,14-27.2,21.2c-7.6,5.6-18,5.6-25.2,0c-8.8-6.8-17.6-14-26.8-20.8c-63.2-48.8-128.8-99.6-128.8-174.4
				c0-54.4,32.4-90.8,64.4-102.4c8.4-3.2,16.8-4.8,24.8-4.8c20,0,39.2,9.2,54.4,27.2c6,7.2,15.2,11.2,24.4,11.2
				c9.6,0,18.4-4,24.4-11.2c21.2-25.2,50-33.2,79.2-22.8c32,11.6,64.4,48,64.4,102.8C352,213.126,289.6,261.126,224,311.927z"/>
			<path d="M64.4,136.727c-0.4-2-0.4-4.4-0.4-6.8c0-4.4-3.6-8-8-8c-4.4,0-8,3.6-8,8c0,2.8,0,5.6,0.4,9.2c0.4,4,4,6.8,8,6.8
				c0.4,0,0.8,0,1.2,0C62,145.126,64.8,141.126,64.4,136.727z"/>
			<path d="M140.4,240.727c-26.8-18-49.2-41.2-64-67.2c-2-4-7.2-5.2-10.8-3.2c-4,2-5.2,7.2-3.2,10.8c16,28.4,40,53.6,68.8,72.8
				c1.2,0.8,2.8,1.2,4.4,1.2c2.4,0,5.2-1.2,6.8-3.6C145.2,248.327,144,243.126,140.4,240.727z"/>
		</g>
	</g>
</g>
<g>
</g>
<g>
</g>
<g>
</g>
<g>
</g>
<g>
</g>
<g>
</g>
<g>
</g>
<g>
</g>
<g>
</g>
<g>
</g>
<g>
</g>
<g>
</g>
<g>
</g>
<g>
</g>
<g>
</g>
</svg>
