<?xml version="1.0" encoding="iso-8859-1"?>
<!-- Generator: Adobe Illustrator 19.0.0, SVG Export Plug-In . SVG Version: 6.00 Build 0)  -->
<svg version="1.1" id="Layer_1" xmlns="http://www.w3.org/2000/svg" xmlns:xlink="http://www.w3.org/1999/xlink" x="0px" y="0px"
	 viewBox="0 0 416.4 416.4" style="enable-background:new 0 0 416.4 416.4;" xml:space="preserve">
<g>
	<g>
		<g>
			<path d="M328.2,352.4h-6l-22-79.2c-8.4-29.6-30.8-52.4-60-60.8v-7.2c28.8-8.4,51.6-31.6,60-61.2l22-80l10-0.4c0.8,0,1.2,0,2-0.4
				C345,60,351.8,50.8,351.8,40V24c0-13.2-10.8-24-24-24H88.2c-13.2,0-24,10.8-24,24v16c0,13.2,10.8,24,24,24h6l22,80.4
				c8.4,29.6,31.2,52.4,60,60.8v6.8c-28.8,8.8-51.6,31.6-60,60.8l-22,79.6h-6c-0.4,0-0.4,0-0.8,0l-4,0.4c-0.4,0-0.8,0-1.6,0.4
				c-10.8,3.2-17.6,12.4-17.6,23.2v16c0,13.2,10.8,24,24,24h240c13.2,0,24-10.8,24-24v-16C352.2,363.2,341.4,352.4,328.2,352.4z
				 M131.4,277.2c6.4-22.4,23.2-40.4,44.8-48.4v11.6c0,4.4,3.6,8,8,8c4.4,0,8-3.6,8-8V218v-19.2v-14.4c0-4.4-3.6-8-8-8
				c-4.4,0-8,3.6-8,8v4c-21.6-7.6-38-25.6-44.8-48.4l-20.8-75.6h121.6c4.4,0,8-3.6,8-8s-3.6-8-8-8h-144c-4.4,0-8-3.6-8-8v-16
				c0-4.4,3.6-8,8-8h240c4.4,0,8,3.6,8,8v16c0,4-2.8,6.4-5.6,7.6l-14.4,0.4c-3.6,0-6.4,2.4-7.6,6L285,140
				c-6.4,22.4-23.2,40.4-44.8,48v-15.6c0-4.4-3.6-8-8-8c-4.4,0-8,3.6-8,8v52c0,4.4,3.6,8,8,8c2.8,0,5.6-1.6,6.8-4
				c22.4,7.6,39.2,25.6,46,48.8l20.8,75.2H110.6L131.4,277.2z M336.2,392.4c0,4.4-3.6,8-8,8h-240c-4.4,0-8-3.6-8-8v-16
				c0-4,2.8-6.8,5.6-7.6l2.8-0.4h11.6h216h12c4.4,0,8,3.6,8,8V392.4z"/>
			<path d="M268.2,64.4h12c4.4,0,8-3.6,8-8s-3.6-8-8-8h-12c-4.4,0-8,3.6-8,8S263.8,64.4,268.2,64.4z"/>
		</g>
	</g>
</g>
<g>
</g>
<g>
</g>
<g>
</g>
<g>
</g>
<g>
</g>
<g>
</g>
<g>
</g>
<g>
</g>
<g>
</g>
<g>
</g>
<g>
</g>
<g>
</g>
<g>
</g>
<g>
</g>
<g>
</g>
</svg>
