<?xml version="1.0" encoding="iso-8859-1"?>
<!-- Generator: Adobe Illustrator 19.0.0, SVG Export Plug-In . SVG Version: 6.00 Build 0)  -->
<svg version="1.1" id="Layer_1" xmlns="http://www.w3.org/2000/svg" xmlns:xlink="http://www.w3.org/1999/xlink" x="0px" y="0px"
	 viewBox="0 0 384 384" style="enable-background:new 0 0 384 384;" xml:space="preserve">
<g>
	<g>
		<g>
			<path d="M344,16H40C18,16,0,34,0,56v208c0,22,18,40,40,40h110.4L128,344c-2.8,5.2-2.8,11.2,0,16s8,8,13.6,8h100.8
				c5.6,0,10.8-3.2,13.6-8c2.8-4.8,2.8-10.8,0-16l-22.4-40H344c22,0,40-18,40-40V56C384,34,366,16,344,16z M242.4,352H141.6l26.8-48
				h46.8L242.4,352z M368,264c0,13.2-10.8,24-24,24H220h-56H40c-13.2,0-24-10.8-24-24v-24h352V264z M368,224H16V56
				c0-13.2,10.8-24,24-24h304c13.2,0,24,10.8,24,24V224z"/>
			<path d="M188,272h8c4.4,0,8-3.6,8-8c0-4.4-3.6-8-8-8h-8c-4.4,0-8,3.6-8,8C180,268.4,183.6,272,188,272z"/>
		</g>
	</g>
</g>
<g>
</g>
<g>
</g>
<g>
</g>
<g>
</g>
<g>
</g>
<g>
</g>
<g>
</g>
<g>
</g>
<g>
</g>
<g>
</g>
<g>
</g>
<g>
</g>
<g>
</g>
<g>
</g>
<g>
</g>
</svg>
