<?xml version="1.0" encoding="iso-8859-1"?>
<!-- Generator: Adobe Illustrator 19.0.0, SVG Export Plug-In . SVG Version: 6.00 Build 0)  -->
<svg version="1.1" id="Layer_1" xmlns="http://www.w3.org/2000/svg" xmlns:xlink="http://www.w3.org/1999/xlink" x="0px" y="0px"
	 viewBox="0 0 352 352" style="enable-background:new 0 0 352 352;" xml:space="preserve">
<g>
	<g>
		<g>
			<path d="M256,128c17.6,0,32-14.4,32-32c0-17.6-14.4-32-32-32c-17.6,0-32,14.4-32,32C224,113.6,238.4,128,256,128z M256,80
				c8.8,0,16,7.2,16,16s-7.2,16-16,16s-16-7.2-16-16S247.2,80,256,80z"/>
			<path d="M294.4,152.4c-4-2-8.8-0.8-10.8,3.2s-5.2,8-9.6,12c-9.6,9.6-21.6,15.6-35.2,16.8c-4.4,0.4-7.6,4.4-7.2,8.8
				c0.4,4,4,7.2,8,7.2c0.4,0,0.4,0,0.8,0c17.2-2,32.4-9.2,44.8-21.6c5.2-5.2,9.2-10.4,12-16C300,159.6,298.4,154.8,294.4,152.4z"/>
			<path d="M232.8,0c-66,0-120,54-120,120c0,15.2,2.8,29.6,8,43.2L9.6,274.8c-6,6-9.6,14.4-9.6,22.4V344c0,4.4,3.6,8,8,8h46.8
				c8.8,0,16.8-3.6,22.4-9.6l21.2-21.2c1.2-1.2,1.6-2.4,2-3.6l4.4-18l18-4.4c1.6-0.4,2.8-1.2,3.6-2l11.2-11.2c1.2-1.2,2-2.4,2-4
				l1.6-8.8l8.8-1.6c1.6-0.4,2.8-1.2,4-2l33.6-33.6c13.6,5.6,28.8,8.4,44.4,8.4c66,0,120-54,120-120S298.8,0,232.8,0z M145.2,252
				l-11.6,2.4c-3.2,0.8-5.6,3.2-6.4,6.4l-2,11.2l-8,8l-20.8,5.2c-2.8,0.8-5.2,2.8-6,6L85.2,312l-20,20c-3.6,4-8,4.8-10.8,4.8H16V298
				c0-4,2-8,4.8-11.2L128,178.4c10.8,18.8,26.4,34.8,45.2,45.6L145.2,252z M232.8,224c-42,0-78-24.8-94.4-60.8
				c-0.4-1.2-0.8-2-1.2-3.2c-5.2-12.4-8-26-8-40c0-57.2,46.8-104,104-104s104,46.8,104,104C336.8,177.2,290,224,232.8,224z"/>
		</g>
	</g>
</g>
<g>
</g>
<g>
</g>
<g>
</g>
<g>
</g>
<g>
</g>
<g>
</g>
<g>
</g>
<g>
</g>
<g>
</g>
<g>
</g>
<g>
</g>
<g>
</g>
<g>
</g>
<g>
</g>
<g>
</g>
</svg>
