<?xml version="1.0" encoding="iso-8859-1"?>
<!-- Generator: Adobe Illustrator 19.0.0, SVG Export Plug-In . SVG Version: 6.00 Build 0)  -->
<svg version="1.1" id="Layer_1" xmlns="http://www.w3.org/2000/svg" xmlns:xlink="http://www.w3.org/1999/xlink" x="0px" y="0px"
	 viewBox="0 0 431.6 431.6" style="enable-background:new 0 0 431.6 431.6;" xml:space="preserve">
<g>
	<g>
		<g>
			<path d="M217.423,0c-0.4,0-1.2,0-1.6,0c-84.4,0-157.6,68.8-160,151.6c-1.2,45.2,21.6,92,60.4,124.4c34.4,30.4,35.6,55.6,35.6,56
				c0,0.4,0,0.8,0,0.8l6.8,50.4c3.6,27.6,27.6,48.4,55.6,48.4h3.6c28,0,52-20.8,55.6-48.4l6.4-50c0-0.4,0-0.4,0-0.8
				c0-1.2,1.2-26,36-53.2c38-30,60-74.8,60-123.2C375.823,72.4,303.423,0.8,217.423,0z M306.223,266.4c-38.8,30.4-42,60-42.4,64.8
				l-6.4,50c-2.8,19.6-19.6,34.8-39.6,34.8h-3.6c-20,0-36.8-14.8-39.6-34.8l-6.8-50c-0.4-4.8-3.2-34-41.2-67.6
				c-35.2-29.2-56-71.2-54.8-111.6c2.4-74,68-136,144-136c0.4,0,0.8,0,1.6,0c77.2,0.8,142.4,64.8,142.4,140
				C359.823,199.2,340.223,239.6,306.223,266.4z"/>
			<path d="M278.623,98.4c-3.2-3.2-8-3.2-11.2,0l-51.2,50.8l-50.8-50.8c-3.2-3.2-8-3.2-11.2,0c-3.2,3.2-3.2,8,0,11.2l50.8,50.8
				l-50.8,51.2c-3.2,3.2-3.2,8,0,11.2c1.6,1.6,3.6,2.4,5.6,2.4s4-0.8,5.6-2.4l50.8-50.8l50.8,50.8c1.6,1.6,3.6,2.4,5.6,2.4
				s4-0.8,5.6-2.4c3.2-3.2,3.2-8,0-11.2l-50.4-51.2l50.8-50.8C281.823,106.4,281.823,101.6,278.623,98.4z"/>
		</g>
	</g>
</g>
<g>
</g>
<g>
</g>
<g>
</g>
<g>
</g>
<g>
</g>
<g>
</g>
<g>
</g>
<g>
</g>
<g>
</g>
<g>
</g>
<g>
</g>
<g>
</g>
<g>
</g>
<g>
</g>
<g>
</g>
</svg>
