<?xml version="1.0" encoding="iso-8859-1"?>
<!-- Generator: Adobe Illustrator 19.0.0, SVG Export Plug-In . SVG Version: 6.00 Build 0)  -->
<svg version="1.1" id="Layer_1" xmlns="http://www.w3.org/2000/svg" xmlns:xlink="http://www.w3.org/1999/xlink" x="0px" y="0px"
	 viewBox="0 0 431.6 431.6" style="enable-background:new 0 0 431.6 431.6;" xml:space="preserve">
<g>
	<g>
		<path d="M217.423,0c-0.4,0-1.2,0-1.6,0c-84.4,0-157.6,68.8-160,151.6c-1.2,45.2,21.6,92,60.4,124.4c34.4,30.4,35.6,55.6,35.6,56
			c0,0.4,0,0.8,0,0.8l6.8,50.4c3.6,27.6,27.6,48.4,55.6,48.4h3.6c28,0,52-20.8,55.6-48.4l6.4-50c0-0.4,0-0.4,0-0.8
			c0-1.2,1.2-26,36-53.2c38-30,60-74.8,60-123.2C375.823,72.4,303.423,0.8,217.423,0z M257.423,381.2c-2.8,19.6-19.6,34.8-39.6,34.8
			h-3.6c-20,0-36.8-14.8-39.6-34.8l-6-45.2h94.8L257.423,381.2z M205.823,320l-30.4-118c-0.4-1.2-0.8-2.4-1.6-3.2
			c13.6-4.4,28.4-6.8,43.2-6.8c12.8,0,25.6,2,38,5.6c-1.2,1.2-2.4,2.4-2.8,4.4l-30.4,118H205.823z M306.223,266.4
			c-26.4,20.8-36.4,41.2-40,53.6h-28l29.6-114c0.4-1.2,0.4-2.8,0-4c6.8,2.8,13.2,5.6,19.6,9.2c4,2.4,8.8,0.8,10.8-2.8
			s0.8-8.8-2.8-10.8c-24-13.6-50.8-21.2-78.4-21.6c-29.2,0-57.6,8-81.6,22.8c-3.6,2.4-4.8,7.2-2.8,11.2c1.6,2.4,4,4,6.8,4
			c1.6,0,2.8-0.4,4-1.2c5.2-3.2,10.8-6,16.4-8.4c0,0.8,0,1.2,0.4,2l29.2,113.6h-24c-3.6-12.4-13.2-33.2-39.2-56
			c-34.8-29.6-55.6-71.6-54.4-112c2.4-74,68-136,144-136c0.4,0,0.8,0,1.6,0c77.2,0.8,142.4,64.8,142.4,140
			C359.823,199.2,340.223,239.6,306.223,266.4z"/>
	</g>
</g>
<g>
</g>
<g>
</g>
<g>
</g>
<g>
</g>
<g>
</g>
<g>
</g>
<g>
</g>
<g>
</g>
<g>
</g>
<g>
</g>
<g>
</g>
<g>
</g>
<g>
</g>
<g>
</g>
<g>
</g>
</svg>
