<?xml version="1.0" encoding="iso-8859-1"?>
<!-- Generator: Adobe Illustrator 19.0.0, SVG Export Plug-In . SVG Version: 6.00 Build 0)  -->
<svg version="1.1" id="Layer_1" xmlns="http://www.w3.org/2000/svg" xmlns:xlink="http://www.w3.org/1999/xlink" x="0px" y="0px"
	 viewBox="0 0 423.753 423.753" style="enable-background:new 0 0 423.753 423.753;" xml:space="preserve">
<g>
	<g>
		<path d="M373.392,181.353c-1.2-3.2-4-5.2-7.6-5.2h-122.8l105.6-163.6c2-3.2,1.6-7.6-1.2-10.4s-7.2-2.8-10.4-0.4l-284,224
			c-2.8,2-3.6,5.6-2.8,8.8c0.8,3.2,4,5.2,7.6,5.2h117.6l-108.4,171.6c-2,3.2-1.6,7.6,1.6,10.4c1.6,1.2,3.6,2,5.2,2
			c1.6,0,3.6-0.4,4.8-1.6l292-232C373.392,188.153,374.592,184.553,373.392,181.353z M105.792,380.553l90.8-144.4
			c1.6-2.4,1.6-5.6,0.4-8c-1.6-2.4-4-4-7.2-4h-108.8l228-180l-87.6,135.6c-1.6,2.4-1.6,5.6-0.4,8c1.2,2.4,4,4,7.2,4h114.8
			L105.792,380.553z"/>
	</g>
</g>
<g>
</g>
<g>
</g>
<g>
</g>
<g>
</g>
<g>
</g>
<g>
</g>
<g>
</g>
<g>
</g>
<g>
</g>
<g>
</g>
<g>
</g>
<g>
</g>
<g>
</g>
<g>
</g>
<g>
</g>
</svg>
