<?xml version="1.0" encoding="iso-8859-1"?>
<!-- Generator: Adobe Illustrator 19.0.0, SVG Export Plug-In . SVG Version: 6.00 Build 0)  -->
<svg version="1.1" id="Layer_1" xmlns="http://www.w3.org/2000/svg" xmlns:xlink="http://www.w3.org/1999/xlink" x="0px" y="0px"
	 viewBox="0 0 432.4 432.4" style="enable-background:new 0 0 432.4 432.4;" xml:space="preserve">
<g>
	<g>
		<g>
			<path d="M248.4,201.326c-4.4,0-8,3.6-8,8v12c0,4.4,3.6,8,8,8c4.4,0,8-3.6,8-8v-12C256.4,204.926,252.8,201.326,248.4,201.326z"/>
			<path d="M326,30.926c-6.4-3.6-13.6-3.6-20,0.4l-48,28.8c-8.4,5.2-17.2,8.4-26.4,9.2l-152,17.6c-0.4,0-0.8,0-0.8,0
				c-23.6,5.6-42.8,22.8-52,45.2l-2,4.4c-0.8,1.2-1.2,2.8-1.6,4c-0.4,0.8-0.4,1.2-0.8,2c-0.4,0.4-0.4,0.8-0.4,0.8l-7.2,3.6
				c-9.2,4-14.8,13.6-14.8,24.4v37.6c0,10.4,5.6,19.6,15.2,24.8l6.8,3.6l0.4,0.4c0.8,2.4,1.6,4.8,2.4,6.8l1.6,4.8
				c9.2,22.4,28.4,39.6,52,45.2c0.4,0,0.8,0,0.8,0l41.2,95.2v0.4c4.4,8.8,12.8,14,22,14H160c7.2,0,14-3.2,18.4-8.8
				c4.4-5.6,6.4-12.8,4.8-20l-12-56.8c-0.8-4.4-5.2-7.2-9.6-6c-4.4,0.8-7.2,5.2-6,9.6l12,56.8c0.8,3.2-0.8,5.6-1.6,6.8
				c-1.6,2-3.6,2.8-6,2.8h-17.6c-3.2,0-6-2-7.6-5.2l-37.2-86.4l134,15.6c9.2,1.6,18.4,4.8,26.8,9.2l48,28.8c3.2,2,6.8,2.8,10.4,2.8
				c3.2,0,6.8-0.8,9.6-2.4c6.4-3.6,10-10,10-17.6v-284.8C336.4,41.326,332.4,34.526,326,30.926z M320.8,333.326h-0.4
				c0,2.4-1.2,3.2-2,3.6c-0.8,0.4-2,0.8-4,0l-48-28.8c-10.4-6-21.2-9.6-32.8-11.2L82,279.326c-18.4-4.8-33.2-18-40.4-35.2l-1.2-4.8
				c-0.8-2-1.6-4-2.4-6.4v-0.4c-1.6-3.6-4-6.8-7.2-8.8l-0.4-0.4l-7.2-3.6c-4.4-2.4-6.4-6-6.4-10.4v-37.6c0-4.4,2.4-8.4,5.6-10
				c0,0,0.4,0,0.4-0.4l7.6-4c0,0,0.4,0,0.4-0.4c3.2-2,6-4.8,7.2-8.8c0.4-1.2,0.8-2,1.2-3.2c0.4-0.8,0.4-1.2,0.8-2c0,0,0-0.4,0.4-0.4
				l2-4.8c7.2-17.6,22-30.8,40.4-35.6l151.6-17.6c2.4-0.4,4.4-0.8,6.8-1.2v89.2c0,4.4,3.6,8,8,8c4.4,0,8-3.6,8-8v-93.6
				c3.6-1.6,6.8-3.2,10-5.2l48-28.8c1.6-0.8,3.2-0.4,3.6,0c0.8,0.4,2,1.6,2,3.6V333.326z"/>
			<path d="M406.4,119.726c-2.8-3.2-8-4-11.2-0.8c-3.2,2.8-4,8-0.8,11.2c14.4,16.8,22,38.4,22,60.4s-8,43.6-22,60.4
				c-2.8,3.2-2.4,8.4,0.8,11.2c1.6,1.2,3.2,2,5.2,2c2.4,0,4.4-0.8,6-2.8c16.8-20,26-44.8,26-70.8
				C432.4,164.926,423.2,139.726,406.4,119.726z"/>
			<path d="M364.4,154.126c-4,2.4-5.2,7.2-2.8,10.8c4.4,7.6,6.8,16.4,6.8,25.6s-2.4,17.6-6.8,25.6c-2.4,4-0.8,8.8,2.8,10.8
				c1.2,0.8,2.8,1.2,4,1.2c2.8,0,5.6-1.6,6.8-4c6-10.4,9.2-21.6,9.2-33.6s-3.2-23.6-9.2-33.6
				C373.2,152.926,368,151.726,364.4,154.126z"/>
		</g>
	</g>
</g>
<g>
</g>
<g>
</g>
<g>
</g>
<g>
</g>
<g>
</g>
<g>
</g>
<g>
</g>
<g>
</g>
<g>
</g>
<g>
</g>
<g>
</g>
<g>
</g>
<g>
</g>
<g>
</g>
<g>
</g>
</svg>
