<?xml version="1.0" encoding="iso-8859-1"?>
<!-- Generator: Adobe Illustrator 19.0.0, SVG Export Plug-In . SVG Version: 6.00 Build 0)  -->
<svg version="1.1" id="Layer_1" xmlns="http://www.w3.org/2000/svg" xmlns:xlink="http://www.w3.org/1999/xlink" x="0px" y="0px"
	 viewBox="0 0 392 392" style="enable-background:new 0 0 392 392;" xml:space="preserve">
<g>
	<g>
		<g>
			<path d="M389.6,223.926l-50.8-51.2l50.8-50.8c3.2-3.2,3.2-8,0-11.2c-3.2-3.2-8-3.2-11.2,0l-50.8,50.8l-51.2-50.8
				c-3.2-3.2-8-3.2-11.2,0c-3.2,3.2-3.2,8,0,11.2l50.8,50.8l-50.8,51.2c-3.2,3.2-3.2,8,0,11.2c1.6,1.6,3.6,2.4,5.6,2.4
				s4-0.8,5.6-2.4l51.2-50.8l50.8,50.8c1.6,1.6,3.6,2.4,5.6,2.4s4-0.8,5.6-2.4C392.8,231.926,392.8,227.126,389.6,223.926z"/>
			<path d="M328,216.726c-4.4,0-8,3.6-8,8v88.4c0,2.4-1.2,3.2-2,3.6c-0.8,0.4-2,0.8-4,0l-48-28.8c-10.4-6-21.2-9.6-32.8-11.2
				l-151.6-17.6c-18.4-4.8-33.2-18-40.4-35.2l-1.2-4.8c-0.8-2-1.6-4-2.4-6.4v-0.4c-1.6-3.6-4-6.8-7.2-8.8l-0.4-0.4l-7.2-3.6
				c-4.4-2.4-6.4-6-6.4-10.4v-37.6c0-4.4,2.4-8.4,5.6-10c0,0,0.4,0,0.4-0.4l7.6-4c0,0,0.4,0,0.4-0.4c3.2-2,6-4.8,7.2-8.8
				c0.4-1.2,0.8-2,1.2-3.2c0.4-0.8,0.4-1.2,0.8-2c0,0,0-0.4,0.4-0.4l2-4.8c7.2-17.6,22-30.8,40.4-35.6l151.6-17.6
				c11.6-1.2,22.4-5.2,32.8-11.6l48-28.8c1.6-0.8,3.2-0.4,3.6,0c0.8,0.4,2,1.6,2,3.6v92c0,4.4,3.6,8,8,8c4.4,0,8-3.6,8-8v-91.2
				c0-7.2-4-14-10.4-17.6c-6.4-3.6-13.6-3.6-20,0.4l-48,28.8c-8.4,5.2-17.2,8.4-26.4,9.2l-152,17.6c-0.4,0-0.8,0-0.8,0
				c-23.6,5.6-42.8,22.8-52,45.2l-2,4.4c-0.8,1.2-1.2,2.8-1.6,4c-0.4,0.8-0.4,1.2-0.8,2c-0.4,0.4-0.4,0.8-0.4,0.8l-7.2,3.6
				c-9.2,4-14.8,13.6-14.8,24.4v37.6c0,10.4,5.6,19.6,15.2,24.8l6.8,3.6l0.4,0.4c0.8,2.4,1.6,4.8,2.4,6.8l1.6,4.8
				c9.2,22.4,28.4,39.6,52,45.2c0.4,0,0.8,0,0.8,0l41.2,95.2v0.4c4.4,8.8,12.8,14,22,14H160c7.2,0,14-3.2,18.4-8.8
				c4.4-5.6,6.4-12.8,4.8-20l-12-56.8c-0.8-4.4-5.2-7.2-9.6-6c-4.4,0.8-7.2,5.2-6,9.6l12,56.8c0.8,3.2-0.8,5.6-1.6,6.8
				c-1.6,2-3.6,2.8-6,2.8h-17.6c-3.2,0-6-2-7.6-5.2l-37.2-86.4l133.6,15.6c9.2,1.6,18.4,4.8,26.8,9.2l48,28.8
				c3.2,2,6.8,2.8,10.4,2.8c3.2,0,6.8-0.8,9.6-2.4c6.4-3.6,10-10,10-17.6v-88.4C336,220.326,332.4,216.726,328,216.726z"/>
		</g>
	</g>
</g>
<g>
</g>
<g>
</g>
<g>
</g>
<g>
</g>
<g>
</g>
<g>
</g>
<g>
</g>
<g>
</g>
<g>
</g>
<g>
</g>
<g>
</g>
<g>
</g>
<g>
</g>
<g>
</g>
<g>
</g>
</svg>
