<?xml version="1.0" encoding="iso-8859-1"?>
<!-- Generator: Adobe Illustrator 19.0.0, SVG Export Plug-In . SVG Version: 6.00 Build 0)  -->
<svg version="1.1" id="Layer_1" xmlns="http://www.w3.org/2000/svg" xmlns:xlink="http://www.w3.org/1999/xlink" x="0px" y="0px"
	 viewBox="0 0 395.83 395.83" style="enable-background:new 0 0 395.83 395.83;" xml:space="preserve">
<g>
	<g>
		<g>
			<path d="M245.372,142.865h11.2c4.4,0,8-3.6,8-8c0-4.4-3.6-8-8-8h-11.2c-4.4,0-8,3.6-8,8
				C237.372,139.265,240.972,142.865,245.372,142.865z"/>
			<path d="M394.172,338.465l-10-24.4c-3.2-7.2-10.4-12-18.4-12h-8.8v-159.2h17.2c7.6,0,14-5.2,15.6-12.4c1.6-7.2-2-14.8-8.8-18
				l-166.4-78.8c-10.4-5.2-22.8-5.2-34,0l-167.2,78.8c-6.8,3.2-10.4,10.4-8.8,18c1.6,7.6,8,12.8,15.6,12.8h16.8v159.2h-7.2
				c-8,0-15.2,4.8-18.4,12l-10,24c-2.4,6.4-1.6,13.2,2,18.8c3.6,5.6,10,8.8,16.4,8.8h356c6.4,0,12.8-3.2,16.4-8.8
				C396.172,352.065,396.972,344.865,394.172,338.465z M20.572,126.865l166.8-78.8c6.8-3.2,14-3.2,20.4,0l166.8,78.8h-25.6
				c-4.4,0-8,3.6-8,8c0,0.8,0,1.2,0.4,1.6c0,0.4-0.4,1.2-0.4,1.6v164h-32v-111.2c0-17.6-14.4-32-32-32c-17.6,0-32,14.4-32,32v111.6
				h-16v-111.6c0-17.6-14.4-32-32-32c-17.6,0-32,14.4-32,32v111.6h-16v-111.6c0-17.6-14.4-32-32-32c-17.6,0-32,14.4-32,32v111.6h-32
				v-159.6h156.4c4.4,0,8-3.6,8-8c0-4.4-3.6-8-8-8H20.572z M292.972,190.865v111.6h-32v-111.6c0-8.8,7.2-16,16-16
				S292.972,182.065,292.972,190.865z M212.972,190.865v111.6h-32v-111.6c0-8.8,7.2-16,16-16S212.972,182.065,212.972,190.865z
				 M132.972,190.865v111.6h-32v-111.6c0-8.8,7.2-16,16-16S132.972,182.065,132.972,190.865z M378.972,348.465c-0.4,0.4-1.6,2-3.2,2
				h-356c-2,0-2.8-1.2-3.2-2c-0.4-0.4-1.2-2-0.4-4l10-23.6c0.8-1.6,2.4-2.4,4-2.4h336c1.6,0,3.2,0.8,4,2.4l10,24
				C380.172,346.465,379.372,348.065,378.972,348.465z"/>
		</g>
	</g>
</g>
<g>
</g>
<g>
</g>
<g>
</g>
<g>
</g>
<g>
</g>
<g>
</g>
<g>
</g>
<g>
</g>
<g>
</g>
<g>
</g>
<g>
</g>
<g>
</g>
<g>
</g>
<g>
</g>
<g>
</g>
</svg>
