<?xml version="1.0" encoding="iso-8859-1"?>
<!-- Generator: Adobe Illustrator 19.0.0, SVG Export Plug-In . SVG Version: 6.00 Build 0)  -->
<svg version="1.1" id="Layer_1" xmlns="http://www.w3.org/2000/svg" xmlns:xlink="http://www.w3.org/1999/xlink" x="0px" y="0px"
	 viewBox="0 0 391.411 391.411" style="enable-background:new 0 0 391.411 391.411;" xml:space="preserve">
<g>
	<g>
		<g>
			<path d="M389.251,3.033c-2.4-2.4-5.6-2.8-8.8-1.6l-375.6,153.6c-3.2,1.2-5.2,4.4-4.8,7.6c0,3.2,2.4,6.4,5.6,7.2l162.8,52.4
				l52.4,162.8c1.2,3.2,4,5.6,7.2,5.6h0.4c3.2,0,6-2,7.2-4.8l154.8-374.4C392.051,8.633,391.651,5.033,389.251,3.033z
				 M229.651,359.833l-47.2-146c-0.8-2.4-2.8-4.4-5.2-5.2l-146-47.2l316.8-129.6l-119.2,119.2c-3.2,3.2-3.2,8,0,11.2
				c1.6,1.6,3.6,2.4,5.6,2.4s4-0.8,5.6-2.4l121.6-121.6L229.651,359.833z"/>
			<path d="M203.251,176.633l-8.4,8.4c-3.2,3.2-3.2,8,0,11.2c1.6,1.6,3.6,2.4,5.6,2.4s4-0.8,5.6-2.4l8.4-8.4c3.2-3.2,3.2-8,0-11.2
				C211.251,173.433,206.451,173.433,203.251,176.633z"/>
		</g>
	</g>
</g>
<g>
</g>
<g>
</g>
<g>
</g>
<g>
</g>
<g>
</g>
<g>
</g>
<g>
</g>
<g>
</g>
<g>
</g>
<g>
</g>
<g>
</g>
<g>
</g>
<g>
</g>
<g>
</g>
<g>
</g>
</svg>
