<?xml version="1.0" encoding="iso-8859-1"?>
<!-- Generator: Adobe Illustrator 19.0.0, SVG Export Plug-In . SVG Version: 6.00 Build 0)  -->
<svg version="1.1" id="Layer_1" xmlns="http://www.w3.org/2000/svg" xmlns:xlink="http://www.w3.org/1999/xlink" x="0px" y="0px"
	 viewBox="0 0 384 384" style="enable-background:new 0 0 384 384;" xml:space="preserve">
<g>
	<g>
		<g>
			<path d="M312,160h-8v-52C304,48.4,255.6,0,196,0h-8C128.4,0,80,48.4,80,108v52h-8c-22,0-40,18-40,40v144c0,22,18,40,40,40h240
				c22,0,40-18,40-40V200C352,178,334,160,312,160z M96,108c0-50.8,41.2-92,92-92h8c50.8,0,92,41.2,92,92v52H96V108z M336,344
				c0,13.2-10.8,24-24,24H72c-13.2,0-24-10.8-24-24V224h192c4.4,0,8-3.6,8-8c0-4.4-3.6-8-8-8H48v-8c0-13.2,10.8-24,24-24h240
				c13.2,0,24,10.8,24,24V344z"/>
			<path d="M288,208h-12c-4.4,0-8,3.6-8,8c0,4.4,3.6,8,8,8h12c4.4,0,8-3.6,8-8C296,211.6,292.4,208,288,208z"/>
		</g>
	</g>
</g>
<g>
</g>
<g>
</g>
<g>
</g>
<g>
</g>
<g>
</g>
<g>
</g>
<g>
</g>
<g>
</g>
<g>
</g>
<g>
</g>
<g>
</g>
<g>
</g>
<g>
</g>
<g>
</g>
<g>
</g>
</svg>
