<?xml version="1.0" encoding="iso-8859-1"?>
<!-- Generator: Adobe Illustrator 19.0.0, SVG Export Plug-In . SVG Version: 6.00 Build 0)  -->
<svg version="1.1" id="Layer_1" xmlns="http://www.w3.org/2000/svg" xmlns:xlink="http://www.w3.org/1999/xlink" x="0px" y="0px"
	 viewBox="0 0 384 384" style="enable-background:new 0 0 384 384;" xml:space="preserve">
<g>
	<g>
		<g>
			<path d="M344,72h-41.6c-1.2,0-2-0.4-2.4-0.8c0-0.4-0.4-1.2-0.4-1.6l-16.4-32.4c-4.4-8-12.8-13.2-21.6-13.2h-92.8
				c-9.2,0-17.6,5.2-21.6,13.2L130.8,70c-0.8,1.6-2.4,2-3.6,2H40C18,72,0,90,0,112v208c0,22,18,40,40,40h304c22,0,40-18,40-40V112
				C384,90,366,72,344,72z M64,344H40c-13.2,0-24-10.8-24-24V112c0-13.2,10.8-24,24-24h24V344z M368,320c0,13.2-10.8,24-24,24H80V88
				h47.2c8,0,14.8-4.4,18-11.2l16.4-32.4c1.2-2.8,4-4.4,7.2-4.4h92.8c2.8,0,6,2,7.2,4.4l16,31.6c2.4,7.2,9.2,11.6,17.6,11.6H344
				c13.2,0,24,10.8,24,24V320z"/>
			<path d="M216,104c-57.2,0-104,46.8-104,104s46.8,104,104,104s104-46.8,104-104S273.2,104,216,104z M216,296
				c-48.4,0-88-39.6-88-88c0-48.4,39.6-88,88-88c48.4,0,88,39.6,88,88C304,256.4,264.4,296,216,296z"/>
			<path d="M193.2,148c-5.6,2-10.4,4.8-13.6,7.2c-3.6,2.4-4.8,7.6-2.4,11.2c1.6,2.4,4,3.6,6.8,3.6c1.6,0,3.2-0.4,4.4-1.2
				c2.8-2,6.4-4,10.4-5.6c4-1.6,6.4-6,4.8-10.4C202,148.8,197.6,146.4,193.2,148z"/>
			<path d="M185.2,244.8C174,235.2,168,222.4,168,208c0-6.8,1.6-14.4,4.4-20.8c1.6-4,0-8.8-4-10.4c-4-1.6-8.8,0-10.4,4
				c-4,8.8-6,18-6,27.2c0,18.8,8.4,36.8,22.8,48.8c1.6,1.2,3.2,2,5.2,2c2.4,0,4.4-0.8,6-2.8C188.8,252.8,188.4,247.6,185.2,244.8z"
				/>
		</g>
	</g>
</g>
<g>
</g>
<g>
</g>
<g>
</g>
<g>
</g>
<g>
</g>
<g>
</g>
<g>
</g>
<g>
</g>
<g>
</g>
<g>
</g>
<g>
</g>
<g>
</g>
<g>
</g>
<g>
</g>
<g>
</g>
</svg>
