<?xml version="1.0" encoding="iso-8859-1"?>
<!-- Generator: Adobe Illustrator 19.0.0, SVG Export Plug-In . SVG Version: 6.00 Build 0)  -->
<svg version="1.1" id="Layer_1" xmlns="http://www.w3.org/2000/svg" xmlns:xlink="http://www.w3.org/1999/xlink" x="0px" y="0px"
	 viewBox="0 0 419.6 419.6" style="enable-background:new 0 0 419.6 419.6;" xml:space="preserve">
<g>
	<g>
		<g>
			<path d="M209.8,0c-84,0-152.4,68.4-152.4,152.4c0,53.6,34.8,98.4,71.6,145.2c28,36,57.2,73.2,73.2,116.8c1.2,3.2,4,5.2,7.6,5.2
				c3.6,0,6.4-2,7.6-5.2c16-44,44.8-81.2,73.2-116.8c36.8-47.2,71.6-91.6,71.6-145.2C362.2,68.4,293.8,0,209.8,0z M277.8,288
				c-24.8,32-50.8,64.8-68,102.8c-17.2-38-43.2-71.2-68-102.8c-35.2-44.8-68.4-87.2-68.4-135.6C73.4,77.2,134.6,16,209.8,16
				c75.2,0,136.4,61.2,136.4,136.4C346.2,200.8,313,243.2,277.8,288z"/>
			<path d="M290.2,117.2l-47.6-11.6L217,64c-1.6-2.4-4-4-6.8-4s-5.2,1.6-6.8,4l-25.2,41.6l-47.6,11.6c-2.8,0.8-4.8,2.8-5.6,5.2
				c-0.8,2.8-0.4,5.6,1.6,7.6l31.6,36.8l-4,48.8c-0.4,2.8,0.8,5.6,3.2,7.2c2.4,1.6,5.2,2,7.6,0.8l44.8-18.8l45.2,18.8
				c1.6,0.4,2.4,0.4,3.6,0.4c1.6,0,3.2-0.4,4.8-1.6c2.4-1.6,3.6-4.4,3.2-7.2l-4-48.8l31.6-36.8c2-2,2.4-5.2,1.6-7.6
				C295,119.6,293,117.6,290.2,117.2z M248.2,158.8c-1.6,1.6-2,3.6-2,6l3.2,38.8l-36-14.8c-0.8-0.4-2-0.8-3.2-0.8s-2,0.4-3.2,0.8
				l-36,14.8l3.2-38.8c0-2-0.4-4.4-2-6l-25.6-29.2l38.8-9.6c2-0.4,4-2,4.8-3.6l20-33.2l20.4,33.2c1.2,2,2.8,3.2,4.8,3.6l38,9.2
				L248.2,158.8z"/>
		</g>
	</g>
</g>
<g>
</g>
<g>
</g>
<g>
</g>
<g>
</g>
<g>
</g>
<g>
</g>
<g>
</g>
<g>
</g>
<g>
</g>
<g>
</g>
<g>
</g>
<g>
</g>
<g>
</g>
<g>
</g>
<g>
</g>
</svg>
