<?xml version="1.0" encoding="iso-8859-1"?>
<!-- Generator: Adobe Illustrator 19.0.0, SVG Export Plug-In . SVG Version: 6.00 Build 0)  -->
<svg version="1.1" id="Layer_1" xmlns="http://www.w3.org/2000/svg" xmlns:xlink="http://www.w3.org/1999/xlink" x="0px" y="0px"
	 viewBox="0 0 416 416" style="enable-background:new 0 0 416 416;" xml:space="preserve">
<g>
	<g>
		<g>
			<path d="M300.8,73.2c-4-2.4-8.8-0.8-10.8,2.8c-2,3.6-0.8,8.8,2.8,10.8C344,116.8,376,172.4,376,232c0,92.8-75.2,168-168,168
				S40,324.8,40,232c0-59.6,32-115.2,83.2-145.2c4-2.4,5.2-7.2,2.8-10.8c-2.4-4-7.2-5.2-10.8-2.8C58.8,106,24,166.8,24,232
				c0,101.6,82.4,184,184,184s184-82.4,184-184C392,166.8,357.2,106,300.8,73.2z"/>
			<path d="M208,192c4.4,0,8-3.6,8-8V8c0-4.4-3.6-8-8-8c-4.4,0-8,3.6-8,8v176C200,188.4,203.6,192,208,192z"/>
			<path d="M208,240c4.4,0,8-3.6,8-8v-12c0-4.4-3.6-8-8-8c-4.4,0-8,3.6-8,8v12C200,236.4,203.6,240,208,240z"/>
		</g>
	</g>
</g>
<g>
</g>
<g>
</g>
<g>
</g>
<g>
</g>
<g>
</g>
<g>
</g>
<g>
</g>
<g>
</g>
<g>
</g>
<g>
</g>
<g>
</g>
<g>
</g>
<g>
</g>
<g>
</g>
<g>
</g>
</svg>
