<?xml version="1.0" encoding="iso-8859-1"?>
<!-- Generator: Adobe Illustrator 19.0.0, SVG Export Plug-In . SVG Version: 6.00 Build 0)  -->
<svg version="1.1" id="Layer_1" xmlns="http://www.w3.org/2000/svg" xmlns:xlink="http://www.w3.org/1999/xlink" x="0px" y="0px"
	 viewBox="0 0 368 368" style="enable-background:new 0 0 368 368;" xml:space="preserve">
<g>
	<g>
		<g>
			<path d="M312,96h-47.6c-4.4,0-8,3.6-8,8c0,4.4,3.6,8,8,8H292l-40.8,40.8l-13.6-13.2c-6.4-6.4-16-6.4-22.4,0L148,206.8L125.2,184
				c-6-6-16.4-6-22.4,0l-39.2,39.2c-3.2,3.2-3.2,8,0,11.2c1.6,1.6,3.6,2.4,5.6,2.4s4-0.8,5.6-2.4l39.2-39.2l28.4,28.4
				c3.2,3.2,8,3.2,11.2,0l72.8-72.8l19.2,18.8c3.2,3.2,8,3.2,11.2,0l47.2-47.2v29.2c0,4.4,3.6,8,8,8c4.4,0,8-3.6,8-8V104
				C320,99.6,316.4,96,312,96z"/>
			<path d="M328,16H40C18,16,0,34,0,56v256c0,22,18,40,40,40h288c22,0,40-18,40-40V56C368,34,350,16,328,16z M352,312
				c0,13.2-10.8,24-24,24H40c-13.2,0-24-10.8-24-24V56c0-13.2,10.8-24,24-24h288c13.2,0,24,10.8,24,24V312z"/>
			<path d="M44.4,242.4l-8,8c-3.2,3.2-3.2,8,0,11.2C38,263.2,40,264,42,264s4-0.8,5.6-2.4l8-8c3.2-3.2,3.2-8,0-11.2
				C52.4,239.2,47.6,239.2,44.4,242.4z"/>
		</g>
	</g>
</g>
<g>
</g>
<g>
</g>
<g>
</g>
<g>
</g>
<g>
</g>
<g>
</g>
<g>
</g>
<g>
</g>
<g>
</g>
<g>
</g>
<g>
</g>
<g>
</g>
<g>
</g>
<g>
</g>
<g>
</g>
</svg>
