<?xml version="1.0" encoding="iso-8859-1"?>
<!-- Generator: Adobe Illustrator 19.0.0, SVG Export Plug-In . SVG Version: 6.00 Build 0)  -->
<svg version="1.1" id="Layer_1" xmlns="http://www.w3.org/2000/svg" xmlns:xlink="http://www.w3.org/1999/xlink" x="0px" y="0px"
	 viewBox="0 0 396.668 396.668" style="enable-background:new 0 0 396.668 396.668;" xml:space="preserve">
<g>
	<g>
		<g>
			<path d="M168.8,124.261h-12c-4.4,0-8,3.6-8,8c0,4.4,3.6,8,8,8h12c4.4,0,8-3.6,8-8C176.8,127.861,173.2,124.261,168.8,124.261z"/>
			<path d="M396.4,226.661c-2.4-28.8-23.6-52.4-52-57.6c-8-1.2-16-1.2-23.2,0c0,0,0,0-0.4,0v-36.8c0-22-18-40-40-40l-53.2,0.4v-0.4
				c1.2-7.2,1.2-15.2,0-23.2c-5.2-28-29.2-50.4-57.2-52.4c-18.4-1.6-35.6,4.4-49.2,16.8c-13.2,12-20.8,29.2-20.8,47.2
				c0,3.6,0.4,6.8,0.8,10.4v1.2v0.4H40.4c-22,0-40,18-40,40v41.2c0,4.8,2.4,9.6,6,12.4c3.6,2.8,8.4,4,13.2,2.8
				c5.2-0.8,11.2-0.8,17.2,0c20,3.6,33.6,20,35.6,42.8c1.2,14.8-3.2,28.8-12.4,38.4c-8,8.8-19.6,13.6-32,13.6
				c-2.8,0-5.6-0.4-8.4-0.8h-0.8c-4.8-0.8-9.6,0.4-13.2,3.6c-3.6,2.8-5.6,7.2-5.6,11.6v42c0,22,18,40,40,40h61.6
				c4.8,0,9.6-2.4,12.4-6c2.8-3.6,4-8.4,2.8-13.2c-0.8-5.2-0.8-11.2,0-17.2c3.6-21.2,21.6-37.6,42.8-39.6
				c13.6-1.2,26.8,3.2,36.8,12.4s15.6,22,15.6,35.6c0,2.8-0.4,5.6-0.8,8.4v0.4c-0.8,4.8,0.4,9.6,3.6,13.2c2.8,3.6,7.2,5.6,12,5.6h54
				c22,0,40-18,40-40l-0.4-45.2c4.4,1.6,8.4,1.6,12.4,1.6c18,0,35.2-7.6,47.6-21.2C392.4,261.861,398,244.661,396.4,226.661z
				 M368.4,264.661c-9.2,10-22,15.6-35.6,15.6c-3.2,0-6.4,0-8.4-0.4c-4.8-1.2-9.6,0-13.6,2.8c-4,3.2-6,7.6-6,12.4v45.2
				c0,13.2-10.8,24-24,24H228c0,0,0-0.4,0-0.8v-0.8c0.4-3.6,0.8-6.8,0.8-10.4c0-18-7.6-35.2-20.8-47.2c-12-11.2-27.2-16.8-43.6-16.8
				c-2,0-3.6,0-5.6,0.4c-28,2.4-52.4,24.4-57.2,52.8c-1.2,8-1.2,16,0.4,23.2H40.4c-13.2,0-24-10.8-24-24v-41.2c0,0,0.4,0,0.8,0h1.2
				c3.2,0.4,6.4,0.8,10.4,0.8c16.8,0,32.4-6.8,43.6-18.8c12-13.2,18-31.6,16.4-50.8c-2.4-30-21.6-52.4-48.8-57.2
				c-8-1.2-16-1.2-23.2,0.4v-33.6h0.4h104c4.4,0,8-3.6,8-8c0-4.4-3.6-8-8-8H17.6c3.2-9.2,12-16,22.4-16h61.6c4.4,0,8.8-2,11.6-5.6
				c3.2-3.6,4.4-8.4,3.6-13.2v-0.8c0.4-2.8,0-5.6,0-8.4c0-13.6,5.6-26.4,15.6-35.6c10-9.2,23.2-13.6,36.8-12.4
				c21.2,1.6,39.2,18.4,42.8,39.2c1.2,6,1.2,12,0,17.6c-1.2,4.8,0,9.6,2.8,13.2c3.2,4,7.6,6,12.4,6h53.6c13.2,0,24,10.8,24,24v37.2
				c0,4.4,2,8.8,5.6,11.6c3.6,3.2,8.4,4.4,13.6,3.6c5.6-1.2,11.2-1.2,17.6,0c20.8,3.6,37.2,22,39.2,43.2
				C381.6,241.861,377.6,254.661,368.4,264.661z"/>
		</g>
	</g>
</g>
<g>
</g>
<g>
</g>
<g>
</g>
<g>
</g>
<g>
</g>
<g>
</g>
<g>
</g>
<g>
</g>
<g>
</g>
<g>
</g>
<g>
</g>
<g>
</g>
<g>
</g>
<g>
</g>
<g>
</g>
</svg>
