<?xml version="1.0" encoding="iso-8859-1"?>
<!-- Generator: Adobe Illustrator 19.0.0, SVG Export Plug-In . SVG Version: 6.00 Build 0)  -->
<svg version="1.1" id="Layer_1" xmlns="http://www.w3.org/2000/svg" xmlns:xlink="http://www.w3.org/1999/xlink" x="0px" y="0px"
	 viewBox="0 0 383.6 383.6" style="enable-background:new 0 0 383.6 383.6;" xml:space="preserve">
<g>
	<g>
		<g>
			<path d="M319.8,31.6h-76c-0.8,0-1.6,0-2.4,0.4c-0.8-0.8-2-2-2.8-2.8l-32-24.4c-8.8-6.4-20.8-6.4-29.2,0l-32,24.4
				c-1.2,0.8-2,1.6-2.8,2.4H63.8c-22,0-40,18-40,40v16c0,10.4,6.8,19.2,16,22.4v233.6c0,22.8,23.2,40,44,40h220c22,0,40-18,40-40
				V110.4c9.6-3.6,16-12.4,16-22.8v-16C359.8,49.6,341.8,31.6,319.8,31.6z M151.8,48.4c0-2.8,1.2-4.8,2.8-6.4L187,17.2
				c1.2-1.2,3.2-1.6,4.8-1.6c1.6,0,3.6,0.4,5.2,1.6l32,24.4c2.4,2,3.2,4,3.2,6.4v7.6c0,4.4-3.6,8-8,8h-64.4c-4.4,0-8-3.6-8-8V48.4z
				 M343.8,87.6c0,4.4-3.2,7.2-6.4,8c0,0-0.4,0-0.4,0.4c-0.4,0-0.8,0-1.2,0c-4.4,0-8,3.6-8,8v240c0,13.2-10.8,24-24,24h-220
				c-12.8,0-28-10.8-28-24V111.6h156c4.4,0,8-3.6,8-8c0-4.4-3.6-8-8-8h-164c-4.4,0-8-3.6-8-8v-16c0-13.2,10.8-24,24-24h72
				c0,0.4,0,0.4,0,0.8v7.2c0,13.2,10.8,24,24,24h64.4c13.2,0,24-10.8,24-24v-7.2c0-0.4,0-0.4,0-0.8h71.6c13.2,0,24,10.8,24,24V87.6z
				"/>
			<path d="M283.8,95.6h-12c-4.4,0-8,3.6-8,8c0,4.4,3.6,8,8,8h12c4.4,0,8-3.6,8-8C291.8,99.2,288.2,95.6,283.8,95.6z"/>
			<path d="M103.8,159.6h-8c-4.4,0-8,3.6-8,8c0,4.4,3.6,8,8,8h8c4.4,0,8-3.6,8-8C111.8,163.2,108.2,159.6,103.8,159.6z"/>
			<path d="M103.8,207.6h-8c-4.4,0-8,3.6-8,8c0,4.4,3.6,8,8,8h8c4.4,0,8-3.6,8-8C111.8,211.2,108.2,207.6,103.8,207.6z"/>
			<path d="M139.8,175.6h112c4.4,0,8-3.6,8-8c0-4.4-3.6-8-8-8h-112c-4.4,0-8,3.6-8,8C131.8,172,135.4,175.6,139.8,175.6z"/>
			<path d="M271.8,207.6h-132c-4.4,0-8,3.6-8,8c0,4.4,3.6,8,8,8h132c4.4,0,8-3.6,8-8C279.8,211.2,276.2,207.6,271.8,207.6z"/>
			<path d="M103.8,255.6h-8c-4.4,0-8,3.6-8,8c0,4.4,3.6,8,8,8h8c4.4,0,8-3.6,8-8C111.8,259.2,108.2,255.6,103.8,255.6z"/>
			<path d="M227.8,255.6h-88c-4.4,0-8,3.6-8,8c0,4.4,3.6,8,8,8h88c4.4,0,8-3.6,8-8C235.8,259.2,232.2,255.6,227.8,255.6z"/>
		</g>
	</g>
</g>
<g>
</g>
<g>
</g>
<g>
</g>
<g>
</g>
<g>
</g>
<g>
</g>
<g>
</g>
<g>
</g>
<g>
</g>
<g>
</g>
<g>
</g>
<g>
</g>
<g>
</g>
<g>
</g>
<g>
</g>
</svg>
