<?xml version="1.0" encoding="iso-8859-1"?>
<!-- Generator: Adobe Illustrator 19.0.0, SVG Export Plug-In . SVG Version: 6.00 Build 0)  -->
<svg version="1.1" id="Layer_1" xmlns="http://www.w3.org/2000/svg" xmlns:xlink="http://www.w3.org/1999/xlink" x="0px" y="0px"
	 viewBox="0 0 408.4 408.4" style="enable-background:new 0 0 408.4 408.4;" xml:space="preserve">
<g>
	<g>
		<g>
			<path d="M128.8,130c-3.6-2.8-8.4-2-11.2,1.6c-0.4,0.8-1.2,1.6-2,2.4c-0.8,0.8-1.6,2-2,2.8c-2.8,3.6-2,8.4,1.6,11.2
				c1.6,1.2,3.2,1.6,4.8,1.6c2.4,0,4.8-1.2,6.4-3.2c0.4-0.8,1.2-1.6,2-2.4c0.8-0.8,1.6-2,2-2.8C133.2,137.6,132.4,132.8,128.8,130z"
				/>
			<path d="M108,204.4c0-8.8,1.2-18,3.2-26c1.2-4.4-1.2-8.8-5.6-10c-4.4-1.2-8.8,1.2-10,5.6c-2.4,9.2-4,19.6-4,30
				c0,23.2,6.8,45.6,19.2,64.4c1.6,2.4,4,3.6,6.8,3.6c1.6,0,3.2-0.4,4.4-1.2c3.6-2.4,4.8-7.6,2-11.2
				C113.6,243.6,108,224.8,108,204.4z"/>
			<path d="M208,140.4c-35.2,0-64,28.8-64,64s28.8,64,64,64s64-28.8,64-64S243.2,140.4,208,140.4z M208,252.4c-26.4,0-48-21.6-48-48
				c0-26.4,21.6-48,48-48c26.4,0,48,21.6,48,48C256,230.8,234.4,252.4,208,252.4z"/>
			<path d="M396,175.2l-41.2-12c-3.2-12.4-8.4-24.4-14.8-35.6l21.6-38.4c3.2-6.4,2-14-2.8-18.8l-19.6-19.6c-5.2-5.2-13.2-6-19.2-2.4
				l-38,21.2C272,64,261.2,59.2,250.4,56L238,12.8c-1.6-7.2-8-12-15.2-12h-28c-7.2,0-13.6,4.8-15.2,12L168,53.2
				c-12.4,3.2-24.4,7.6-36,13.6l-40-22c-6.4-3.2-14-2-18.8,2.8L53.6,67.2c-5.2,5.2-6,13.2-2.4,19.2l19.6,36.8
				c-7.2,12-13.2,25.2-16.8,39.6l-42,12c-7.2,1.6-12,8-12,15.2v28c0,7.2,4.8,13.6,12,15.2l41.6,12.4C56.8,258,62,270,68.4,281.2
				l-21.6,38.4c-3.2,6.4-2,14,2.8,18.8L69.2,358c5.2,5.2,13.2,6,19.2,2.4l38-21.2c12,6.8,25.6,12.4,40,16l11.6,40.4
				c1.6,7.2,8,12,15.2,12h28c7.2,0,13.6-4.8,15.2-12l12.4-43.2c12.4-3.6,24-9.2,35.6-16l37.2,20.8c6.4,3.2,14,2,18.8-2.8l19.6-19.6
				c5.2-5.2,6-13.2,2.4-19.2l-21.6-39.2c5.6-10.4,9.6-21.2,12.8-32l40.8-11.6c3.6,0,6.8-1.2,9.2-3.6c2.8-2.8,4.8-6.8,4.8-10.8v-28
				C408,183.2,403.2,176.8,396,175.2z M391.6,217.2l-46.8,13.2c-2.8,0.8-4.8,3.2-5.6,6c-3.2,12-8,24.4-14.4,36c-1.2,2.4-1.2,5.2,0,8
				l24,43.2l-19.2,19.2h-0.4L288,320.4c-2.8-1.6-5.6-1.2-8.4,0.4c-12.4,8-25.6,14-39.2,17.6c-2.8,0.8-4.8,2.8-5.6,5.6l-13.6,47.6
				l-27.6,0.4v-0.4l-12.8-45.2c-0.8-2.8-3.2-5.2-6-5.6c-16.4-3.6-31.2-9.2-44-17.2c-1.2-0.8-2.8-1.2-4.4-1.2c-1.2,0-2.8,0.4-4,1.2
				l-42,23.6L60.8,328v-0.4l23.6-42c1.6-2.4,1.2-5.6,0-8C76.8,265.2,71.2,252,68,238c-0.8-2.8-2.8-5.2-5.6-6L16,218l-0.4-27.6H16
				l46.4-13.2c2.8-0.8,4.8-3.2,5.6-5.6c4-16,10-30,18.4-43.2c1.6-2.4,1.6-5.6,0.4-8L64.4,79.2l19.2-19.6H84l43.2,24
				c2.4,1.2,5.2,1.2,8,0c12.8-7.2,26-12,40-15.2c2.8-0.8,5.2-2.8,6-5.6L194,17.6l27.6-0.4v0.4L236,64.4c0.8,2.8,2.8,4.8,5.6,5.6
				c12.8,3.2,24.8,8.4,36,15.6c2.4,1.6,5.6,1.6,8,0l42-23.6l19.6,19.2v0.4l-23.6,42c-1.6,2.4-1.2,5.6,0,8
				c7.6,12.4,13.2,25.6,16.8,39.6c0.8,2.8,2.8,5.2,5.6,6l46.4,13.2v26.4C392,216.8,391.6,216.8,391.6,217.2z"/>
		</g>
	</g>
</g>
<g>
</g>
<g>
</g>
<g>
</g>
<g>
</g>
<g>
</g>
<g>
</g>
<g>
</g>
<g>
</g>
<g>
</g>
<g>
</g>
<g>
</g>
<g>
</g>
<g>
</g>
<g>
</g>
<g>
</g>
</svg>
