<?xml version="1.0" encoding="iso-8859-1"?>
<!-- Generator: Adobe Illustrator 19.0.0, SVG Export Plug-In . SVG Version: 6.00 Build 0)  -->
<svg version="1.1" id="Layer_1" xmlns="http://www.w3.org/2000/svg" xmlns:xlink="http://www.w3.org/1999/xlink" x="0px" y="0px"
	 viewBox="0 0 431.008 431.008" style="enable-background:new 0 0 431.008 431.008;" xml:space="preserve">
<g>
	<g>
		<g>
			<path d="M314.8,323.504c-22,0-40,18-40,40s18,40,40,40s40-18,40-40S336.8,323.504,314.8,323.504z M314.8,387.504
				c-13.2,0-24-10.8-24-24s10.8-24,24-24s24,10.8,24,24S328,387.504,314.8,387.504z"/>
			<path d="M154.8,323.504c-22,0-40,18-40,40s18,40,40,40s40-18,40-40S176.8,323.504,154.8,323.504z M154.8,387.504
				c-13.2,0-24-10.8-24-24s10.8-24,24-24s24,10.8,24,24S168,387.504,154.8,387.504z"/>
			<path d="M426.8,93.904c-4.4-6.4-11.6-10.4-19.6-10.4H80.8l-4.8-24c-3.6-18.8-20-32-39.2-32H8c-4.4,0-8,3.6-8,8c0,4.4,3.6,8,8,8
				h28.8c11.6,0,21.2,8,23.2,19.2l6,30.4c0,0.8,0.4,1.6,0.8,2.4l34.4,180c4,18.8,20.4,32.4,39.6,32.4H328c16.8,0,31.6-10.4,37.6-26
				l63.6-165.6C432.4,108.704,431.2,100.304,426.8,93.904z M414.4,110.304l-63.6,165.6c-3.6,9.6-12.4,15.6-22.4,15.6H141.2
				c-11.2,0-21.2-8.4-23.6-19.6l-24-124.4h188.8c4.4,0,8-3.6,8-8c0-4.4-3.6-8-8-8h-192l-6-32h322.8c2.8,0,4.8,1.2,6.4,3.2
				C415.2,105.104,415.6,107.904,414.4,110.304z"/>
			<path d="M330.4,131.504h-12c-4.4,0-8,3.6-8,8c0,4.4,3.6,8,8,8h12c4.4,0,8-3.6,8-8C338.4,135.104,334.8,131.504,330.4,131.504z"/>
		</g>
	</g>
</g>
<g>
</g>
<g>
</g>
<g>
</g>
<g>
</g>
<g>
</g>
<g>
</g>
<g>
</g>
<g>
</g>
<g>
</g>
<g>
</g>
<g>
</g>
<g>
</g>
<g>
</g>
<g>
</g>
<g>
</g>
</svg>
