<?xml version="1.0" encoding="iso-8859-1"?>
<!-- Generator: Adobe Illustrator 19.0.0, SVG Export Plug-In . SVG Version: 6.00 Build 0)  -->
<svg version="1.1" id="Layer_1" xmlns="http://www.w3.org/2000/svg" xmlns:xlink="http://www.w3.org/1999/xlink" x="0px" y="0px"
	 viewBox="0 0 368 368" style="enable-background:new 0 0 368 368;" xml:space="preserve">
<g>
	<g>
		<g>
			<path d="M248,0H120C98,0,80,18,80,40v288c0,22,18,40,40,40h128c22,0,40-18,40-40V40C288,18,270,0,248,0z M272,328
				c0,13.2-10.8,24-24,24H120c-13.2,0-24-10.8-24-24v-40h176V328z M272,272H96V64h176V272z M272,48H96v-8c0-13.2,10.8-24,24-24h128
				c13.2,0,24,10.8,24,24V48z"/>
			<path d="M184,344c13.2,0,24-10.8,24-24s-10.8-24-24-24s-24,10.8-24,24S170.8,344,184,344z M184,312c4.4,0,8,3.6,8,8
				c0,4.4-3.6,8-8,8c-4.4,0-8-3.6-8-8C176,315.6,179.6,312,184,312z"/>
			<path d="M188,24h-8c-4.4,0-8,3.6-8,8s3.6,8,8,8h8c4.4,0,8-3.6,8-8S192.4,24,188,24z"/>
		</g>
	</g>
</g>
<g>
</g>
<g>
</g>
<g>
</g>
<g>
</g>
<g>
</g>
<g>
</g>
<g>
</g>
<g>
</g>
<g>
</g>
<g>
</g>
<g>
</g>
<g>
</g>
<g>
</g>
<g>
</g>
<g>
</g>
</svg>
