<?xml version="1.0" encoding="iso-8859-1"?>
<!-- Generator: Adobe Illustrator 19.0.0, SVG Export Plug-In . SVG Version: 6.00 Build 0)  -->
<svg version="1.1" id="Layer_1" xmlns="http://www.w3.org/2000/svg" xmlns:xlink="http://www.w3.org/1999/xlink" x="0px" y="0px"
	 viewBox="0 0 372.084 372.084" style="enable-background:new 0 0 372.084 372.084;" xml:space="preserve">
<g>
	<g>
		<g>
			<path d="M339.642,235.684l-50.8-51.2l50.8-50.8c3.2-3.2,3.2-8,0-11.2c-3.2-3.2-8-3.2-11.2,0l-50.8,50.8l-51.2-50.8
				c-3.2-3.2-8-3.2-11.2,0c-3.2,3.2-3.2,8,0,11.2l50.8,50.8l-50.8,51.2c-3.2,3.2-3.2,8,0,11.2c1.6,1.6,3.6,2.4,5.6,2.4
				s4-0.8,5.6-2.4l51.2-50.8l50.8,50.8c1.6,1.6,3.6,2.4,5.6,2.4s4-0.8,5.6-2.4C342.842,243.684,342.842,238.884,339.642,235.684z"/>
			<path d="M278.042,232.084c-4.4,0-8,3.6-8,8v116l-128-96.8c-0.4-4-3.6-7.2-8-7.2c-4.4,0-8,3.6-8,8c0,4.4-3.6,8-8,8h-48
				c-13.2,0-24-10.8-24-24v-112c0-13.2,10.8-24,24-24h48c4.4,0,8,3.6,8,8c0,4.4,3.6,8,8,8c4.4,0,8-3.6,8-8c0-0.8,0-2,0-2.8l128-97.2
				v120c0,4.4,3.6,8,8,8c4.4,0,8-3.6,8-8v-120c0-6-3.6-11.6-8.8-14.4c-5.6-2.8-12-2-16.8,1.6l-126,95.6c-4.4-4-10-6.8-16.4-6.8h-48
				c-22,0-40,18-40,40v112c0,22,18,40,40,40h48c7.6,0,14-3.2,18.4-8.8l124,93.6c2.8,2.4,6.4,3.2,9.6,3.2c2.4,0,4.8-0.4,7.2-1.6
				c5.6-2.8,8.8-8.4,8.8-14.4v-116C286.042,235.684,282.442,232.084,278.042,232.084z"/>
		</g>
	</g>
</g>
<g>
</g>
<g>
</g>
<g>
</g>
<g>
</g>
<g>
</g>
<g>
</g>
<g>
</g>
<g>
</g>
<g>
</g>
<g>
</g>
<g>
</g>
<g>
</g>
<g>
</g>
<g>
</g>
<g>
</g>
</svg>
