<?xml version="1.0" encoding="iso-8859-1"?>
<!-- Generator: Adobe Illustrator 19.0.0, SVG Export Plug-In . SVG Version: 6.00 Build 0)  -->
<svg version="1.1" id="Layer_1" xmlns="http://www.w3.org/2000/svg" xmlns:xlink="http://www.w3.org/1999/xlink" x="0px" y="0px"
	 viewBox="0 0 400 400" style="enable-background:new 0 0 400 400;" xml:space="preserve">
<g>
	<g>
		<g>
			<path d="M360,72H260V48c0-13.2-10.8-24-24-24h-72c-13.2,0-24,10.8-24,24v24H40C18,72,0,90,0,112v224c0,22,18,40,40,40h320
				c22,0,40-18,40-40V112C400,90,382,72,360,72z M156,48c0-4.4,3.6-8,8-8h72c4.4,0,8,3.6,8,8v24h-88V48z M64,360H40
				c-13.2,0-24-10.8-24-24V112c0-13.2,10.8-24,24-24h24V360z M384,336c0,13.2-10.8,24-24,24h-24V188c0-4.4-3.6-8-8-8
				c-4.4,0-8,3.6-8,8v172H80V88h280c13.2,0,24,10.8,24,24V336z"/>
			<path d="M328,132c-4.4,0-8,3.6-8,8v12c0,4.4,3.6,8,8,8c4.4,0,8-3.6,8-8v-12C336,135.6,332.4,132,328,132z"/>
		</g>
	</g>
</g>
<g>
</g>
<g>
</g>
<g>
</g>
<g>
</g>
<g>
</g>
<g>
</g>
<g>
</g>
<g>
</g>
<g>
</g>
<g>
</g>
<g>
</g>
<g>
</g>
<g>
</g>
<g>
</g>
<g>
</g>
</svg>
