<?xml version="1.0" encoding="iso-8859-1"?>
<!-- Generator: Adobe Illustrator 19.0.0, SVG Export Plug-In . SVG Version: 6.00 Build 0)  -->
<svg version="1.1" id="Layer_1" xmlns="http://www.w3.org/2000/svg" xmlns:xlink="http://www.w3.org/1999/xlink" x="0px" y="0px"
	 viewBox="0 0 368 368" style="enable-background:new 0 0 368 368;" xml:space="preserve">
<g>
	<g>
		<g>
			<path d="M328,40H40C18,40,0,58,0,80v208c0,22,18,40,40,40h288c22,0,40-18,40-40V80C368,58,350,40,328,40z M48,312h-8
				c-13.2,0-24-10.8-24-24V80c0-13.2,10.8-24,24-24h8V312z M304,312H64V56h240V312z M352,288c0,13.2-10.8,24-24,24h-8V56h8
				c13.2,0,24,10.8,24,24V288z"/>
			<path d="M336,172c-4.4,0-8,3.6-8,8v8c0,4.4,3.6,8,8,8c4.4,0,8-3.6,8-8v-8C344,175.6,340.4,172,336,172z"/>
		</g>
	</g>
</g>
<g>
</g>
<g>
</g>
<g>
</g>
<g>
</g>
<g>
</g>
<g>
</g>
<g>
</g>
<g>
</g>
<g>
</g>
<g>
</g>
<g>
</g>
<g>
</g>
<g>
</g>
<g>
</g>
<g>
</g>
</svg>
