<?xml version="1.0" encoding="iso-8859-1"?>
<!-- Generator: Adobe Illustrator 19.0.0, SVG Export Plug-In . SVG Version: 6.00 Build 0)  -->
<svg version="1.1" id="Layer_1" xmlns="http://www.w3.org/2000/svg" xmlns:xlink="http://www.w3.org/1999/xlink" x="0px" y="0px"
	 viewBox="0 0 348.1 348.1" style="enable-background:new 0 0 348.1 348.1;" xml:space="preserve">
<g>
	<g>
		<g>
			<path d="M260.1,48.65c-22,0-40,18-40,40s18,40,40,40s40-18,40-40S282.1,48.65,260.1,48.65z M260.1,112.65c-13.2,0-24-10.8-24-24
				s10.8-24,24-24s24,10.8,24,24S273.3,112.65,260.1,112.65z"/>
			<path d="M308.1,1.05h-108c-10.8,0-20.8,4-28,11.6L11.7,172.25c-15.6,15.6-15.6,40.8,0,56.4l107.2,106.8
				c7.6,7.6,17.6,11.6,28.4,11.6s20.8-4,28.4-11.6l160.4-160.4c7.6-7.2,12-17.2,12-27.6V41.05C348.1,19.05,330.1,1.05,308.1,1.05z
				 M332.1,147.45c0,6-2.4,12-7.2,16l-160.8,160.8c-4.4,4.4-10.4,6.8-16.8,6.8s-12.4-2.4-16.8-6.8L22.9,217.45
				c-9.2-9.2-9.2-24.4,0-34l160.4-159.6c4.4-4.4,10.4-6.8,16.8-6.8h108c13.2,0,24,10.8,24,24V147.45z"/>
		</g>
	</g>
</g>
<g>
</g>
<g>
</g>
<g>
</g>
<g>
</g>
<g>
</g>
<g>
</g>
<g>
</g>
<g>
</g>
<g>
</g>
<g>
</g>
<g>
</g>
<g>
</g>
<g>
</g>
<g>
</g>
<g>
</g>
</svg>
