<?xml version="1.0" encoding="iso-8859-1"?>
<!-- Generator: Adobe Illustrator 19.0.0, SVG Export Plug-In . SVG Version: 6.00 Build 0)  -->
<svg version="1.1" id="Layer_1" xmlns="http://www.w3.org/2000/svg" xmlns:xlink="http://www.w3.org/1999/xlink" x="0px" y="0px"
	 viewBox="0 0 480 480" style="enable-background:new 0 0 480 480;" xml:space="preserve">
<g>
	<g>
		<g>
			<path d="M372,48h-8c-59.6,0-108,48.4-108,108v52H40c-22,0-40,18-40,40v144c0,22,18,40,40,40h240c22,0,40-18,40-40V248
				c0-22-18-40-40-40h-8v-52c0-50.8,41.2-92,92-92h8c50.8,0,92,41.2,92,92v28c0,4.4,3.6,8,8,8c4.4,0,8-3.6,8-8v-28
				C480,96.4,431.6,48,372,48z M280,224c13.2,0,24,10.8,24,24v144c0,13.2-10.8,24-24,24H40c-13.2,0-24-10.8-24-24V272h192
				c4.4,0,8-3.6,8-8c0-4.4-3.6-8-8-8H16v-8c0-13.2,10.8-24,24-24H280z"/>
			<path d="M244,272h12c4.4,0,8-3.6,8-8c0-4.4-3.6-8-8-8h-12c-4.4,0-8,3.6-8,8C236,268.4,239.6,272,244,272z"/>
		</g>
	</g>
</g>
<g>
</g>
<g>
</g>
<g>
</g>
<g>
</g>
<g>
</g>
<g>
</g>
<g>
</g>
<g>
</g>
<g>
</g>
<g>
</g>
<g>
</g>
<g>
</g>
<g>
</g>
<g>
</g>
<g>
</g>
</svg>
