<?xml version="1.0" encoding="iso-8859-1"?>
<!-- Generator: Adobe Illustrator 19.0.0, SVG Export Plug-In . SVG Version: 6.00 Build 0)  -->
<svg version="1.1" id="Layer_1" xmlns="http://www.w3.org/2000/svg" xmlns:xlink="http://www.w3.org/1999/xlink" x="0px" y="0px"
	 viewBox="0 0 404.034 404.034" style="enable-background:new 0 0 404.034 404.034;" xml:space="preserve">
<g>
	<g>
		<path d="M395.6,203.417c-5.2-2.8-11.6-2.4-16.8,1.2l-37.2,26.4c-2.8,2-6,2.8-9.6,2.8h-24v-9.6c35.6-16.8,60-52.4,60-94.4
			c0-57.2-46.8-104-104-104c-47.6,0-87.6,32-100,75.6c-15.2-25.6-43.6-43.2-76-43.2c-48.4,0-88,39.6-88,88c0,41.6,29.2,76.4,68,85.6
			v106.4c0,22,18,40,40,40h160c22,0,40-18,40-40v-8h24.4c3.2,0,6.8,1.2,9.2,2.8l37.2,26.4c2.8,2,6,2.8,9.2,2.8c2.8,0,5.2-0.8,7.6-2
			c5.2-2.8,8.4-8,8.4-14v-128.4C404.4,211.817,401.2,206.217,395.6,203.417z M264,42.217c48.4,0,88,39.6,88,88c0,48.4-39.6,88-88,88
			c-48.4,0-88-39.6-88-88C176,81.817,215.6,42.217,264,42.217z M16,146.217c0-39.6,32.4-72,72-72c39.6,0,72,32.4,72,72
			c0,39.6-32.4,72-72,72C48.4,218.217,16,185.817,16,146.217z M388.4,346.617l-37.2-26.4c-5.6-4-12-6-18.4-6H300c-4.4,0-8,3.6-8,8
			v16c0,13.2-10.8,24-24,24H108c-13.2,0-24-10.8-24-24v-104c1.2,0,2.8,0,4,0c38,0,70.4-24.4,82.8-58c16.8,34.4,52.4,58,93.2,58
			c9.6,0,19.2-1.2,28-4v44c0,4.4,3.6,8,8,8c4.4,0,8-3.6,8-8v-24h24.4c6.8,0,13.2-2,18.8-6l37.2-26.4V346.617z"/>
	</g>
</g>
<g>
</g>
<g>
</g>
<g>
</g>
<g>
</g>
<g>
</g>
<g>
</g>
<g>
</g>
<g>
</g>
<g>
</g>
<g>
</g>
<g>
</g>
<g>
</g>
<g>
</g>
<g>
</g>
<g>
</g>
</svg>
