<?xml version="1.0" encoding="iso-8859-1"?>
<!-- Generator: Adobe Illustrator 19.0.0, SVG Export Plug-In . SVG Version: 6.00 Build 0)  -->
<svg version="1.1" id="Layer_1" xmlns="http://www.w3.org/2000/svg" xmlns:xlink="http://www.w3.org/1999/xlink" x="0px" y="0px"
	 viewBox="0 0 423.655 423.655" style="enable-background:new 0 0 423.655 423.655;" xml:space="preserve">
<g>
	<g>
		<g>
			<path d="M418.46,153.427c-50.8-63.2-126-99.2-206.8-99.2c-81.2,0-156.4,36.4-206.8,99.6c-7.2,10-6.4,23.6,2.4,31.6l177.6,172.4
				c7.6,7.6,17.6,11.6,28,11.6c10,0,20.4-3.6,28-11.2l175.6-172.8C425.26,176.627,426.06,163.027,418.46,153.427z M405.26,174.227
				l-175.6,172.4c-9.6,9.2-24.4,9.2-33.6,0l-177.6-172.4c-2.8-2.8-3.2-7.2-0.8-10.4c47.2-59.2,118-93.2,194-93.2
				c75.6,0,146.4,34,194,93.6C408.46,166.627,408.06,171.427,405.26,174.227z"/>
			<path d="M275.66,128.627c-3.2-3.2-8-3.2-11.2,0l-51.2,50.8l-51.2-50.8c-3.2-3.2-8-3.2-11.2,0c-3.2,3.2-3.2,8,0,11.2l51.2,51.2
				l-51.2,50.8c-3.2,3.2-3.2,8,0,11.2c1.6,1.6,3.6,2.4,5.6,2.4s4-0.8,5.6-2.4l51.2-50.8l50.8,50.8c1.6,1.6,3.6,2.4,5.6,2.4
				s4-0.8,5.6-2.4c3.2-3.2,3.2-8,0-11.2l-50.8-50.8l51.2-51.2C278.86,136.627,278.86,131.827,275.66,128.627z"/>
		</g>
	</g>
</g>
<g>
</g>
<g>
</g>
<g>
</g>
<g>
</g>
<g>
</g>
<g>
</g>
<g>
</g>
<g>
</g>
<g>
</g>
<g>
</g>
<g>
</g>
<g>
</g>
<g>
</g>
<g>
</g>
<g>
</g>
</svg>
