<?xml version="1.0" encoding="iso-8859-1"?>
<!-- Generator: Adobe Illustrator 19.0.0, SVG Export Plug-In . SVG Version: 6.00 Build 0)  -->
<svg version="1.1" id="Layer_1" xmlns="http://www.w3.org/2000/svg" xmlns:xlink="http://www.w3.org/1999/xlink" x="0px" y="0px"
	 viewBox="0 0 433.456 433.456" style="enable-background:new 0 0 433.456 433.456;" xml:space="preserve">
<g>
	<g>
		<g>
			<path d="M216.572,134.728c-66.4,0-128,35.2-161.6,92c-2.4,4-0.8,8.8,2.8,10.8c1.2,0.8,2.8,1.2,4,1.2c2.8,0,5.6-1.6,6.8-4
				c30.8-52,87.2-84,148-84c60,0,116.8,32.4,148,84c2.4,3.6,7.2,5.2,10.8,2.8c3.6-2.4,5.2-7.2,2.8-10.8
				C344.172,169.928,282.172,134.728,216.572,134.728z"/>
			<path d="M431.772,169.928c-49.6-69.6-130-111.2-215.2-111.2s-165.6,41.6-215.2,111.2c-2.4,3.6-1.6,8.4,2,11.2
				c3.6,2.4,8.4,1.6,11.2-2c46.4-65.2,122-104.4,202-104.4s155.6,39.2,202.4,104.8c1.6,2,4,3.2,6.4,3.2c1.6,0,3.2-0.4,4.8-1.6
				C433.772,178.728,434.572,173.528,431.772,169.928z"/>
			<path d="M216.572,210.728c-46.4,0-88.8,29.6-105.2,73.2c-1.6,4,0.4,8.8,4.8,10.4c0.8,0.4,2,0.4,2.8,0.4c3.2,0,6.4-2,7.6-5.2
				c14-37.6,50-62.8,90-62.8s76,25.2,90,62.8c1.6,4,6,6.4,10.4,4.8c4-1.6,6.4-6,4.8-10.4
				C305.372,240.328,262.972,210.728,216.572,210.728z"/>
			<path d="M215.772,278.728c-26.4,0-48,21.6-48,48c0,26.4,21.6,48,48,48c26.4,0,48-21.6,48-48
				C263.772,300.328,242.172,278.728,215.772,278.728z M215.772,358.728c-17.6,0-32-14.4-32-32c0-17.6,14.4-32,32-32
				c17.6,0,32,14.4,32,32C247.772,344.328,233.372,358.728,215.772,358.728z"/>
		</g>
	</g>
</g>
<g>
</g>
<g>
</g>
<g>
</g>
<g>
</g>
<g>
</g>
<g>
</g>
<g>
</g>
<g>
</g>
<g>
</g>
<g>
</g>
<g>
</g>
<g>
</g>
<g>
</g>
<g>
</g>
<g>
</g>
</svg>
