<?xml version="1.0" encoding="iso-8859-1"?>
<!-- Generator: Adobe Illustrator 19.0.0, SVG Export Plug-In . SVG Version: 6.00 Build 0)  -->
<svg version="1.1" id="Layer_1" xmlns="http://www.w3.org/2000/svg" xmlns:xlink="http://www.w3.org/1999/xlink" x="0px" y="0px"
	 viewBox="0 0 382 382" style="enable-background:new 0 0 382 382;" xml:space="preserve">
<g>
	<g>
		<g>
			<path d="M314,147h-76V71c0-4.4-3.6-8-8-8c-4.4,0-8,3.6-8,8v76h-76c-4.4,0-8,3.6-8,8c0,4.4,3.6,8,8,8h76v76c0,4.4,3.6,8,8,8
				c4.4,0,8-3.6,8-8v-76h76c4.4,0,8-3.6,8-8C322,150.6,318.4,147,314,147z"/>
			<path d="M230,3C146,3,78,71,78,155c0,37.6,13.6,72,36.4,98.4l-112,112c-3.2,3.2-3.2,8,0,11.2C4,378.2,6,379,8,379s4-0.8,5.6-2.4
				L125.2,265c27.2,26,64.4,42,104.8,42c84,0,152-68,152-152S314,3,230,3z M230,291c-74.8,0-136-61.2-136-136S155.2,19,230,19
				s136,61.2,136,136S304.8,291,230,291z"/>
		</g>
	</g>
</g>
<g>
</g>
<g>
</g>
<g>
</g>
<g>
</g>
<g>
</g>
<g>
</g>
<g>
</g>
<g>
</g>
<g>
</g>
<g>
</g>
<g>
</g>
<g>
</g>
<g>
</g>
<g>
</g>
<g>
</g>
</svg>
