<?xml version="1.0" encoding="iso-8859-1"?>
<!-- Generator: Adobe Illustrator 19.0.0, SVG Export Plug-In . SVG Version: 6.00 Build 0)  -->
<svg version="1.1" id="Layer_1" xmlns="http://www.w3.org/2000/svg" xmlns:xlink="http://www.w3.org/1999/xlink" x="0px" y="0px"
	 viewBox="0 0 404 404" style="enable-background:new 0 0 404 404;" xml:space="preserve">
<g>
	<g>
		<g>
			<path d="M203.8,324c-4.4,0-8,3.6-8,8v4c0,4.4,3.6,8,8,8c4.4,0,8-3.6,8-8v-4C211.8,327.6,208.2,324,203.8,324z"/>
			<path d="M71.8,192h-4c-4.4,0-8,3.6-8,8c0,4.4,3.6,8,8,8h4c4.4,0,8-3.6,8-8C79.8,195.6,76.2,192,71.8,192z"/>
			<path d="M339.8,192h-4c-4.4,0-8,3.6-8,8c0,4.4,3.6,8,8,8h4c4.4,0,8-3.6,8-8C347.8,195.6,344.2,192,339.8,192z"/>
			<path d="M113.4,98.4c-3.2-3.2-8-3.2-11.2,0c-3.2,3.2-3.2,8,0,11.2l2.8,2.8c1.6,1.6,3.6,2.4,5.6,2.4s4-0.8,5.6-2.4
				c3.2-3.2,3.2-8,0-11.2L113.4,98.4z"/>
			<path d="M302.6,287.6c-3.2-3.2-8-3.2-11.2,0s-3.2,8,0,11.2l2.8,2.8c1.6,1.6,3.6,2.4,5.6,2.4s4-0.8,5.6-2.4c3.2-3.2,3.2-8,0-11.2
				L302.6,287.6z"/>
			<path d="M105,287.6l-2.8,2.8c-3.2,3.2-3.2,8,0,11.2c1.6,1.6,3.6,2.4,5.6,2.4s4-0.8,5.6-2.4l2.8-2.8c3.2-3.2,3.2-8,0-11.2
				S108.2,284.4,105,287.6z"/>
			<path d="M294.2,98.4l-2.8,2.8c-3.2,3.2-3.2,8,0,11.2c1.6,1.6,3.6,2.4,5.6,2.4s4-0.8,5.6-2.4l2.8-2.8c3.2-3.2,3.2-8,0-11.2
				C302.2,95.2,297.4,95.2,294.2,98.4z"/>
			<path d="M203.8,68c-4.4,0-8,3.6-8,8v120.8L144.6,248c-3.2,3.2-3.2,8,0,11.2c1.6,1.6,3.6,2.4,5.6,2.4s4-0.8,5.6-2.4l53.6-53.6
				c1.6-1.6,2.4-3.6,2.4-5.6V76C211.8,71.6,208.2,68,203.8,68z"/>
			<path d="M387.8,200c0-22.4-4-44-11.6-64l3.2-3.2c12.8-12.8,20-29.6,20-47.6c0-18.4-7.2-35.6-20-48.4l-4.4-4.4l8.4-8.4
				c3.2-3.2,3.2-8,0-11.2c-3.2-3.2-8-3.2-11.2,0l-8.4,8.4l-0.8-0.8c-12.8-12.8-29.6-20-47.6-20c0,0,0,0-0.4,0c-18,0-35.2,7.2-48,20
				l-5.2,5.2c-18.8-6.4-38-9.6-58-9.6c-21.2,0-41.6,3.6-60.4,10.4L137,20C124.2,7.2,107,0,89,0c0,0,0,0-0.4,0C70.6,0,53.4,7.2,41,20
				l-0.8,0.8l-8.4-8.4c-3.2-3.2-8-3.2-11.2,0c-3.2,3.2-3.2,8,0,11.2L29,32l-4.4,4.4c-13.2,13.2-20,30.4-20,48.4s7.2,35.2,20,47.6
				l6,6C23.4,158,19.8,178.8,19.8,200c0,65.2,34,122.4,85.6,155.2l-35.2,35.2c-3.2,3.2-3.2,8,0,11.2c1.6,1.6,3.6,2.4,5.6,2.4
				s4-0.8,5.6-2.4l38-38c25.2,13.2,54,20.4,84.4,20.4c30.4,0,58.8-7.6,84.4-20.4l38,38c1.6,1.6,3.6,2.4,5.6,2.4s4-0.8,5.6-2.4
				c3.2-3.2,3.2-8,0-11.2l-35.2-35.2C353.8,322.4,387.8,265.2,387.8,200z M314.6,16c0,0,0,0,0.4,0c13.6,0,26.8,5.6,36.4,15.2
				L368.2,48c10,10,15.6,23.2,15.2,37.2c0,13.2-5.2,25.2-14,34.8c-18.8-39.2-51.6-70.8-91.6-88.8C287.8,21.2,301,16,314.6,16z
				 M20.2,85.2c0-14,5.2-27.2,15.2-37.2l16.8-16.8C61.8,21.2,74.6,16,88.6,16c0,0,0,0,0.4,0c14,0,26.8,5.6,36.8,15.2l1.6,1.6
				c-40,18.4-72,50.4-90.4,90l-1.6-1.2C25.4,112,20.2,99.2,20.2,85.2z M203.8,368c-92.8,0-168-75.2-168-168S111,32,203.8,32
				s168,75.2,168,168S296.6,368,203.8,368z"/>
		</g>
	</g>
</g>
<g>
</g>
<g>
</g>
<g>
</g>
<g>
</g>
<g>
</g>
<g>
</g>
<g>
</g>
<g>
</g>
<g>
</g>
<g>
</g>
<g>
</g>
<g>
</g>
<g>
</g>
<g>
</g>
<g>
</g>
</svg>
