<?xml version="1.0" encoding="iso-8859-1"?>
<!-- Generator: Adobe Illustrator 19.0.0, SVG Export Plug-In . SVG Version: 6.00 Build 0)  -->
<svg version="1.1" id="Layer_1" xmlns="http://www.w3.org/2000/svg" xmlns:xlink="http://www.w3.org/1999/xlink" x="0px" y="0px"
	 viewBox="0 0 432 432" style="enable-background:new 0 0 432 432;" xml:space="preserve">
<g>
	<g>
		<g>
			<path d="M64,328.076H40c-13.2,0-24-10.8-24-24v-176c0-13.2,10.8-24,24-24h160c4.4,0,8-3.6,8-8c0-4.4-3.6-8-8-8H40
				c-22,0-40,18-40,40v176c0,22,18,40,40,40h24c4.4,0,8-3.6,8-8C72,331.676,68.4,328.076,64,328.076z"/>
			<path d="M196,328.076h-12c-4.4,0-8,3.6-8,8c0,4.4,3.6,8,8,8h12c4.4,0,8-3.6,8-8C204,331.676,200.4,328.076,196,328.076z"/>
			<path d="M408,168.076h-24v-40c0-22-18-40-40-40h-28c-4.4,0-8,3.6-8,8c0,4.4,3.6,8,8,8h28c13.2,0,24,10.8,24,24v48
				c0,4.4,3.6,8,8,8h32c4.4,0,8,3.6,8,8v48c0,4.4-3.6,8-8,8h-32c-4.4,0-8,3.6-8,8v48c0,13.2-10.8,24-24,24H232c-4.4,0-8,3.6-8,8
				c0,4.4,3.6,8,8,8h112c22,0,40-18,40-40v-40h24c13.2,0,24-10.8,24-24v-48C432,178.876,421.2,168.076,408,168.076z"/>
			<path d="M315.6,189.276c-1.2-3.2-4-5.2-7.6-5.2h-86l70.8-111.6c2-3.2,1.6-7.6-1.6-10.4s-7.2-2.8-10.4-0.4l-210.4,172
				c-2.8,2-3.6,5.6-2.4,8.8c1.2,3.2,4,5.2,7.6,5.2h83.2l-70.8,112c-2,3.2-1.6,7.6,1.6,10.4c1.6,1.2,3.6,2,5.2,2
				c1.6,0,3.6-0.4,5.2-1.6l213.2-172C315.6,196.076,316.8,192.476,315.6,189.276z M128,326.876l52.8-82.8c1.6-2.4,1.6-5.6,0.4-8
				c-1.2-2.4-4-4-7.2-4H98.4l154.4-126.4l-52,82c-1.6,2.4-1.6,5.6-0.4,8c1.2,2.4,4,4,7.2,4h77.6L128,326.876z"/>
		</g>
	</g>
</g>
<g>
</g>
<g>
</g>
<g>
</g>
<g>
</g>
<g>
</g>
<g>
</g>
<g>
</g>
<g>
</g>
<g>
</g>
<g>
</g>
<g>
</g>
<g>
</g>
<g>
</g>
<g>
</g>
<g>
</g>
</svg>
