<?xml version="1.0" encoding="iso-8859-1"?>
<!-- Generator: Adobe Illustrator 19.0.0, SVG Export Plug-In . SVG Version: 6.00 Build 0)  -->
<svg version="1.1" id="Layer_1" xmlns="http://www.w3.org/2000/svg" xmlns:xlink="http://www.w3.org/1999/xlink" x="0px" y="0px"
	 viewBox="0 0 426.4 426.4" style="enable-background:new 0 0 426.4 426.4;" xml:space="preserve">
<g>
	<g>
		<g>
			<path d="M228,295.2l-53.6,53.6c-28.8,28.8-76,28.8-104.8,0c-28.8-28.8-28.8-76,0-104.8l53.6-53.6c3.2-3.2,3.2-8,0-11.2
				s-8-3.2-11.2,0l-53.6,53.6c-35.2,35.2-35.2,92.4,0,127.2c17.6,17.6,40.8,26.4,63.6,26.4s46-8.8,63.6-26.4l53.6-53.6
				c3.2-3.2,3.2-8,0-11.2S231.2,292,228,295.2z"/>
			<path d="M304,241.6l53.6-53.6c35.2-35.2,35.2-92.4,0-127.2c-35.2-35.2-92.4-35.2-127.2,0l-56,56c-3.2,3.2-3.2,8,0,11.2
				c3.2,3.2,8,3.2,11.2,0l56-56c28.8-28.8,76-28.8,104.8,0c28.8,28.8,28.8,76,0,104.8l-53.6,53.6c-3.2,3.2-3.2,8,0,11.2
				c1.6,1.6,3.6,2.4,5.6,2.4S302.4,243.2,304,241.6z"/>
			<path d="M66.4,72.8l52.8,52.4c1.6,1.6,3.6,2.4,5.6,2.4s4-0.8,5.6-2.4c3.2-3.2,3.2-8.4,0-11.2L77.6,61.6c-3.2-3.2-8.4-3.2-11.2,0
				C63.2,64.8,63.2,70,66.4,72.8z"/>
			<path d="M50,202.4c0-4.4-3.6-8-8-8H8c-4.4,0-8,3.6-8,8c0,4.4,3.6,8,8,8h34C46.4,210.4,50,206.8,50,202.4z"/>
			<path d="M307.2,292.4c-3.2-3.2-8-3.2-11.2,0s-3.2,8,0,11.2l52.8,52.8c1.6,1.6,3.6,2.4,5.6,2.4s4-0.8,5.6-2.4
				c3.2-3.2,3.2-8,0-11.2L307.2,292.4z"/>
			<path d="M234,175.2L181.2,228c-3.2,3.2-3.2,8,0,11.2c1.6,1.6,3.6,2.4,5.6,2.4s4-0.8,5.6-2.4l52.8-52.8c3.2-3.2,3.2-8,0-11.2
				S237.2,172,234,175.2z"/>
			<path d="M418.4,194.4H384c-4.4,0-8,3.6-8,8c0,4.4,3.6,8,8,8h34.4c4.4,0,8-3.6,8-8C426.4,198,422.8,194.4,418.4,194.4z"/>
			<path d="M200,376.4c-4.4,0-8,3.6-8,8v34c0,4.4,3.6,8,8,8c4.4,0,8-3.6,8-8v-34C208,380,204.4,376.4,200,376.4z"/>
			<path d="M200,50.4c4.4,0,8-3.6,8-8V8c0-4.4-3.6-8-8-8c-4.4,0-8,3.6-8,8v34.4C192,46.8,195.6,50.4,200,50.4z"/>
		</g>
	</g>
</g>
<g>
</g>
<g>
</g>
<g>
</g>
<g>
</g>
<g>
</g>
<g>
</g>
<g>
</g>
<g>
</g>
<g>
</g>
<g>
</g>
<g>
</g>
<g>
</g>
<g>
</g>
<g>
</g>
<g>
</g>
</svg>
