<?xml version="1.0" encoding="iso-8859-1"?>
<!-- Generator: Adobe Illustrator 19.0.0, SVG Export Plug-In . SVG Version: 6.00 Build 0)  -->
<svg version="1.1" id="Layer_1" xmlns="http://www.w3.org/2000/svg" xmlns:xlink="http://www.w3.org/1999/xlink" x="0px" y="0px"
	 viewBox="0 0 368 368" style="enable-background:new 0 0 368 368;" xml:space="preserve">
<g>
	<g>
		<g>
			<path d="M346.6,304L231.8,149.2V63.6h0.4c0.8,0,1.2,0,2-0.4c10.4-3.2,17.6-12.4,17.6-23.2V24c0-13.2-10.8-24-24-24h-88
				c-13.2,0-24,10.8-24,24v16c0,12,8.8,21.6,20,23.6v85.6L21.4,304c-9.2,12.4-10.4,28.4-3.6,42c6.8,13.6,20.4,22,35.6,22h261.2
				c15.2,0,28.8-8.4,35.6-22C357,332.4,355.8,316.4,346.6,304z M150.2,156.8c1.2-1.2,1.6-3.2,1.6-4.8V64h10c4.4,0,8-3.6,8-8
				c0-4.4-3.6-8-8-8h-22c-4.4,0-8-3.6-8-8V24c0-4.4,3.6-8,8-8h88c4.4,0,8,3.6,8,8v16c0,4-2.8,6.8-5.6,7.6l-6.8,0.4
				c-4.4,0.4-7.6,3.6-7.6,8v96c0,1.6,0.4,3.2,1.6,4.8l60,80.8c-7.6-1.2-15.6-2.8-23.2-5.2l-44.8-13.6c-33.6-10-73.2-9.6-106,1.6H103
				L150.2,156.8z M335.8,338.8c-4,8.4-12,13.2-21.2,13.2H53.4c-9.2,0-17.2-4.8-21.2-13.2c-4.4-8.4-3.6-18,2-25.2l51.6-70l22.4-7.6
				c30-10,66-10.8,96.4-1.6l44.8,13.6c13.6,4,27.6,6.4,40.8,6.8l43.6,58.4C339.4,321.2,340.2,330.4,335.8,338.8z"/>
			<path d="M189.8,64h12c4.4,0,8-3.6,8-8c0-4.4-3.6-8-8-8h-12c-4.4,0-8,3.6-8,8C181.8,60.4,185.4,64,189.8,64z"/>
		</g>
	</g>
</g>
<g>
</g>
<g>
</g>
<g>
</g>
<g>
</g>
<g>
</g>
<g>
</g>
<g>
</g>
<g>
</g>
<g>
</g>
<g>
</g>
<g>
</g>
<g>
</g>
<g>
</g>
<g>
</g>
<g>
</g>
</svg>
