<?xml version="1.0" encoding="iso-8859-1"?>
<!-- Generator: Adobe Illustrator 19.0.0, SVG Export Plug-In . SVG Version: 6.00 Build 0)  -->
<svg version="1.1" id="Layer_1" xmlns="http://www.w3.org/2000/svg" xmlns:xlink="http://www.w3.org/1999/xlink" x="0px" y="0px"
	 viewBox="0 0 431.656 431.656" style="enable-background:new 0 0 431.656 431.656;" xml:space="preserve">
<g>
	<g>
		<g>
			<path d="M355.652,157.428c-3.2-1.2-6-4-7.2-7.6c-18.4-54-68.8-90-125.2-90c-72.8,0-132,59.2-132,132c0,2.4,0,5.2,0.4,8
				c0,1.2-0.4,2.4-1.2,3.6c-0.8,0.8-1.6,1.2-2.4,1.2h-0.4h-3.6c-23.2,0-44.4,9.2-60.4,25.6c-16,16.4-24.4,38.4-23.6,61.2
				c0.8,44.4,39.2,80.4,85.2,80.4h234c61.2,0,111.6-48.4,112.4-108.4C432.052,215.028,401.652,172.628,355.652,157.428z
				 M319.252,355.828h-234c-37.2,0-68.4-29.2-69.6-65.2c-0.8-18.4,6-36,18.8-49.6c12.8-13.6,30.4-20.8,49.2-20.8h3.6
				c5.6,0.4,10.8-1.6,14.4-5.6c4-4,6.4-10,6-16c0-0.4,0-0.4,0-0.8c-0.4-2-0.4-4-0.4-6c0-64,52-116,116-116c49.6,0,94,31.6,110,78.8
				c2.8,8.8,9.2,15.2,17.6,18c39.2,12.8,65.2,49.2,64.8,90.8C414.852,314.228,371.652,355.828,319.252,355.828z"/>
			<path d="M149.652,171.828c-4.4-0.8-8.4,2-9.6,6.4c-0.8,4.8-0.8,9.2-0.8,13.6c0,4.4,3.6,8,8,8c4.4,0,8-3.6,8-8
				c0-3.6,0-7.2,0.8-10.4C156.852,177.028,154.052,173.028,149.652,171.828z"/>
			<path d="M249.652,112.228c-9.2-2.8-18-4.4-26.4-4.4c-25.2,0-48.8,11.2-65.2,30.8c-2.8,3.6-2.4,8.4,1.2,11.2
				c1.6,1.2,3.2,1.6,5.2,1.6c2.4,0,4.8-1.2,6.4-2.8c12.8-16,32-25.2,52.4-25.2c6.8,0,14,1.2,21.6,3.6c4.4,1.2,8.8-1.2,10-5.2
				C256.052,117.828,254.052,113.428,249.652,112.228z"/>
		</g>
	</g>
</g>
<g>
</g>
<g>
</g>
<g>
</g>
<g>
</g>
<g>
</g>
<g>
</g>
<g>
</g>
<g>
</g>
<g>
</g>
<g>
</g>
<g>
</g>
<g>
</g>
<g>
</g>
<g>
</g>
<g>
</g>
</svg>
