<?xml version="1.0" encoding="iso-8859-1"?>
<!-- Generator: Adobe Illustrator 19.0.0, SVG Export Plug-In . SVG Version: 6.00 Build 0)  -->
<svg version="1.1" id="Layer_1" xmlns="http://www.w3.org/2000/svg" xmlns:xlink="http://www.w3.org/1999/xlink" x="0px" y="0px"
	 viewBox="0 0 359.2 359.2" style="enable-background:new 0 0 359.2 359.2;" xml:space="preserve">
<g>
	<g>
		<g>
			<path d="M343.2,47.2l-31.6-31.6c-20.4-20.8-54.4-20.8-74.8,0L210,42.4c-3.2,3.2-3.2,8,0,11.2s8,3.2,11.2,0L248,26.8
				c14.4-14.4,38-14.4,52.4,0L332,58.4c7.2,7.2,10.8,16.4,10.8,26c0,10-4,19.2-10.8,26L115.6,327.2c-4.8,4.8-10.8,7.2-17.2,7.2h-74
				V260c0-6.4,2.4-12.8,7.2-17.2L42,232.4c3.2-3.2,3.2-8,0-11.2s-8-3.2-11.2,0l-10.4,10.4c-7.6,7.2-12,17.6-12,28.8V340
				c-0.4,0.4-0.4,0.4-0.8,0.8l-4.8,4.8c-3.2,3.2-3.2,8,0,11.2c1.6,1.6,3.6,2.4,5.6,2.4s4-0.8,5.6-2.4l4.8-4.8
				c0.4-0.4,0.4-0.4,0.8-0.8h78.8c10.8,0,20.8-4.4,28.4-12L343.2,122c10-10,15.6-23.2,15.6-37.6C358.8,70.4,353.2,57.2,343.2,47.2z"
				/>
			<path d="M120.4,131.6l-50.8,50.8c-3.2,3.2-3.2,8,0,11.2c1.6,1.6,3.6,2.4,5.6,2.4s4-0.8,5.6-2.4l50.8-50.8l51.2,50.8
				c1.6,1.6,3.6,2.4,5.6,2.4s4-0.8,5.6-2.4c3.2-3.2,3.2-8,0-11.2l-50.8-50.8l51.2-51.2c3.2-3.2,3.2-8,0-11.2c-3.2-3.2-8-3.2-11.2,0
				L131.6,120L80.4,69.2c-3.2-3.2-8-3.2-11.2,0c-3.2,3.2-3.2,8,0,11.2L120.4,131.6z"/>
		</g>
	</g>
</g>
<g>
</g>
<g>
</g>
<g>
</g>
<g>
</g>
<g>
</g>
<g>
</g>
<g>
</g>
<g>
</g>
<g>
</g>
<g>
</g>
<g>
</g>
<g>
</g>
<g>
</g>
<g>
</g>
<g>
</g>
</svg>
