<?xml version="1.0" encoding="iso-8859-1"?>
<!-- Generator: Adobe Illustrator 19.0.0, SVG Export Plug-In . SVG Version: 6.00 Build 0)  -->
<svg version="1.1" id="Layer_1" xmlns="http://www.w3.org/2000/svg" xmlns:xlink="http://www.w3.org/1999/xlink" x="0px" y="0px"
	 viewBox="0 0 400 400" style="enable-background:new 0 0 400 400;" xml:space="preserve">
<g>
	<g>
		<g>
			<path d="M360,48H40C18,48,0,66,0,88v224c0,22,18,40,40,40h320c22,0,40-18,40-40V88C400,66,382,48,360,48z M384,292.8l-41.6-46.4
				c-2.8-3.2-8-3.6-11.2-0.4c-3.2,2.8-3.6,8-0.4,11.2l53.2,59.2c-2.4,11.2-12.4,19.6-24,19.6H40c-11.2,0-20.4-7.6-23.2-17.6
				l92.8-96.8c3.2-3.2,2.8-8.4-0.4-11.2c-3.2-3.2-8.4-2.8-11.2,0.4l-82,85.6V138l167.6,75.2c5.2,2.4,10.8,3.2,16.4,3.2
				c5.6,0,11.2-1.2,16.4-3.2L384,138V292.8z M384,120.8l-174,78c-6.4,2.8-13.6,2.8-20,0l-174-78V88c0-13.2,10.8-24,24-24h320
				c13.2,0,24,10.8,24,24V120.8z"/>
			<path d="M305.6,229.6c1.6,1.6,3.6,2.8,6,2.8c2,0,4-0.8,5.2-2c3.2-2.8,3.6-8,0.4-11.2l-7.2-8.4c-2.8-3.2-8-3.6-11.2-0.4
				c-3.2,2.8-3.6,8-0.4,11.2L305.6,229.6z"/>
		</g>
	</g>
</g>
<g>
</g>
<g>
</g>
<g>
</g>
<g>
</g>
<g>
</g>
<g>
</g>
<g>
</g>
<g>
</g>
<g>
</g>
<g>
</g>
<g>
</g>
<g>
</g>
<g>
</g>
<g>
</g>
<g>
</g>
</svg>
