<?xml version="1.0" encoding="iso-8859-1"?>
<!-- Generator: Adobe Illustrator 19.0.0, SVG Export Plug-In . SVG Version: 6.00 Build 0)  -->
<svg version="1.1" id="Layer_1" xmlns="http://www.w3.org/2000/svg" xmlns:xlink="http://www.w3.org/1999/xlink" x="0px" y="0px"
	 viewBox="0 0 384 384" style="enable-background:new 0 0 384 384;" xml:space="preserve">
<g>
	<g>
		<g>
			<path d="M304,0H80C58,0,40,18,40,40v304c0,22,18,40,40,40h122.8c10.8,0,21.2-4,28.4-11.6l101.2-101.2
				c7.2-7.2,11.6-17.6,11.6-28.4V40C344,18,326,0,304,0z M321.2,260L220,361.2c-1.2,1.2-2.4,2.4-4,3.2V280c0-13.2,10.8-24,24-24
				h84.4C323.6,257.6,322.4,258.8,321.2,260z M328,240h-88c-22,0-40,18-40,40v88H80c-13.2,0-24-10.8-24-24V40c0-13.2,10.8-24,24-24
				h224c13.2,0,24,10.8,24,24V240z"/>
			<path d="M108,96h140c4.4,0,8-3.6,8-8c0-4.4-3.6-8-8-8H108c-4.4,0-8,3.6-8,8C100,92.4,103.6,96,108,96z"/>
			<path d="M108,144h56c4.4,0,8-3.6,8-8c0-4.4-3.6-8-8-8h-56c-4.4,0-8,3.6-8,8C100,140.4,103.6,144,108,144z"/>
			<path d="M200,128c-4.4,0-8,3.6-8,8c0,4.4,3.6,8,8,8h12c4.4,0,8-3.6,8-8c0-4.4-3.6-8-8-8H200z"/>
			<path d="M140,224h-32c-4.4,0-8,3.6-8,8c0,4.4,3.6,8,8,8h32c4.4,0,8-3.6,8-8C148,227.6,144.4,224,140,224z"/>
			<path d="M260,176H108c-4.4,0-8,3.6-8,8c0,4.4,3.6,8,8,8h152c4.4,0,8-3.6,8-8C268,179.6,264.4,176,260,176z"/>
		</g>
	</g>
</g>
<g>
</g>
<g>
</g>
<g>
</g>
<g>
</g>
<g>
</g>
<g>
</g>
<g>
</g>
<g>
</g>
<g>
</g>
<g>
</g>
<g>
</g>
<g>
</g>
<g>
</g>
<g>
</g>
<g>
</g>
</svg>
