<?xml version="1.0" encoding="iso-8859-1"?>
<!-- Generator: Adobe Illustrator 19.0.0, SVG Export Plug-In . SVG Version: 6.00 Build 0)  -->
<svg version="1.1" id="Layer_1" xmlns="http://www.w3.org/2000/svg" xmlns:xlink="http://www.w3.org/1999/xlink" x="0px" y="0px"
	 viewBox="0 0 404 404" style="enable-background:new 0 0 404 404;" xml:space="preserve">
<g>
	<g>
		<g>
			<path d="M245.975,175.6c-4.4,0-8,3.6-8,8v12c0,4.4,3.6,8,8,8c4.4,0,8-3.6,8-8v-12C253.975,179.2,250.375,175.6,245.975,175.6z"/>
			<path d="M362.775,175.6l34-85.6c2-4.8,1.6-10.4-1.2-14.8c-2.8-4.8-8-7.2-13.2-7.2h-128.4v-8c0-22-18-40-40-40h-136V8
				c0-4.4-3.6-8-8-8c-4.4,0-8,3.6-8,8v20v192v168h-48c-4.4,0-8,3.6-8,8c0,4.4,3.6,8,8,8h112c4.4,0,8-3.6,8-8c0-4.4-3.6-8-8-8h-48
				V227.6h112.4v8c0,22,18,40,40,40h151.6c5.6,0,10.4-2.8,13.2-7.2c3.2-4.8,3.6-10.4,1.2-15.2L362.775,175.6z M230.375,259.6
				c-13.2,0-24-10.8-24-24v-16c0-4.4-3.6-8-8-8c-0.8,0-1.2,0-2,0.4c-0.8,0-1.2-0.4-2-0.4h-116.4v-176h136c13.2,0,24,10.8,24,24v88
				c0,4.4,3.6,8,8,8c4.4,0,8-3.6,8-8v-64h128V84l-35.2,88.8c-0.8,2-0.8,4,0,6l35.2,80.8H230.375z"/>
		</g>
	</g>
</g>
<g>
</g>
<g>
</g>
<g>
</g>
<g>
</g>
<g>
</g>
<g>
</g>
<g>
</g>
<g>
</g>
<g>
</g>
<g>
</g>
<g>
</g>
<g>
</g>
<g>
</g>
<g>
</g>
<g>
</g>
</svg>
