<?xml version="1.0" encoding="iso-8859-1"?>
<!-- Generator: Adobe Illustrator 19.0.0, SVG Export Plug-In . SVG Version: 6.00 Build 0)  -->
<svg version="1.1" id="Layer_1" xmlns="http://www.w3.org/2000/svg" xmlns:xlink="http://www.w3.org/1999/xlink" x="0px" y="0px"
	 viewBox="0 0 384 384" style="enable-background:new 0 0 384 384;" xml:space="preserve">
<g>
	<g>
		<g>
			<path d="M344,88H212c-6,0-11.2-2-16-6l-38-32.4c-7.2-6-16.4-9.6-26-9.6H40C18,40,0,58,0,80v224c0,22,18,40,40,40h304
				c22,0,40-18,40-40V128C384,106,366,88,344,88z M368,304c0,13.2-10.8,24-24,24H40c-13.2,0-24-10.8-24-24v-8h252c4.4,0,8-3.6,8-8
				c0-4.4-3.6-8-8-8H16V80c0-13.2,10.8-24,24-24h92c5.6,0,11.6,2,15.6,5.6l38,32.4c7.6,6.4,16.8,10,26.4,10h132
				c13.2,0,24,10.8,24,24V304z"/>
			<path d="M316,280h-12c-4.4,0-8,3.6-8,8c0,4.4,3.6,8,8,8h12c4.4,0,8-3.6,8-8C324,283.6,320.4,280,316,280z"/>
		</g>
	</g>
</g>
<g>
</g>
<g>
</g>
<g>
</g>
<g>
</g>
<g>
</g>
<g>
</g>
<g>
</g>
<g>
</g>
<g>
</g>
<g>
</g>
<g>
</g>
<g>
</g>
<g>
</g>
<g>
</g>
<g>
</g>
</svg>
