<?xml version="1.0" encoding="iso-8859-1"?>
<!-- Generator: Adobe Illustrator 19.0.0, SVG Export Plug-In . SVG Version: 6.00 Build 0)  -->
<svg version="1.1" id="Layer_1" xmlns="http://www.w3.org/2000/svg" xmlns:xlink="http://www.w3.org/1999/xlink" x="0px" y="0px"
	 viewBox="0 0 432 432" style="enable-background:new 0 0 432 432;" xml:space="preserve">
<g>
	<g>
		<g>
			<path d="M408,168h-24v-40c0-22-18-40-40-40H40c-22,0-40,18-40,40v176c0,22,18,40,40,40h304c22,0,40-18,40-40v-40h24
				c13.2,0,24-10.8,24-24v-48C432,178.8,421.2,168,408,168z M368,304c0,13.2-10.8,24-24,24H40c-13.2,0-24-10.8-24-24V128
				c0-13.2,10.8-24,24-24h280v124c0,4.4,3.6,8,8,8c4.4,0,8-3.6,8-8V104h8c13.2,0,24,10.8,24,24V304z M416,240c0,4.4-3.6,8-8,8h-24
				v-64h24c4.4,0,8,3.6,8,8V240z"/>
			<path d="M328,256c-4.4,0-8,3.6-8,8v12c0,4.4,3.6,8,8,8c4.4,0,8-3.6,8-8v-12C336,259.6,332.4,256,328,256z"/>
		</g>
	</g>
</g>
<g>
</g>
<g>
</g>
<g>
</g>
<g>
</g>
<g>
</g>
<g>
</g>
<g>
</g>
<g>
</g>
<g>
</g>
<g>
</g>
<g>
</g>
<g>
</g>
<g>
</g>
<g>
</g>
<g>
</g>
</svg>
