<?xml version="1.0" encoding="iso-8859-1"?>
<!-- Generator: Adobe Illustrator 19.0.0, SVG Export Plug-In . SVG Version: 6.00 Build 0)  -->
<svg version="1.1" id="Layer_1" xmlns="http://www.w3.org/2000/svg" xmlns:xlink="http://www.w3.org/1999/xlink" x="0px" y="0px"
	 viewBox="0 0 416 416" style="enable-background:new 0 0 416 416;" xml:space="preserve">
<g>
	<g>
		<g>
			<path d="M271.6,163.65h-11.2c-4.4,0-8,3.6-8,8c0,4.4,3.6,8,8,8h11.2c4.4,0,8-3.6,8-8C279.6,167.25,276,163.65,271.6,163.65z"/>
			<path d="M408,355.25h-44v-175.6h24c7.2,0,13.2-4.8,15.2-11.6c2-7.2-0.8-14.4-7.2-18l-170.8-99.6c-12.4-7.6-28.4-7.6-40.8,0
				l-170.8,99.6c-6.4,3.6-9.6,10.8-7.6,17.6c2,7.2,8,12,15.6,12H44v175.6H8c-4.4,0-8,3.6-8,8c0,4.4,3.6,8,8,8h400c4.4,0,8-3.6,8-8
				C416,358.85,412.4,355.25,408,355.25z M300,355.25h-48v-120c0-4.4,3.6-8,8-8h32c4.4,0,8,3.6,8,8V355.25z M348,171.65
				c0,0.8,0,1.2,0.4,1.6c0,0.4-0.4,1.2-0.4,1.6v180h-32v-119.6c0-13.2-10.8-24-24-24h-32c-13.2,0-24,10.8-24,24v120H60v-175.6h164.4
				c4.4,0,8-3.6,8-8c0-4.4-3.6-8-8-8H22l170.4-99.6c7.6-4.4,17.2-4.4,24.8,0l170.8,99.6h-32C351.6,163.65,348,167.25,348,171.65z"/>
			<path d="M148,211.25c-22,0-40,18-40,40s18,40,40,40s40-18,40-40S170,211.25,148,211.25z M148,275.25c-13.2,0-24-10.8-24-24
				s10.8-24,24-24s24,10.8,24,24S161.2,275.25,148,275.25z"/>
		</g>
	</g>
</g>
<g>
</g>
<g>
</g>
<g>
</g>
<g>
</g>
<g>
</g>
<g>
</g>
<g>
</g>
<g>
</g>
<g>
</g>
<g>
</g>
<g>
</g>
<g>
</g>
<g>
</g>
<g>
</g>
<g>
</g>
</svg>
