<?xml version="1.0" encoding="iso-8859-1"?>
<!-- Generator: Adobe Illustrator 19.0.0, SVG Export Plug-In . SVG Version: 6.00 Build 0)  -->
<svg version="1.1" id="Layer_1" xmlns="http://www.w3.org/2000/svg" xmlns:xlink="http://www.w3.org/1999/xlink" x="0px" y="0px"
	 viewBox="0 0 400 400" style="enable-background:new 0 0 400 400;" xml:space="preserve">
<g>
	<g>
		<g>
			<path d="M360,96H254.4c1.2-3.6,1.6-7.2,1.6-11.2V56c0-13.2-10.8-24-24-24h-64c-13.2,0-24,10.8-24,24v28.8c0,3.6,0.8,7.6,1.6,11.2
				H40c-22,0-40,18-40,40v192c0,22,18,40,40,40h320c22,0,40-18,40-40V136C400,114,382,96,360,96z M160,56c0-4.4,3.6-8,8-8h64
				c4.4,0,8,3.6,8,8v28.8c0,5.6-2,10.8-5.2,14.8c0,0,0,0,0,0.4l-28.4,35.6c-2,2.8-4.8,2.8-6,2.8s-4-0.4-6-2.8L165.6,100
				c-3.6-4.4-5.6-10-5.6-15.2V56z M384,328c0,13.2-10.8,24-24,24H40c-13.2,0-24-10.8-24-24V136c0-13.2,10.8-24,24-24h112
				c0.8,0,1.6,0,2.4-0.4l26.8,34c4.4,5.6,11.2,9.2,18.8,9.2c7.2,0,14-3.2,18.8-9.2l26.8-33.6c0.8,0,1.6,0,2.4,0h112
				c13.2,0,24,10.8,24,24V328z"/>
			<path d="M190.4,261.6c-6.8-22-20.8-30.4-37.6-35.6c7.2-10,11.2-22.4,11.2-34c0-26.4-21.6-48-48-48c-26.4,0-48,21.6-48,48
				c0,11.6,4.4,24,11.6,34.4C64,231.6,50.4,240,43.6,262l-6.8,24.4c-1.2,4.4-0.4,8.8,2,12.4c2.8,3.6,6.8,5.6,11.2,5.6h134
				c4.4,0,8.4-2,11.2-5.6c2.8-3.6,3.2-8,2-12.4L190.4,261.6z M116,160c17.6,0,32,14.4,32,32c0,18-14.8,40-32,40
				c-6,0-11.2-2.4-16-6.4c-0.4-0.4-1.2-1.2-1.6-1.6C90,216,84,203.2,84,192C84,174.4,98.4,160,116,160z M52.8,288l6-21.6
				C63.6,250,73.6,244,92,239.6c7.2,5.2,15.2,8.4,24,8.4c9.2,0,17.2-3.2,24.4-8.8c20,5.2,29.6,10.4,34.8,26.8l6,22H52.8z"/>
			<path d="M188,80h24c4.4,0,8-3.6,8-8s-3.6-8-8-8h-24c-4.4,0-8,3.6-8,8S183.6,80,188,80z"/>
			<path d="M344,192H216c-4.4,0-8,3.6-8,8c0,4.4,3.6,8,8,8h128c4.4,0,8-3.6,8-8C352,195.6,348.4,192,344,192z"/>
			<path d="M268,224h-52c-4.4,0-8,3.6-8,8c0,4.4,3.6,8,8,8h52c4.4,0,8-3.6,8-8C276,227.6,272.4,224,268,224z"/>
			<path d="M316,224h-12c-4.4,0-8,3.6-8,8c0,4.4,3.6,8,8,8h12c4.4,0,8-3.6,8-8C324,227.6,320.4,224,316,224z"/>
		</g>
	</g>
</g>
<g>
</g>
<g>
</g>
<g>
</g>
<g>
</g>
<g>
</g>
<g>
</g>
<g>
</g>
<g>
</g>
<g>
</g>
<g>
</g>
<g>
</g>
<g>
</g>
<g>
</g>
<g>
</g>
<g>
</g>
</svg>
