<?xml version="1.0" encoding="iso-8859-1"?>
<!-- Generator: Adobe Illustrator 19.0.0, SVG Export Plug-In . SVG Version: 6.00 Build 0)  -->
<svg version="1.1" id="Layer_1" xmlns="http://www.w3.org/2000/svg" xmlns:xlink="http://www.w3.org/1999/xlink" x="0px" y="0px"
	 viewBox="0 0 353.6 353.6" style="enable-background:new 0 0 353.6 353.6;" xml:space="preserve">
<g>
	<g>
		<g>
			<path d="M163.225,296l-20,20c-28.8,28.8-76,28.8-104.8,0c-28.8-28.8-28.8-76,0-104.8l53.6-53.6c28.8-28.8,76-28.8,104.8,0
				c9.2,9.2,15.2,20,18.8,32.4c1.2,4.4,5.6,6.8,10,5.6c4.4-1.2,6.8-5.6,5.6-10c-4-15.2-12-28.4-22.8-39.6
				c-35.2-35.2-92.4-35.2-127.2,0l-54,54c-35.2,35.2-35.2,92.4,0,127.2c17.6,17.6,40.8,26.4,63.6,26.4s46-8.8,63.6-26.4l20-20
				c3.2-3.2,3.2-8,0-11.2S166.425,292.8,163.225,296z"/>
			<path d="M196.825,262.4l-5.6,5.6c-3.2,3.2-3.2,8,0,11.2c1.6,1.6,3.6,2.4,5.6,2.4s4-0.8,5.6-2.4l5.6-5.6c3.2-3.2,3.2-8,0-11.2
				S200.025,259.2,196.825,262.4z"/>
			<path d="M326.425,26.4c-35.2-35.2-92.4-35.2-127.2,0l-56,56c-3.2,3.2-3.2,8,0,11.2s8,3.2,11.2,0l56-56c28.8-28.8,76-28.8,104.8,0
				s28.8,76,0,104.8l-53.6,53.6c-14,14-32.4,21.6-52.4,21.6s-38.4-7.6-52.4-21.6c-9.6-9.6-16-21.2-19.2-33.6c-1.2-4.4-5.2-6.8-9.6-6
				c-4.4,1.2-6.8,5.2-6,9.6c3.6,15.6,11.6,30,23.2,41.6c16.8,16.8,39.6,26.4,63.6,26.4s46.8-9.2,63.6-26.4l53.6-53.6
				C361.625,118.4,361.625,61.6,326.425,26.4z"/>
		</g>
	</g>
</g>
<g>
</g>
<g>
</g>
<g>
</g>
<g>
</g>
<g>
</g>
<g>
</g>
<g>
</g>
<g>
</g>
<g>
</g>
<g>
</g>
<g>
</g>
<g>
</g>
<g>
</g>
<g>
</g>
<g>
</g>
</svg>
