<?xml version="1.0" encoding="iso-8859-1"?>
<!-- Generator: Adobe Illustrator 19.0.0, SVG Export Plug-In . SVG Version: 6.00 Build 0)  -->
<svg version="1.1" id="Layer_1" xmlns="http://www.w3.org/2000/svg" xmlns:xlink="http://www.w3.org/1999/xlink" x="0px" y="0px"
	 viewBox="0 0 467.543 467.543" style="enable-background:new 0 0 467.543 467.543;" xml:space="preserve">
<g>
	<g>
		<g>
			<path d="M361.572,245.543l-14.8-61.2c-10-40.4-47.6-68.4-90.8-68.4h-44c-43.6,0-80.8,28.4-90.8,68.8l-15.2,60.8
				c-11.2,44.8-10.8,92.4,1.2,137.2v0.4l0.8,2c13.2,48.4,58.8,82.4,111.2,82.4h29.6c52.8,0,98.4-34,110.8-82.4l0.8-2v-0.4
				C372.371,338.343,372.771,290.743,361.572,245.543z M233.971,191.943c4.4,0,8,3.6,8,8v48c0,4.4-3.6,8-8,8c-4.4,0-8-3.6-8-8v-48
				C225.971,195.543,229.572,191.943,233.971,191.943z M345.171,378.343l-0.8,2v0.4c-10.8,42-50,71.2-95.6,71.2h-29.6
				c-45.2,0-84.8-29.2-96-70.8v-0.4l-0.8-2c-11.2-42-11.6-86.8-1.2-128.8l15.2-60.8c8.4-34,39.6-57.2,75.6-57.2h14v45.6
				c-9.2,3.2-16,12-16,22.4v48c0,13.2,10.8,24,24,24s24-10.8,24-24v-48c0-10.4-6.8-19.2-16-22.4v-45.6h14c36,0,67.2,23.2,75.6,56.4
				l14.8,61.2C356.771,291.943,356.371,336.343,345.171,378.343z"/>
			<path d="M226.771,98.743c1.2,3.2,4.4,5.2,7.6,5.2c0.8,0,2,0,2.8-0.4c4-1.6,6-6.4,4.4-10.4l-10.4-26.4c-2-5.6-1.2-12,2.8-16.8
				l6.4-7.2c9.6-10.8,10.8-26.8,2.8-38.8c-0.8-1.6-2.4-2.8-4-3.2l-1.2-0.4c-4-1.2-8.8,0.8-10,5.2c-1.2,3.6,0.4,7.2,3.2,9.2
				c2.8,6,2,12.8-2.4,17.6l-6.4,7.2c-8,8.8-10,21.6-6,33.2L226.771,98.743z"/>
		</g>
	</g>
</g>
<g>
</g>
<g>
</g>
<g>
</g>
<g>
</g>
<g>
</g>
<g>
</g>
<g>
</g>
<g>
</g>
<g>
</g>
<g>
</g>
<g>
</g>
<g>
</g>
<g>
</g>
<g>
</g>
<g>
</g>
</svg>
