<?xml version="1.0" encoding="iso-8859-1"?>
<!-- Generator: Adobe Illustrator 19.0.0, SVG Export Plug-In . SVG Version: 6.00 Build 0)  -->
<svg version="1.1" id="Layer_1" xmlns="http://www.w3.org/2000/svg" xmlns:xlink="http://www.w3.org/1999/xlink" x="0px" y="0px"
	 viewBox="0 0 376 376" style="enable-background:new 0 0 376 376;" xml:space="preserve">
<g>
	<g>
		<g>
			<path d="M188,290.208c-4.4,0-8,3.6-8,8v12c0,4.4,3.6,8,8,8c4.4,0,8-3.6,8-8v-12C196,293.808,192.4,290.208,188,290.208z"/>
			<path d="M373.2,44.208c-1.6-1.6-4-2.4-6.4-2l-19.2,2.4v-30.4c0-2.8-1.2-5.2-3.6-6.4c-2-1.6-4.8-2-7.2-0.8l-130.8,48
				c-6,2-12,3.2-18,3.2s-12.4-1.2-18-3.2L38.8,6.608c-2.4-0.8-5.2-0.4-7.2,0.8c-2,1.6-3.6,4-3.6,6.4v30.4l-19.2-2
				c-2.4-0.4-4.4,0.4-6.4,2c-1.6,1.6-2.4,3.6-2.4,6v292c0,4,3.2,7.6,7.2,8l173.6,19.2c2.4,0.4,4.8,0.4,7.2,0.4s4.8,0,7.6-0.4
				l173.2-19.2c4-0.4,7.2-4,7.2-8v-292C376,47.808,375.2,45.808,373.2,44.208z M16,335.008v-276l12,1.2v246c0,3.2,2,6.4,5.2,7.6
				l90,33.2L16,335.008z M169.6,347.008L44,300.608v-274.8l120.4,44.4c5.2,2,10.4,2.8,15.6,3.6v188.4c0,4.4,3.6,8,8,8
				c4.4,0,8-3.6,8-8v-188.4c5.2-0.8,10.4-1.6,15.6-3.6l120.4-44.4v274.8l-126,46.4C194,351.008,181.6,351.008,169.6,347.008z
				 M360,335.008l-107.2,12l90-33.2c3.2-1.2,5.2-4,5.2-7.6v-245.6l12-1.2V335.008z"/>
		</g>
	</g>
</g>
<g>
</g>
<g>
</g>
<g>
</g>
<g>
</g>
<g>
</g>
<g>
</g>
<g>
</g>
<g>
</g>
<g>
</g>
<g>
</g>
<g>
</g>
<g>
</g>
<g>
</g>
<g>
</g>
<g>
</g>
</svg>
