<?xml version="1.0" encoding="iso-8859-1"?>
<!-- Generator: Adobe Illustrator 19.0.0, SVG Export Plug-In . SVG Version: 6.00 Build 0)  -->
<svg version="1.1" id="Layer_1" xmlns="http://www.w3.org/2000/svg" xmlns:xlink="http://www.w3.org/1999/xlink" x="0px" y="0px"
	 viewBox="0 0 412.5 412.5" style="enable-background:new 0 0 412.5 412.5;" xml:space="preserve">
<g>
	<g>
		<g>
			<path d="M399.149,215.3l-204-203.6c-15.6-15.6-40.8-15.6-56.4,0l-65.2,65.2c-7.6,7.6-11.6,17.6-11.6,28.4s4,20.8,11.6,28.4
				l204,203.6c7.6,7.6,18,11.6,28.4,11.6c10.4,0,20.4-4,28.4-11.6l25.6-25.6l8.4,8.4c3.2,3.2,3.2,8.4,0,11.6l-28.4,28.4
				c-19.2,19.2-48.8,19.2-68,0l-99.2-99.6c-9.6-9.6-24.4-9.6-34,0l-16.8,16.8c-0.4,0.4-0.4,0.4-0.8,0.8l-23.2,0.4
				c-10.8,0-20.8,4-28,11.6l-61.2,60.8c-4.8,4.8-7.2,10.8-7.2,17.2s2.4,12.4,7.2,17.2l20,20c4.8,4.8,10.8,7.2,17.2,7.2
				c6.4,0,12.4-2.4,17.2-7.2l60.4-60.4c8-8,12-19.2,11.6-31.2l-1.6-24.8c0,0,0,0,0.4-0.4l16.8-16.8c3.2-3.2,8.4-3.2,11.6,0
				l98.8,99.2c12.4,12.4,28.8,18.8,45.2,18.8c16.4,0,32.8-6.4,45.2-18.8l28.4-28.4c9.6-9.6,9.6-24.4,0-34l-8.4-8.4l28.4-28.4
				C414.749,256.1,414.749,230.9,399.149,215.3z M111.949,333.3l-60.4,60.4c-3.2,3.2-8.4,3.2-11.6,0l-20-20
				c-1.6-1.6-2.4-3.6-2.4-5.6s0.8-4,2.4-5.6l61.2-60.8c4.4-4.4,10.4-6.8,16.8-6.8l19.2-0.4l1.6,20.4
				C119.149,321.7,116.349,328.5,111.949,333.3z M387.949,260.5l-65.2,65.2c-9.2,9.2-24.4,9.2-34,0l-204-203.6
				c-4.4-4.4-6.8-10.4-6.8-16.8s2.4-12.4,6.8-16.8l65.2-65.2c4.4-4.4,10.4-6.8,16.8-6.8s12.4,2.4,16.8,6.8l3.6,3.6l-42.8,42.4
				c-3.2,3.2-3.2,8,0,11.2c1.6,1.6,3.6,2.4,5.6,2.4s4-0.8,5.6-2.4l43.2-42.8l189.2,188.8C397.149,236.1,397.149,251.3,387.949,260.5
				z"/>
			<path d="M119.149,96.9l-8.8,8.8c-3.2,3.2-3.2,8,0,11.2c1.6,1.6,3.6,2.4,5.6,2.4s4-0.8,5.6-2.4l8.8-8.8c3.2-3.2,3.2-8,0-11.2
				C127.149,93.7,122.349,93.7,119.149,96.9z"/>
		</g>
	</g>
</g>
<g>
</g>
<g>
</g>
<g>
</g>
<g>
</g>
<g>
</g>
<g>
</g>
<g>
</g>
<g>
</g>
<g>
</g>
<g>
</g>
<g>
</g>
<g>
</g>
<g>
</g>
<g>
</g>
<g>
</g>
</svg>
