<?xml version="1.0" encoding="iso-8859-1"?>
<!-- Generator: Adobe Illustrator 19.0.0, SVG Export Plug-In . SVG Version: 6.00 Build 0)  -->
<svg version="1.1" id="Layer_1" xmlns="http://www.w3.org/2000/svg" xmlns:xlink="http://www.w3.org/1999/xlink" x="0px" y="0px"
	 viewBox="0 0 397.26 397.26" style="enable-background:new 0 0 397.26 397.26;" xml:space="preserve">
<g>
	<g>
		<g>
			<path d="M343.66,43.03l-14.8,14.8c-3.2,3.2-3.2,8,0,11.2c1.6,1.6,3.6,2.4,5.6,2.4s4-0.8,5.6-2.4l14.8-14.8c3.2-3.2,3.2-8,0-11.2
				C351.66,39.83,346.86,39.83,343.66,43.03z"/>
			<path d="M108.46,206.63c2,0,4-0.8,5.6-2.4l8.8-8.4c3.2-3.2,3.2-8,0.4-11.2c-2.8-3.2-8-3.2-11.2,0l-8.8,8.4
				c-3.2,3.2-3.2,8-0.4,11.2C104.46,205.83,106.46,206.63,108.46,206.63z"/>
			<path d="M397.26,49.03c0-12.8-4.8-24.8-14-34c-9.2-9.2-21.2-14-34-14s-24.8,4.8-34,14l-107.2,107.2l-34-34c-22-22-57.6-22-79.2,0
				l-5.6,5.6c-6.8,6.8-8.4,16-6,24.4l-76.4,52.8c-4,2.8-6.4,7.2-6.8,12c-0.4,4.8,1.2,9.2,4.4,12.8l195.6,195.6
				c2.8,2.8,7.2,4.8,11.2,4.8c0.4,0,0.8,0,1.6,0c4.8-0.4,9.2-2.8,12-6.8l51.6-75.6c3.6,2,7.2,2.8,11.2,2.8c6,0,12.4-2.4,17.2-7.2
				l5.6-5.6c21.6-22.4,21.2-58-0.4-79.2l-34.4-34.4l107.6-107.6C392.46,73.83,397.26,61.43,397.26,49.03z M211.26,379.83l-51.2-51.6
				l19.6-19.6c3.2-3.2,3.2-8,0-11.2s-8-3.2-11.2,0l-19.6,19.6l-73.6-73.6l19.6-19.6c3.2-3.2,3.2-8,0-11.2s-8-3.2-11.2,0l-19.6,19.6
				l-48.4-48.4l76.8-52.8l171.6,171.6L211.26,379.83z M372.06,71.43l-113.2,113.2c-3.2,3.2-3.2,8,0,11.2l39.6,39.6
				c15.6,15.2,15.6,40.8,0.4,56.8l-5.6,5.6c-3.2,3.2-8.4,3.2-11.6,0l-181.2-181.2c0,0,0-0.4-0.4-0.4c-0.4-0.4-0.8-0.8-0.8-1.2
				c-2-3.2-1.6-7.2,1.2-10l5.6-5.6c8-8,18-11.6,28.4-11.6c10.4,0,20.4,4,28.4,11.6l39.6,39.6c3.2,3.2,8,3.2,11.2,0l113.2-112.8
				c6-6,14-9.2,22.4-9.2c8.4,0,16.4,3.2,22.4,9.2s9.2,14,9.2,22.4C381.26,57.43,378.06,65.43,372.06,71.43z"/>
		</g>
	</g>
</g>
<g>
</g>
<g>
</g>
<g>
</g>
<g>
</g>
<g>
</g>
<g>
</g>
<g>
</g>
<g>
</g>
<g>
</g>
<g>
</g>
<g>
</g>
<g>
</g>
<g>
</g>
<g>
</g>
<g>
</g>
</svg>
