<?xml version="1.0" encoding="iso-8859-1"?>
<!-- Generator: Adobe Illustrator 19.0.0, SVG Export Plug-In . SVG Version: 6.00 Build 0)  -->
<svg version="1.1" id="Layer_1" xmlns="http://www.w3.org/2000/svg" xmlns:xlink="http://www.w3.org/1999/xlink" x="0px" y="0px"
	 viewBox="0 0 411.3 411.3" style="enable-background:new 0 0 411.3 411.3;" xml:space="preserve">
<g>
	<g>
		<g>
			<path d="M411.3,86.85c0-6.4-2.4-12.4-7.2-17.2l-61.6-62c-4.8-4.8-10.8-7.2-17.2-7.2s-12.4,2.4-17.2,7.2l-21.2,21.2
				c-0.4,0.4-0.8,0.8-1.6,1.2c-0.4,0.4-0.8,0.8-1.2,1.6l-172.4,171.6c-9.2-4.4-20.4-2.4-27.2,4.4l-5.6,5.6c-9.6,9.6-9.6,24.4,0,34
				l7.2,7.2l-56,16c-9.2,2.8-16,10.8-17.2,20.4L0.1,402.05c-0.4,2.4,0.4,4.8,2.4,6.4c1.6,1.6,3.6,2.4,5.6,2.4c0.4,0,0.8,0,0.8,0
				l111.2-12.8c10-1.2,17.6-8,20-17.6l16-55.6l7.6,7.6c4.8,4.8,10.8,7.2,17.2,7.2c6,0,12.4-2.4,17.2-7.2l5.6-5.6
				c4.8-4.8,7.2-10.8,7.2-17.2c0-3.6-0.8-7.2-2.4-10.4l196-195.6C408.9,99.25,411.3,92.85,411.3,86.85z M124.9,376.45
				c-0.8,3.2-3.2,5.6-6.4,6l-88.4,10l29.2-28.8c3.2-3.2,3.2-8,0-11.2c-3.2-3.2-8-3.2-11.2,0l-29.6,29.2l10-88.4c0.4-3.2,2.8-6,6-6.8
				l64.4-18.4l44,44L124.9,376.45z M192.1,315.65l-5.6,5.6c-3.2,3.2-8.4,3.2-11.6,0l-17.2-17.2l-35.2-35.2l-32.4-32.4
				c-3.2-3.2-3.2-8.4,0-11.6l5.6-5.6c1.6-1.6,3.6-2.4,5.6-2.4c1.2,0,2.8,0.4,4,0.8l2.4,1.6l84.4,84.4c1.6,1.6,2.4,3.6,2.4,5.6
				C194.5,312.05,193.7,314.05,192.1,315.65z M197.7,287.25l-73.6-73.6l167.2-166.4l73.2,73.2L197.7,287.25z M392.9,92.45
				l-16.8,16.8l-73.2-73.6l16.8-16.8c3.2-3.2,8.4-3.2,11.6,0l61.6,62c1.6,1.6,2.4,3.6,2.4,5.6S394.5,90.85,392.9,92.45z"/>
			<path d="M76.1,324.05l-8.4,8.4c-3.2,3.2-3.2,8,0,11.2c1.6,1.6,3.6,2.4,5.6,2.4s4-0.8,5.6-2.4l8.4-8.4c3.2-3.2,3.2-8,0-11.2
				S79.3,320.85,76.1,324.05z"/>
		</g>
	</g>
</g>
<g>
</g>
<g>
</g>
<g>
</g>
<g>
</g>
<g>
</g>
<g>
</g>
<g>
</g>
<g>
</g>
<g>
</g>
<g>
</g>
<g>
</g>
<g>
</g>
<g>
</g>
<g>
</g>
<g>
</g>
</svg>
