<?xml version="1.0" encoding="iso-8859-1"?>
<!-- Generator: Adobe Illustrator 19.0.0, SVG Export Plug-In . SVG Version: 6.00 Build 0)  -->
<svg version="1.1" id="Layer_1" xmlns="http://www.w3.org/2000/svg" xmlns:xlink="http://www.w3.org/1999/xlink" x="0px" y="0px"
	 viewBox="0 0 387.661 387.661" style="enable-background:new 0 0 387.661 387.661;" xml:space="preserve">
<g>
	<g>
		<g>
			<path d="M191.756,175.661v-159.6c0-4.4-2-8.8-5.2-12c-3.2-2.8-7.6-4.4-11.6-4c-95.2,4.8-170.4,80-174.8,174.4
				c-0.4,4.4,1.2,8.8,4,12c3.2,3.2,7.2,5.2,12,5.2h159.6C184.556,191.661,191.756,184.461,191.756,175.661z M175.756,16.061v159.6
				h-159.6C20.156,88.861,88.556,20.461,175.756,16.061z"/>
			<path d="M235.756,22.861c-6.8-1.6-14,0.4-19.2,4.8c-5.6,4.4-8.8,11.2-8.8,18.4v153.6c0,4.4-3.6,8-8,8h-153.6
				c-7.2,0-14,3.2-18.4,8.4c-4.4,5.2-6.4,12.4-5.6,19.6c15.6,88,93.2,152,182,152c2.8,0,5.6,0,8.4,0c94-4.4,170.8-81.2,174.8-174.8
				C391.756,120.461,326.556,38.861,235.756,22.861z M371.356,212.061c-3.6,85.2-74,155.6-159.6,159.6c-84,3.6-159.2-56-173.6-138.4
				c-0.4-2.4,0.4-4.8,2-6.8c1.6-2,3.6-2.8,6.4-2.8h153.2c13.2,0,24-10.8,24-24v-153.6c0-2.4,1.2-4.4,2.8-6c0.8-0.8,3.2-2,6-1.6
				C315.756,53.261,375.356,127.661,371.356,212.061z"/>
			<path d="M277.756,312.861c-3.6,2.4-4.4,7.6-2,11.2c1.6,2.4,4,3.6,6.8,3.6c1.6,0,3.2-0.4,4.4-1.2c31.2-21.2,53.2-52.8,61.2-88.8
				c0.8-4.4-1.6-8.8-6-9.6c-4.4-0.8-8.4,1.6-9.6,6C324.956,266.061,305.756,294.061,277.756,312.861z"/>
			<path d="M248.556,328.061c-2.4,0.8-4.4,1.6-7.2,2.4c-4.4,1.2-6.8,5.6-5.6,10c0.8,3.6,4.4,6,7.6,6c0.8,0,1.6,0,2-0.4
				c3.6-0.8,6-2,8.8-3.2c4-1.6,6-6.4,4.4-10.4C257.356,328.061,252.556,326.061,248.556,328.061z"/>
		</g>
	</g>
</g>
<g>
</g>
<g>
</g>
<g>
</g>
<g>
</g>
<g>
</g>
<g>
</g>
<g>
</g>
<g>
</g>
<g>
</g>
<g>
</g>
<g>
</g>
<g>
</g>
<g>
</g>
<g>
</g>
<g>
</g>
</svg>
