<?xml version="1.0" encoding="iso-8859-1"?>
<!-- Generator: Adobe Illustrator 19.0.0, SVG Export Plug-In . SVG Version: 6.00 Build 0)  -->
<svg version="1.1" id="Layer_1" xmlns="http://www.w3.org/2000/svg" xmlns:xlink="http://www.w3.org/1999/xlink" x="0px" y="0px"
	 viewBox="0 0 391.751 391.751" style="enable-background:new 0 0 391.751 391.751;" xml:space="preserve">
<g>
	<g>
		<path d="M389.2,2.803c-2.4-2.4-5.6-2.8-8.8-1.6L4.8,154.403c-2.8,1.6-4.8,4.4-4.8,8c0,3.6,2.4,6.4,5.6,7.2l125.2,40.4l-94.8,94.8
			c-4.8,4.8-7.2,10.8-7.2,17.2s2.4,12.4,7.2,17.2l16.8,16.8c4.8,4.8,10.8,7.2,17.2,7.2c6.4,0,12.4-2.4,17.2-7.2l94.4-94.4l40,124
			c1.2,3.2,4,5.6,7.2,5.6h0.4c3.2,0,6-2,7.2-4.8l154.8-374.4C392.4,8.403,391.6,5.203,389.2,2.803z M229.6,359.603l-37.2-115.6
			c-0.8-2.8-3.2-4.8-5.6-5.2c-0.8,0-1.2-0.4-2-0.4c-2,0-4,0.8-5.6,2.4l-103.6,103.6c-3.2,3.2-8.4,3.2-11.6,0l-16.8-16.8
			c-1.6-1.6-2.4-3.6-2.4-5.6s0.8-4,2.4-5.6l104-104c2-2,2.8-4.8,2-7.6c-0.8-2.8-2.8-4.8-5.2-5.6l-116.8-37.6l337.6-138
			L229.6,359.603z"/>
	</g>
</g>
<g>
</g>
<g>
</g>
<g>
</g>
<g>
</g>
<g>
</g>
<g>
</g>
<g>
</g>
<g>
</g>
<g>
</g>
<g>
</g>
<g>
</g>
<g>
</g>
<g>
</g>
<g>
</g>
<g>
</g>
</svg>
