<?xml version="1.0" encoding="iso-8859-1"?>
<!-- Generator: Adobe Illustrator 19.0.0, SVG Export Plug-In . SVG Version: 6.00 Build 0)  -->
<svg version="1.1" id="Layer_1" xmlns="http://www.w3.org/2000/svg" xmlns:xlink="http://www.w3.org/1999/xlink" x="0px" y="0px"
	 viewBox="0 0 384.1 384.1" style="enable-background:new 0 0 384.1 384.1;" xml:space="preserve">
<g>
	<g>
		<g>
			<path d="M344.05,80.1h-72c17.2-18.8,16.8-48-1.6-66c-18.8-18.8-49.2-18.8-67.6,0c-6.8,6.8-13.6,17.2-18.4,29.2
				c-4.8-12-11.6-22.4-18.4-29.2c-8.8-9.2-21.2-14-34-14s-24.8,4.8-34,14s-14,21.2-14,34c0,12,4.4,23.2,12.4,32h-56.4
				c-22,0-40,18-40,40v32c0,10.4,6.8,19.2,16,22.8c0,0.4,0,0.8,0,1.2v168c0,22.8,23.2,40,44,40h268c22,0,40-18,40-40V174.9
				c9.6-3.6,16-12.4,16-22.8v-32C384.05,98.1,366.05,80.1,344.05,80.1z M214.05,25.3c12.4-12.4,32.8-12.4,45.2,0
				c12.4,12.4,12.4,32.8,0,45.2c-3.2,3.2-7.2,6-10.8,8.4c-0.8,0.4-1.2,0.8-2,1.6h-54.4c0.8-1.2,1.2-2.8,1.2-4
				C192.85,59.3,204.05,35.3,214.05,25.3z M109.65,24.9c6-6,14-9.2,22.4-9.2c8.4,0,16.4,3.2,22.4,9.2c10,10,21.2,34,20.8,50.4
				c0,1.6,0.4,2.8,1.2,4h-54c-0.4,0-1.2-0.4-2.4-1.2c-4-2-7.6-4.8-10.4-8C97.25,57.7,97.25,37.3,109.65,24.9z M176.05,368.1h-116
				c-12.8,0-28-10.8-28-24v-168h144V368.1z M368.05,152.1c0,4.4-3.2,7.2-6.4,8c0,0-0.4,0-0.4,0.4c-0.4,0-0.8,0-1.2,0
				c-4.4,0-8,3.6-8,8v176c0,13.2-10.8,24-24,24h-136V176.1h80c4.4,0,8-3.6,8-8c0-4.4-3.6-8-8-8h-80v-36c0-4.4-3.6-8-8-8
				c-4.4,0-8,3.6-8,8v36h-152c-4.4,0-8-3.6-8-8v-32c0-13.2,10.8-24,24-24h304c13.2,0,24,10.8,24,24V152.1z"/>
			<path d="M320.05,160.1h-12c-4.4,0-8,3.6-8,8c0,4.4,3.6,8,8,8h12c4.4,0,8-3.6,8-8C328.05,163.7,324.45,160.1,320.05,160.1z"/>
		</g>
	</g>
</g>
<g>
</g>
<g>
</g>
<g>
</g>
<g>
</g>
<g>
</g>
<g>
</g>
<g>
</g>
<g>
</g>
<g>
</g>
<g>
</g>
<g>
</g>
<g>
</g>
<g>
</g>
<g>
</g>
<g>
</g>
</svg>
