<?xml version="1.0" encoding="iso-8859-1"?>
<!-- Generator: Adobe Illustrator 19.0.0, SVG Export Plug-In . SVG Version: 6.00 Build 0)  -->
<svg version="1.1" id="Layer_1" xmlns="http://www.w3.org/2000/svg" xmlns:xlink="http://www.w3.org/1999/xlink" x="0px" y="0px"
	 viewBox="0 0 400 400" style="enable-background:new 0 0 400 400;" xml:space="preserve">
<g>
	<g>
		<g>
			<path d="M360,43.8H224v-16c0-13.2-10.8-24-24-24s-24,10.8-24,24v16H40c-22,0-40,18-40,40v16c0,10.4,6.8,19.2,16,22.4v153.6
				c0,22.8,23.2,40,44,40h66L98.8,363c-6.4,10.4-2.8,24,8,30c3.6,2,7.2,3.2,11.2,3.2c2,0,4-0.4,5.6-0.8c5.6-1.6,10.4-5.2,13.2-10.4
				l40-69.2h46.4l39.6,69.2c3.2,5.2,7.6,8.8,13.2,10.4c2,0.4,4,0.8,5.6,0.8c4,0,7.6-1.2,11.2-3.2c5.2-3.2,8.8-7.6,10.4-13.2
				c1.6-5.6,0.8-11.6-2.4-16.8L274,315.8h70c22,0,40-18,40-40V122.6c9.6-3.6,16-12.4,16-22.8v-16C400,61.8,382,43.8,360,43.8z
				 M192,27.8c0-4.4,3.6-8,8-8c4.4,0,8,3.6,8,8v16h-16V27.8z M123.6,377c-0.8,1.6-2.4,2.4-3.6,2.8c-1.2,0.4-2.8,0.4-4.4-0.8
				c-3.2-1.6-4-5.2-2.4-8.4l31.6-54.8h14L123.6,377z M287.2,371c1.2,1.6,0.8,3.6,0.8,4.4c-0.4,1.6-1.6,2.8-2.8,3.6
				c-1.6,1.2-3.6,0.8-4.4,0.8c-1.6-0.4-2.8-1.6-3.6-2.8l-35.6-61.2h14L287.2,371z M384,99.8c0,4.4-3.2,7.2-6.4,8c0,0-0.4,0-0.4,0.4
				c-0.4,0-0.8,0-1.2,0c-4.4,0-8,3.6-8,8v160c0,13.2-10.8,24-24,24H60c-12.8,0-28-10.8-28-24V123.8h252c4.4,0,8-3.6,8-8
				c0-4.4-3.6-8-8-8H24c-4.4,0-8-3.6-8-8v-16c0-13.2,10.8-24,24-24h320c13.2,0,24,10.8,24,24V99.8z"/>
			<path d="M332,107.8h-12c-4.4,0-8,3.6-8,8c0,4.4,3.6,8,8,8h12c4.4,0,8-3.6,8-8C340,111.4,336.4,107.8,332,107.8z"/>
		</g>
	</g>
</g>
<g>
</g>
<g>
</g>
<g>
</g>
<g>
</g>
<g>
</g>
<g>
</g>
<g>
</g>
<g>
</g>
<g>
</g>
<g>
</g>
<g>
</g>
<g>
</g>
<g>
</g>
<g>
</g>
<g>
</g>
</svg>
