<?xml version="1.0" encoding="iso-8859-1"?>
<!-- Generator: Adobe Illustrator 19.0.0, SVG Export Plug-In . SVG Version: 6.00 Build 0)  -->
<svg version="1.1" id="Layer_1" xmlns="http://www.w3.org/2000/svg" xmlns:xlink="http://www.w3.org/1999/xlink" x="0px" y="0px"
	 viewBox="0 0 392 392" style="enable-background:new 0 0 392 392;" xml:space="preserve">
<g>
	<g>
		<g>
			<path d="M248.05,192h-12c-4.4,0-8,3.6-8,8c0,4.4,3.6,8,8,8h12c4.4,0,8-3.6,8-8C256.05,195.6,252.45,192,248.05,192z"/>
			<path d="M335.65,257.6l-28.8-48c-4.8-8.4-8-17.6-9.6-26.8l-17.2-126l13.6-40.8c1.6-3.2,1.2-7.2-0.8-10.4c-2-3.6-6-5.6-10.4-5.6
				h-172.8c-4,0-7.6,2-10,5.2c-2.4,3.2-2.8,7.2-1.6,10.8l13.6,41.2l-17.2,126c-1.6,9.6-4.8,18.8-9.6,26.8l-28.8,48
				c-3.6,6-3.6,13.6-0.4,20c3.6,6.4,10.4,10.4,17.6,10.4h113.6V384c0,4.4,3.6,8,8,8c4.4,0,8-3.6,8-8v-96.4h115.6
				c7.6,0,14-3.6,17.6-10C339.65,271.2,339.65,263.6,335.65,257.6z M276.85,16l-10.4,32h-140.8l-10.8-32H276.85z M322.05,269.6
				c-0.4,0.8-1.6,2-3.6,2H73.25c-2,0-3.2-1.6-3.6-2c-0.4-0.8-0.8-2,0-3.6l28.8-48c2-3.2,3.6-6.4,5.2-10h0.4h96c4.4,0,8-3.6,8-8
				c0-4.4-3.6-8-8-8h-91.2c0.4-2.4,1.2-4.4,1.2-6.8L126.85,64h138l16.8,121.2c1.6,11.2,5.6,22,11.6,32.4l28.8,48
				C322.85,267.6,322.45,268.8,322.05,269.6z"/>
		</g>
	</g>
</g>
<g>
</g>
<g>
</g>
<g>
</g>
<g>
</g>
<g>
</g>
<g>
</g>
<g>
</g>
<g>
</g>
<g>
</g>
<g>
</g>
<g>
</g>
<g>
</g>
<g>
</g>
<g>
</g>
<g>
</g>
</svg>
