<?xml version="1.0" encoding="iso-8859-1"?>
<!-- Generator: Adobe Illustrator 19.0.0, SVG Export Plug-In . SVG Version: 6.00 Build 0)  -->
<svg version="1.1" id="Layer_1" xmlns="http://www.w3.org/2000/svg" xmlns:xlink="http://www.w3.org/1999/xlink" x="0px" y="0px"
	 viewBox="0 0 400 400" style="enable-background:new 0 0 400 400;" xml:space="preserve">
<g>
	<g>
		<g>
			<path d="M360,48H40C18,48,0,66,0,88v224c0,22,18,40,40,40h320c22,0,40-18,40-40V88C400,66,382,48,360,48z M256,336H40
				c-13.2,0-24-10.8-24-24V88c0-13.2,10.8-24,24-24h216V336z M384,312c0,13.2-10.8,24-24,24h-88V64h88c13.2,0,24,10.8,24,24V312z"/>
			<path d="M48,108h8c4.4,0,8-3.6,8-8c0-4.4-3.6-8-8-8h-8c-4.4,0-8,3.6-8,8C40,104.4,43.6,108,48,108z"/>
			<path d="M84,108h8c4.4,0,8-3.6,8-8c0-4.4-3.6-8-8-8h-8c-4.4,0-8,3.6-8,8C76,104.4,79.6,108,84,108z"/>
			<path d="M120,108h8c4.4,0,8-3.6,8-8c0-4.4-3.6-8-8-8h-8c-4.4,0-8,3.6-8,8C112,104.4,115.6,108,120,108z"/>
			<path d="M340,116h-28c-4.4,0-8,3.6-8,8c0,4.4,3.6,8,8,8h28c4.4,0,8-3.6,8-8C348,119.6,344.4,116,340,116z"/>
			<path d="M340,156h-28c-4.4,0-8,3.6-8,8c0,4.4,3.6,8,8,8h28c4.4,0,8-3.6,8-8C348,159.6,344.4,156,340,156z"/>
			<path d="M340,196h-28c-4.4,0-8,3.6-8,8c0,4.4,3.6,8,8,8h28c4.4,0,8-3.6,8-8C348,199.6,344.4,196,340,196z"/>
		</g>
	</g>
</g>
<g>
</g>
<g>
</g>
<g>
</g>
<g>
</g>
<g>
</g>
<g>
</g>
<g>
</g>
<g>
</g>
<g>
</g>
<g>
</g>
<g>
</g>
<g>
</g>
<g>
</g>
<g>
</g>
<g>
</g>
</svg>
