<?xml version="1.0" encoding="iso-8859-1"?>
<!-- Generator: Adobe Illustrator 19.0.0, SVG Export Plug-In . SVG Version: 6.00 Build 0)  -->
<svg version="1.1" id="Layer_1" xmlns="http://www.w3.org/2000/svg" xmlns:xlink="http://www.w3.org/1999/xlink" x="0px" y="0px"
	 viewBox="0 0 372.084 372.084" style="enable-background:new 0 0 372.084 372.084;" xml:space="preserve">
<g>
	<g>
		<g>
			<path d="M162.042,196.084c-4.4,0-8,3.6-8,8v12c0,4.4,3.6,8,8,8c4.4,0,8-3.6,8-8v-12
				C170.042,199.684,166.442,196.084,162.042,196.084z"/>
			<path d="M305.242,1.684c-5.6-2.8-12-2-16.8,1.6l-126,95.2c-4.4-4-10-6.4-16.4-6.4h-48c-22,0-40,18-40,40v112c0,22,18,40,40,40h48
				c7.6,0,14.4-3.6,18.8-8.8l123.6,93.6c2.8,2.4,6.4,3.2,9.6,3.2c2.4,0,4.8-0.4,7.2-1.6c5.6-2.8,8.8-8.4,8.8-14.4v-340
				C314.042,10.084,310.442,4.484,305.242,1.684z M298.042,356.084l-128-97.2c-0.4-4-4-6.8-8-6.8c-4.4,0-8,3.6-8,8c0,4.4-3.6,8-8,8
				h-48c-13.2,0-24-10.8-24-24v-112c0-13.2,10.8-24,24-24h48c4.4,0,8,3.6,8,8v52c0,4.4,3.6,8,8,8c4.4,0,8-3.6,8-8v-52
				c0-1.2,0-2-0.4-2.8l128.4-97.2V356.084z"/>
		</g>
	</g>
</g>
<g>
</g>
<g>
</g>
<g>
</g>
<g>
</g>
<g>
</g>
<g>
</g>
<g>
</g>
<g>
</g>
<g>
</g>
<g>
</g>
<g>
</g>
<g>
</g>
<g>
</g>
<g>
</g>
<g>
</g>
</svg>
