<?xml version="1.0" encoding="iso-8859-1"?>
<!-- Generator: Adobe Illustrator 19.0.0, SVG Export Plug-In . SVG Version: 6.00 Build 0)  -->
<svg version="1.1" id="Layer_1" xmlns="http://www.w3.org/2000/svg" xmlns:xlink="http://www.w3.org/1999/xlink" x="0px" y="0px"
	 viewBox="0 0 472 472" style="enable-background:new 0 0 472 472;" xml:space="preserve">
<g>
	<g>
		<g>
			<path d="M464.2,228h-88c-1.6,0-2.8,0.4-4,1.2c-1.6-31.6-14-60.8-34-83.2L385,99.2c3.2-3.2,3.2-8,0-11.2s-8-3.2-11.2,0L327,134.8
				c-22.4-20-51.6-33.2-84-34.8c0.8-1.2,1.2-2.8,1.2-4V8c0-4.4-3.6-8-8-8c-4.4,0-8,3.6-8,8v88c0,1.6,0.4,2.8,1.2,4
				c-31.6,1.6-60,14-82.4,33.2l-48.4-48c-3.2-3.2-8-3.2-11.2,0c-3.2,3.2-3.2,8,0,11.2l48,48c-20.4,22.4-33.6,52-35.2,84.4
				c-1.2-0.8-2.8-1.2-4-1.2h-88c-4.4,0-8,3.6-8,8c0,4.4,3.6,8,8,8h88c1.6,0,2.8-0.4,4-1.2c1.6,32,14.4,61.6,34.8,84l-44.8,45.2
				c-3.2,3.2-3.2,8,0,11.2c1.6,1.6,3.6,2.4,5.6,2.4s4-0.8,5.6-2.4l44.8-44.8c22.4,19.6,51.2,32.4,83.2,34c-0.8,1.2-1.2,2.8-1.2,4v88
				c0,4.4,3.6,8,8,8c4.4,0,8-3.6,8-8v-88c0-1.6-0.4-2.8-1.2-4c32.4-1.6,62-14.8,84.4-35.2l46,46c1.6,1.6,3.6,2.4,5.6,2.4
				s4-0.8,5.6-2.4c3.2-3.2,3.2-8,0-11.2l-46-46.4c19.6-22.4,31.6-50.8,33.2-82.4c1.2,0.8,2.8,1.2,4,1.2h88c4.4,0,8-3.6,8-8
				C471.8,231.6,468.6,228,464.2,228z M236.2,356c-32,0-60.8-12.4-82.4-32.8c-0.4-0.8-0.8-1.6-1.6-2.4s-1.6-1.2-2.4-1.6
				C129,297.6,116.2,268,116.2,236c0-66,54-120,120-120s120,54,120,120S302.2,356,236.2,356z"/>
			<path d="M157.4,189.6c1.6,1.2,3.2,1.6,4.8,1.6c2.4,0,4.8-1.2,6.4-3.2c0.4-0.4,0.8-0.8,0.8-1.2c0.8-1.2,2-2.4,3.2-4.4
				c2-4,0.4-8.8-3.6-10.8s-8.8-0.4-10.8,3.6c0,0.4-0.8,0.8-1.2,1.6c-0.4,0.4-0.8,1.2-1.2,1.6C153,182,153.8,186.8,157.4,189.6z"/>
			<path d="M180.6,297.6c-17.6-16-27.6-38-27.6-61.6c0-6.8,0.8-14,2.8-21.6c1.2-4.4-1.6-8.8-5.6-9.6c-4.4-1.2-8.8,1.6-9.6,5.6
				c-2.4,8.8-3.6,17.2-3.6,25.6c0,28.4,11.6,54.4,33.2,73.6c1.6,1.2,3.6,2,5.2,2c2,0,4.4-0.8,6-2.8
				C184.2,305.6,184.2,300.4,180.6,297.6z"/>
		</g>
	</g>
</g>
<g>
</g>
<g>
</g>
<g>
</g>
<g>
</g>
<g>
</g>
<g>
</g>
<g>
</g>
<g>
</g>
<g>
</g>
<g>
</g>
<g>
</g>
<g>
</g>
<g>
</g>
<g>
</g>
<g>
</g>
</svg>
