<?xml version="1.0" encoding="iso-8859-1"?>
<!-- Generator: Adobe Illustrator 19.0.0, SVG Export Plug-In . SVG Version: 6.00 Build 0)  -->
<svg version="1.1" id="Layer_1" xmlns="http://www.w3.org/2000/svg" xmlns:xlink="http://www.w3.org/1999/xlink" x="0px" y="0px"
	 viewBox="0 0 384 384" style="enable-background:new 0 0 384 384;" xml:space="preserve">
<g>
	<g>
		<g>
			<path d="M344,92H232c-9.6-12.8-22.8-22-37.2-27.2L242,17.6c3.2-3.2,3.2-8,0-11.2c-3.2-3.2-8-3.2-11.2,0l-54.4,54
				c-2.8-0.4-5.6-0.4-8.4-0.4c-3.2,0-6.4,0-9.2,0.4l-54.4-54c-3.2-3.2-8-3.2-11.2,0c-3.2,3.2-3.2,8,0,11.2l47.2,47.2
				C126,70,113.2,79.2,104,92H40c-22,0-40,18-40,40v208c0,22,18,40,40,40h304c22,0,40-18,40-40V132C384,110,366,92,344,92z M168,76
				c15.6,0,30.4,6,42.4,16h-84.8C137.2,82,152,76,168,76z M368,340c0,13.2-10.8,24-24,24H40c-13.2,0-24-10.8-24-24V132
				c0-13.2,10.8-24,24-24h188h116c13.2,0,24,10.8,24,24V340z"/>
			<path d="M260,140H60c-6.8,0-12,5.2-12,12v168c0,6.8,5.2,12,12,12h200c6.8,0,12-5.2,12-12V152C272,145.2,266.8,140,260,140z
				 M256,316H64V156h192V316z"/>
			<path d="M336,156h-32c-4.4,0-8,3.6-8,8c0,4.4,3.6,8,8,8h32c4.4,0,8-3.6,8-8C344,159.6,340.4,156,336,156z"/>
			<path d="M336,188h-32c-4.4,0-8,3.6-8,8c0,4.4,3.6,8,8,8h32c4.4,0,8-3.6,8-8C344,191.6,340.4,188,336,188z"/>
			<path d="M336,220h-32c-4.4,0-8,3.6-8,8c0,4.4,3.6,8,8,8h32c4.4,0,8-3.6,8-8C344,223.6,340.4,220,336,220z"/>
		</g>
	</g>
</g>
<g>
</g>
<g>
</g>
<g>
</g>
<g>
</g>
<g>
</g>
<g>
</g>
<g>
</g>
<g>
</g>
<g>
</g>
<g>
</g>
<g>
</g>
<g>
</g>
<g>
</g>
<g>
</g>
<g>
</g>
</svg>
