<?xml version="1.0" encoding="iso-8859-1"?>
<!-- Generator: Adobe Illustrator 19.0.0, SVG Export Plug-In . SVG Version: 6.00 Build 0)  -->
<svg version="1.1" id="Layer_1" xmlns="http://www.w3.org/2000/svg" xmlns:xlink="http://www.w3.org/1999/xlink" x="0px" y="0px"
	 viewBox="0 0 435.2 435.2" style="enable-background:new 0 0 435.2 435.2;" xml:space="preserve">
<g>
	<g>
		<g>
			<path d="M337.6,0h-240c-22,0-40,18-40,40v288c0,22.8,23.2,40,44,40H138l-8,16H93.6c-4.4,0-8,3.6-8,8c0,4.4,3.6,8,8,8H122
				l-12,23.6c-2,4-0.4,8.8,3.6,10.8c1.2,0.4,2.4,0.8,3.6,0.8c2.8,0,5.6-1.6,7.2-4.4L140,400h156.8l15.6,30.8
				c1.6,2.8,4.4,4.4,7.2,4.4c1.2,0,2.4-0.4,3.6-0.8c4-2,5.6-6.8,3.6-10.8l-12-23.6h26.8c4.4,0,8-3.6,8-8c0-4.4-3.6-8-8-8h-34.8
				l-8-16h38.8c22,0,40-18,40-40V40C377.6,18,359.6,0,337.6,0z M148,384l8-16h124.4l8.4,16H148z M361.6,328c0,13.2-10.8,24-24,24
				h-236c-12.8,0-28-10.8-28-24v-72h288V328z M361.6,240h-288V80h212c4.4,0,8-3.6,8-8c0-4.4-3.6-8-8-8h-212V40c0-13.2,10.8-24,24-24
				h240c13.2,0,24,10.8,24,24V240z"/>
			<path d="M333.6,64h-12c-4.4,0-8,3.6-8,8c0,4.4,3.6,8,8,8h12c4.4,0,8-3.6,8-8C341.6,67.6,338,64,333.6,64z"/>
			<path d="M137.6,316c13.2,0,24-10.8,24-24s-10.8-24-24-24s-24,10.8-24,24S124.4,316,137.6,316z M137.6,284c4.4,0,8,3.6,8,8
				c0,4.4-3.6,8-8,8c-4.4,0-8-3.6-8-8C129.6,287.6,133.2,284,137.6,284z"/>
			<path d="M297.6,316c13.2,0,24-10.8,24-24s-10.8-24-24-24s-24,10.8-24,24S284.4,316,297.6,316z M297.6,284c4.4,0,8,3.6,8,8
				c0,4.4-3.6,8-8,8c-4.4,0-8-3.6-8-8C289.6,287.6,293.2,284,297.6,284z"/>
		</g>
	</g>
</g>
<g>
</g>
<g>
</g>
<g>
</g>
<g>
</g>
<g>
</g>
<g>
</g>
<g>
</g>
<g>
</g>
<g>
</g>
<g>
</g>
<g>
</g>
<g>
</g>
<g>
</g>
<g>
</g>
<g>
</g>
</svg>
