<?xml version="1.0" encoding="iso-8859-1"?>
<!-- Generator: Adobe Illustrator 19.0.0, SVG Export Plug-In . SVG Version: 6.00 Build 0)  -->
<svg version="1.1" id="Layer_1" xmlns="http://www.w3.org/2000/svg" xmlns:xlink="http://www.w3.org/1999/xlink" x="0px" y="0px"
	 viewBox="0 0 392 392" style="enable-background:new 0 0 392 392;" xml:space="preserve">
<g>
	<g>
		<g>
			<path d="M196,132c-4.4,0-8,3.6-8,8v12c0,4.4,3.6,8,8,8c4.4,0,8-3.6,8-8v-12C204,135.6,200.4,132,196,132z"/>
			<path d="M204,24.4V8c0-4.4-3.6-8-8-8c-4.4,0-8,3.6-8,8v16.4C90.4,28.4,12,109.2,12,208c0,4.4,3.6,8,8,8h168v120c0,22-18,40-40,40
				s-40-18-40-40c0-4.4-3.6-8-8-8c-4.4,0-8,3.6-8,8c0,30.8,25.2,56,56,56s56-25.2,56-56V216h168c4.4,0,8-3.6,8-8
				C380,109.2,301.6,28.4,204,24.4z M204,200v-12c0-4.4-3.6-8-8-8c-4.4,0-8,3.6-8,8v12H28c4-88.8,78-160,168-160s163.6,71.2,168,160
				H204z"/>
		</g>
	</g>
</g>
<g>
</g>
<g>
</g>
<g>
</g>
<g>
</g>
<g>
</g>
<g>
</g>
<g>
</g>
<g>
</g>
<g>
</g>
<g>
</g>
<g>
</g>
<g>
</g>
<g>
</g>
<g>
</g>
<g>
</g>
</svg>
