<?xml version="1.0" encoding="iso-8859-1"?>
<!-- Generator: Adobe Illustrator 19.0.0, SVG Export Plug-In . SVG Version: 6.00 Build 0)  -->
<svg version="1.1" id="Layer_1" xmlns="http://www.w3.org/2000/svg" xmlns:xlink="http://www.w3.org/1999/xlink" x="0px" y="0px"
	 viewBox="0 0 400 400" style="enable-background:new 0 0 400 400;" xml:space="preserve">
<g>
	<g>
		<g>
			<path d="M199.826,240c53.2,0,100-65.6,100-140c0-55.2-44.8-100-100-100s-100,44.8-100,100C99.826,174.4,146.626,240,199.826,240z
				 M199.826,16c39.2,0,72,27.2,81.2,63.6c-17.6,4-36.4-4-46-19.6c-0.4-2-2-4-4-5.2c-4-2-8.8-0.4-10.8,3.6
				c-12.8,25.6-54,35.6-102.8,25.6C124.626,45.2,159.026,16,199.826,16z M153.026,104c32.8,0,59.2-9.6,74.4-27.6
				c11.2,12.8,28,20,44.8,20c3.6,0,7.6-0.4,11.2-1.2c0,1.6,0.4,3.2,0.4,4.8c0,66-39.2,124-84,124c-44.8,0-84-58-84-124
				C129.026,102.4,141.426,104,153.026,104z"/>
			<path d="M393.426,368.8l-18.4-60.8c-10.4-36.8-39.6-65.2-76-74.8l-5.2-1.6c-0.4-0.4-1.2-0.4-2-0.8c-6.8-1.6-14,0.4-19.2,6
				l-0.4,0.4c-21.2,25.2-46.4,38.4-72.4,38.4c-32.8,0-57.6-20.4-72.4-37.6c-4.8-5.2-12-7.6-18.8-6.4h-0.4c-0.8,0-1.6,0-2.4,0.4
				l-4.8,1.6c-36.8,9.6-66,38-76.4,74.8l-18.4,61.2c-2,7.6-0.4,15.2,4,21.2c4.4,6,11.2,9.2,18.8,9.2h341.6c7.6,0,14.8-3.6,19.2-9.6
				C394.626,384,395.826,376.4,393.426,368.8z M377.026,380.4c-1.6,2-4,3.2-6.4,3.2h-341.6c-2.4,0-4.8-1.2-6-3.2
				c-1.6-2-2-4.8-1.6-7.2l18.4-60.8c8.8-31.2,33.6-55.6,65.6-63.6l4-1.2c0.8,0,1.6,0,2-0.4c1.6-0.4,3.2,0.4,4,1.2
				c24.4,28,54.4,43.2,84.4,43.2c30.4,0,60-15.2,84.4-43.2c0.8-0.8,2-1.6,4-1.6c0.4,0,0.8,0.4,1.6,0.4l5.2,1.6
				c31.2,8,56.4,32.4,65.2,63.6l18.4,60.8C379.026,376.8,377.826,379.2,377.026,380.4z"/>
		</g>
	</g>
</g>
<g>
</g>
<g>
</g>
<g>
</g>
<g>
</g>
<g>
</g>
<g>
</g>
<g>
</g>
<g>
</g>
<g>
</g>
<g>
</g>
<g>
</g>
<g>
</g>
<g>
</g>
<g>
</g>
<g>
</g>
</svg>
