<?xml version="1.0" encoding="iso-8859-1"?>
<!-- Generator: Adobe Illustrator 19.0.0, SVG Export Plug-In . SVG Version: 6.00 Build 0)  -->
<svg version="1.1" id="Layer_1" xmlns="http://www.w3.org/2000/svg" xmlns:xlink="http://www.w3.org/1999/xlink" x="0px" y="0px"
	 viewBox="0 0 418.2 418.2" style="enable-background:new 0 0 418.2 418.2;" xml:space="preserve">
<g>
	<g>
		<g>
			<path d="M402.518,386.2l-18.4-60.8c-10.4-36.8-39.6-65.2-76-74.8l-5.2-1.6c-0.4-0.4-1.2-0.4-2-0.8c-6.8-1.6-14,0.4-19.2,5.6
				l-0.4,0.4c-21.2,25.6-46.4,38.8-72.4,38.8c-32.8,0-57.6-20.4-72.4-37.6c-4.8-5.6-12.4-8-19.6-6c-0.8,0-1.6,0.4-2,0.8l-4.8,1.6
				c-36.8,9.6-66,38-76.4,74.8l-18.4,61.2c-2,7.6-0.4,15.2,4,21.2c4.4,6,11.2,9.2,18.8,9.2h342c8-0.4,14.8-4,19.2-10.4
				C403.718,401,404.918,393.4,402.518,386.2z M386.118,397.8c-1.6,2-4,3.6-6.4,3.6h-341.6c-2.4,0-4.8-1.2-6-3.2
				c-1.6-2-2-4.8-1.6-7.2l18.4-60.8c8.8-31.2,33.6-55.6,65.6-63.6l4.8-1.6c0.8,0,1.2-0.4,1.6-0.4c1.6-0.4,2.8,0.4,3.6,1.2
				c24.4,28,54.4,43.2,84.4,43.2c30.4,0,60-15.2,84.4-43.2c0.8-0.8,2-1.6,4-1.6c0.4,0,0.8,0.4,1.6,0.4l5.2,1.6
				c31.2,8,56.4,32.4,65.2,63.6l18.4,60.8C388.118,393.4,387.718,395.8,386.118,397.8z"/>
			<path d="M52.518,215l11.2,2.8c31.2,7.6,62.8,12.8,93.6,15.2c14.8,14.8,32.8,23.2,51.6,23.2s36.8-8.8,51.6-23.6
				c31.6-2.8,62.4-8,91.2-14.8l11.2-2.8h0.4c4.8-1.6,8.8-5.2,10.4-9.6c1.6-4.4,1.2-9.6-1.2-14l-30.4-51.2
				c-10.8-18.8-19.2-37.6-24.8-56l-2-7.2c-11.2-34.8-38.8-61.2-73.2-71.2l-5.2-1.6c-19.2-5.6-40-5.6-59.6,0l-4.4,1.6
				c-35.2,10-62.8,36.8-73.6,71.6l-2,6.8c-6.8,20.8-14.8,39.6-24.8,56l-30,51.2c-2.8,4.4-2.8,10-0.8,14.8
				C43.718,210.6,47.718,214.2,52.518,215z M208.918,240.6c-38.4,0-72-46.8-75.6-102.4c59.6,11.6,88.8-12.8,102-31.2
				c12.4,14.4,29.6,20,49.6,16.4c0,1.6,0,3.2,0,4.8C284.918,188.2,249.318,240.6,208.918,240.6z M86.518,148.2
				c10.4-17.6,19.2-37.6,26.4-59.6l2-6.8c9.2-29.6,32.8-52,62.8-60.8l4.4-1.6c16.4-4.8,34-4.8,50,0l5.2,1.6
				c29.6,8.4,52.8,31.2,62.4,60.4l2,6.8c6,19.2,15.2,39.2,26.4,59.2l30.4,51.2c0,0,0,0-0.4,0l-10.8,2.8c-23.2,5.6-47.6,10-72.8,12.8
				c15.6-23.2,25.6-54,25.6-87.2c0-5.6-0.4-10.8-1.2-16c-0.4-2.4-1.6-4.4-3.6-5.6s-4.4-1.6-6.4-0.8c-21.6,6.4-36.4,1.2-47.2-16.4
				c-1.6-2.8-4.4-4-7.6-3.6c-3.2-0.4-6.4,1.2-7.6,4.4c-7.6,14.8-32.4,47.6-100,30.8c-2.4-0.4-4.8,0-6.8,1.6c-2,1.6-3.2,4-3.2,6.4
				c0,33.2,10,64.4,26,87.6c-24.4-2.4-50-6.8-74.8-12.8l-11.2-2.8L86.518,148.2z"/>
		</g>
	</g>
</g>
<g>
</g>
<g>
</g>
<g>
</g>
<g>
</g>
<g>
</g>
<g>
</g>
<g>
</g>
<g>
</g>
<g>
</g>
<g>
</g>
<g>
</g>
<g>
</g>
<g>
</g>
<g>
</g>
<g>
</g>
</svg>
