<?xml version="1.0" encoding="iso-8859-1"?>
<!-- Generator: Adobe Illustrator 19.0.0, SVG Export Plug-In . SVG Version: 6.00 Build 0)  -->
<svg version="1.1" id="Layer_1" xmlns="http://www.w3.org/2000/svg" xmlns:xlink="http://www.w3.org/1999/xlink" x="0px" y="0px"
	 viewBox="0 0 432 432" style="enable-background:new 0 0 432 432;" xml:space="preserve">
<g>
	<g>
		<g>
			<path d="M284,144h-12c-4.4,0-8,3.6-8,8c0,4.4,3.6,8,8,8h12c4.4,0,8-3.6,8-8C292,147.6,288.4,144,284,144z"/>
			<path d="M423.6,133.6c-5.2-2.8-11.2-2.8-15.6,0l-72,40.8V136c0-22-18-40-40-40h-20c-2.4,0-4-1.6-4-4V68c0-11.2-8.8-20-20-20
				h-67.2c-9.2,0-17.6,5.2-21.6,13.2L146.8,94c-0.8,1.6-2.4,2-3.6,2H40c-22,0-40,18-40,40v208c0,22,18,40,40,40h256
				c22,0,40-18,40-40v-42.4l72,40.4c2.4,1.6,5.2,2.4,8,2.4s5.2-0.8,7.6-2c5.2-2.8,8.4-8,8.4-14V147.6
				C432,142,428.8,136.4,423.6,133.6z M64,368H40c-13.2,0-24-10.8-24-24V136c0-13.2,10.8-24,24-24h24V368z M320,344
				c0,13.2-10.8,24-24,24H80V112h63.2c8,0,14.8-4.4,18-11.2l16.4-32.4c1.2-2.8,4-4.4,7.2-4.4H252c2.4,0,4,1.6,4,4v24
				c0,11.2,8.8,20,20,20h20c13.2,0,24,10.8,24,24V344z M416,328.4l-80-45.2v-90.4l80-45.2V328.4z"/>
		</g>
	</g>
</g>
<g>
</g>
<g>
</g>
<g>
</g>
<g>
</g>
<g>
</g>
<g>
</g>
<g>
</g>
<g>
</g>
<g>
</g>
<g>
</g>
<g>
</g>
<g>
</g>
<g>
</g>
<g>
</g>
<g>
</g>
</svg>
