<?xml version="1.0" encoding="iso-8859-1"?>
<!-- Generator: Adobe Illustrator 19.0.0, SVG Export Plug-In . SVG Version: 6.00 Build 0)  -->
<svg version="1.1" id="Layer_1" xmlns="http://www.w3.org/2000/svg" xmlns:xlink="http://www.w3.org/1999/xlink" x="0px" y="0px"
	 viewBox="0 0 363.607 363.607" style="enable-background:new 0 0 363.607 363.607;" xml:space="preserve">
<g>
	<g>
		<g>
			<path d="M65.7,285.629l-15.2,15.2c-3.2,3.2-3.2,8,0,11.2c1.6,1.6,3.6,2.4,5.6,2.4s4-0.8,5.6-2.4l15.2-15.2c3.2-3.2,3.2-8,0-11.2
				C73.7,282.429,68.9,282.429,65.7,285.629z"/>
			<path d="M350.1,94.429l-7.6-10c-1.2-2-3.6-2.8-6-3.2c-2.4,0-4.4,0.8-6,2.4l-45.2,44.8c-6,6-16.4,6-22.8,0l-28.4-28.4
				c-6-6-6-16.4,0-22.8l45.2-45.2c1.6-1.6,2.4-4,2.4-6.4c0-2.4-1.2-4.4-3.2-6l-7.6-5.2c-24-17.6-56-17.6-80-0.4l-18.8,13.6
				c-29.6,21.2-43.2,58.8-34,93.6l4.8,18.8l-126.4,126.8c-22,22-22,57.6,0,79.2c10.8,10.8,25.2,16.4,39.6,16.4
				c14.4,0,28.8-5.6,39.6-16.4l126.8-126.8l20.4,6c36,10.4,74.4-3.2,96-33.6l12.4-17.2C368.1,150.829,367.7,118.029,350.1,94.429z
				 M338.1,165.229l-12.4,17.2c-17.6,24.8-49.2,35.6-78.4,27.2l-24.8-7.2c-2.8-0.8-6,0-8,2l-130,130c-15.6,15.6-41.2,15.6-56.8,0
				c-15.6-15.6-15.6-41.2,0-56.8l130-130c2-2,2.8-4.8,2-7.6l-6-23.2c-7.6-28.4,3.6-59.6,27.6-76.8l18.8-13.6
				c9.2-6.4,19.6-9.6,30.4-9.6s21.6,3.2,30.8,10l-38.8,38.8c-12,12.8-12,32.8,0,45.2l28.4,28.4c12.8,12,32.8,12,45.2,0l38.8-38.4
				l2,2.8C350.9,122.029,350.9,147.229,338.1,165.229z"/>
		</g>
	</g>
</g>
<g>
</g>
<g>
</g>
<g>
</g>
<g>
</g>
<g>
</g>
<g>
</g>
<g>
</g>
<g>
</g>
<g>
</g>
<g>
</g>
<g>
</g>
<g>
</g>
<g>
</g>
<g>
</g>
<g>
</g>
</svg>
