<?xml version="1.0" encoding="iso-8859-1"?>
<!-- Generator: Adobe Illustrator 18.1.1, SVG Export Plug-In . SVG Version: 6.00 Build 0)  -->
<svg version="1.1" id="Capa_1" xmlns="http://www.w3.org/2000/svg" xmlns:xlink="http://www.w3.org/1999/xlink" x="0px" y="0px"
	 viewBox="0 0 450.001 450.001" style="enable-background:new 0 0 450.001 450.001;" xml:space="preserve">
<g>
	<g id="Layer_1_46_">
		<g>
			<path d="M390.245,308.891c-1.525-7.807-3.016-15.624-4.446-23.449c-0.438-2.396-1.832-7.737-1.832-7.737s0.446-3.122,0.72-5.201
				c0.327-2.5,0.441-5.025,0.341-7.544c-0.369-9.246-1.207-18.374-0.975-27.648c0.199-7.994,0.838-15.975,1.889-23.902
				c1.765-13.311,5.345-26.105,7.905-39.243c2.313-11.853,3.163-24.826-1.951-36.103c-4.748-10.469-14.363-18.086-24.556-22.933
				c-13.301-6.326-29.237-6.643-42.696-0.581c-15.163,6.83-30.256,13.815-45.404,20.677c-12.968,5.875-26.137,11.384-39.362,16.647
				l-35.997,13.72c-4.066,1.624-16.361,8.255-13.952,22.641c-30.991,11.345-94.51,34.599-94.51,34.599
				c-1.788,0.656-3.578,1.312-5.368,1.967c-2.291,0.839-1.72-0.021-3.438-2.3c-8.808-11.682-25.09-15.708-38.309-9.403
				C35.93,219,28.754,232.699,30.927,246.232c2.148,13.396,13.174,24.134,26.621,25.928c13.573,1.812,27.073-5.706,32.653-18.22
				c1.318-2.958,2.166-6.121,2.51-9.341c0.099-0.94-0.151-8.569-0.205-8.55c0.93-0.34,1.856-0.68,2.784-1.02l98.72-36.206
				c8.758,13.554,25.441,8.489,32.855,6.198c8.133-2.513,42.229-12.955,59.414-19.074c-2.014,13.468-3.132,27.063-3.712,40.665
				c-0.368,8.601-0.515,17.21-0.484,25.817c0.022,7.433,0.062,7.983,0.199,14.686c0,0-1.844,4.024-2.766,6.082
				c-7.141,16.217-14.201,32.461-21.032,48.811c-4.824,11.542-9.367,22.813-11.864,35.161c-3.402,16.816-3.828,33.875-4.813,50.939
				c-0.274,4.746-1.227,9.655-0.708,14.406c0.738,6.757,4.198,13.082,9.478,17.36c11.034,8.943,27.733,7.103,36.601-3.961
				c4.219-5.264,5.514-11.685,6.52-18.185c1.332-8.622,2.066-17.326,3.271-25.966c1.704-12.253,4.387-23.813,9.331-35.142
				c6.775-13.21,21.556-43.821,21.556-43.821s12.015,40.439,14.722,49.627c5.073,17.206,10.393,34.386,16.624,51.212
				c4.368,11.8,8.665,27.369,20.746,33.558c10.557,5.409,23.843,2.812,31.56-6.21c7.148-8.358,7.2-18.509,3.772-28.401
				C403.521,379.103,397.034,343.654,390.245,308.891z"/>
			<path d="M364.546,0.114c-22.507,1.512-41.839,18.328-46.618,40.354c-5.164,23.787,7.854,48.687,30.261,58.118
				c14.59,6.188,31.824,5.046,45.553-2.822c13.281-7.611,22.592-21.289,25.062-36.369C424.068,27.235,396.896-2.059,364.546,0.114z"
				/>
		</g>
	</g>
</g>
<g>
</g>
<g>
</g>
<g>
</g>
<g>
</g>
<g>
</g>
<g>
</g>
<g>
</g>
<g>
</g>
<g>
</g>
<g>
</g>
<g>
</g>
<g>
</g>
<g>
</g>
<g>
</g>
<g>
</g>
</svg>
