<?xml version="1.0" encoding="iso-8859-1"?>
<!-- Generator: Adobe Illustrator 18.1.1, SVG Export Plug-In . SVG Version: 6.00 Build 0)  -->
<svg version="1.1" id="Capa_1" xmlns="http://www.w3.org/2000/svg" xmlns:xlink="http://www.w3.org/1999/xlink" x="0px" y="0px"
	 viewBox="0 0 439.535 439.535" style="enable-background:new 0 0 439.535 439.535;" xml:space="preserve">
<g>
	<g id="Layer_1_9_">
		<g>
			<path d="M379.309,139.633l-55.074-7.117c0,0-40.382-44.448-40.663-44.723c-7.879-7.667-35.556-34.441-46.547-33.981
				l-59.961,2.509l-1.783,0.074c-4.484,0.213-8.833,2.392-11.669,6.313l-47.996,66.4c-3.724,5.147-3.077,12.384,1.729,16.771
				c5.165,4.715,13.173,4.35,17.889-0.815l49.109-53.796l20.971,0.933l-46.454,82.072l-39.349,40.904l-52.799-7.738
				c-9.065-1.305-17.804,4.568-19.827,13.655c-2.119,9.533,3.888,18.98,13.424,21.102l62.868,13.984
				c5.789,1.245,12.188-0.256,16.829-4.622l50.34-47.363c0.479,0.118,71.97,13.279,71.97,13.279l57.229,50.499
				c6.002,5.309,15.159,5.438,21.323,0c6.673-5.888,7.309-16.07,1.421-22.743l-55.314-62.686c-2.186-2.482-5.106-4.354-8.549-5.241
				l-1.925-0.496l-16.323-4.207l19.122-33.406l23.257,22.634l0.842,0.819c2.691,2.613,6.291,4.313,10.326,4.561l62.595,3.841
				c8.206,0.484,15.554-5.459,16.623-13.734C394.059,148.667,387.956,140.751,379.309,139.633z"/>
			<path d="M293.447,85.528c22.938,8.003,48.019-4.103,56.021-27.042c8.001-22.935-4.104-48.018-27.037-56.019
				c-22.941-8.003-48.021,4.104-56.022,27.04C258.407,52.448,270.508,77.525,293.447,85.528z"/>
			<path d="M316.185,381.978H296.64V263.041c0-1.948-0.874-3.793-2.381-5.027c-1.507-1.236-3.493-1.729-5.397-1.346l-166.795,33.463
				c-3.036,0.609-5.221,3.276-5.221,6.373v136.531c0,3.59,2.91,6.5,6.5,6.5h39.901c3.589,0,6.5-2.91,6.5-6.5v-10.559
				c0-3.59-2.911-6.5-6.5-6.5h-19.554v-62.96l126.097-25.223v71.226c0,3.589,2.908,6.499,6.497,6.5l39.895,0.017h0.003
				c1.724,0,3.376-0.685,4.596-1.902c1.219-1.22,1.904-2.873,1.904-4.598v-10.558C322.685,384.888,319.775,381.978,316.185,381.978z
				"/>
		</g>
	</g>
</g>
<g>
</g>
<g>
</g>
<g>
</g>
<g>
</g>
<g>
</g>
<g>
</g>
<g>
</g>
<g>
</g>
<g>
</g>
<g>
</g>
<g>
</g>
<g>
</g>
<g>
</g>
<g>
</g>
<g>
</g>
</svg>
