<?xml version="1.0" encoding="iso-8859-1"?>
<!-- Generator: Adobe Illustrator 18.1.1, SVG Export Plug-In . SVG Version: 6.00 Build 0)  -->
<svg version="1.1" id="Capa_1" xmlns="http://www.w3.org/2000/svg" xmlns:xlink="http://www.w3.org/1999/xlink" x="0px" y="0px"
	 viewBox="0 0 440.151 440.151" style="enable-background:new 0 0 440.151 440.151;" xml:space="preserve">
<g>
	<g id="Layer_1_24_">
		<g>
			<path d="M47.864,86.749l98.012,37.197L54.36,202.201c-6.005,5.124-7.41,14.035-2.973,20.813
				c4.814,7.354,14.68,9.413,22.033,4.599l75.031-49.123c0,0-13.668,41.7-14.765,44.514c-5.019,12.871,1.347,27.374,14.219,32.393
				l91.474,35.666l55.544,69.561c6.641,8.295,18.734,9.93,27.327,3.537c8.785-6.535,10.609-18.955,4.074-27.74l-50.64-68.072
				l15.581,1.844l69.977,41.217c9.133,5.363,20.985,2.613,26.753-6.381c5.911-9.219,3.228-21.48-5.989-27.391l-72.493-46.479
				c-2.043-1.297-4.447-2.285-6.974-2.744l-1.083-0.197l-69.863-12.684c0,0,32.531-96.01-5.286-113.515L60.92,49.315
				c-9.956-3.15-20.81,1.974-24.561,11.858C32.473,71.413,37.624,82.863,47.864,86.749z"/>
			<path d="M225.336,94.43c5.391,3.627,11.495,6.139,17.868,7.384l0.063,0.013c15.79,3.063,32.396-2.02,43.783-13.378
				c11.549-11.527,16.62-28.571,13.254-44.541c-3.277-15.555-14.274-28.871-28.958-34.979c-15.025-6.251-32.545-4.517-46.039,4.578
				c-13.496,9.094-21.675,24.682-21.523,40.957C203.938,70.365,212.152,85.555,225.336,94.43z"/>
			<path d="M440.139,410.75c0-3.037-2.462-5.5-5.5-5.5c-4.75,0-6.878-0.747-9.584-1.696c-3.328-1.17-7.099-2.495-14.273-2.495
				c-7.176,0-10.948,1.325-14.285,2.498c-2.695,0.946-4.824,1.693-9.575,1.693c-4.752,0-6.88-0.747-9.583-1.696
				c-3.328-1.17-7.099-2.495-14.273-2.495s-10.944,1.326-14.279,2.498c-2.695,0.946-4.823,1.693-9.575,1.693
				s-6.88-0.747-9.583-1.696c-3.328-1.17-7.099-2.495-14.272-2.495c-7.172,0-10.943,1.325-14.28,2.498
				c-2.694,0.946-4.822,1.693-9.574,1.693c-4.75,0-6.879-0.747-9.581-1.696c-3.327-1.169-7.097-2.495-14.271-2.495
				s-10.945,1.326-14.279,2.498c-2.694,0.946-4.823,1.693-9.572,1.693s-6.876-0.747-9.579-1.696
				c-3.327-1.169-7.097-2.495-14.27-2.495c-7.174,0-10.944,1.326-14.279,2.498c-2.695,0.946-4.823,1.693-9.573,1.693
				c-4.749,0-6.876-0.747-9.58-1.696c-3.326-1.169-7.097-2.495-14.27-2.495c-7.174,0-10.944,1.326-14.28,2.498
				c-2.694,0.946-4.821,1.693-9.572,1.693c-4.749,0-6.876-0.747-9.58-1.696c-3.326-1.169-7.097-2.495-14.271-2.495
				c-7.176,0-10.946,1.326-14.281,2.499c-2.694,0.945-4.822,1.692-9.572,1.692c-4.749,0-6.876-0.747-9.579-1.696
				c-3.326-1.169-7.095-2.495-14.27-2.495c-7.173,0-10.945,1.325-14.282,2.498c-2.694,0.946-4.821,1.693-9.572,1.693
				c-4.749,0-6.876-0.747-9.579-1.696c-1.736-0.61-3.745-1.316-6.411-1.821v-0.816c0-3.037-2.462-5.5-5.5-5.5h-26
				c-3.038,0-5.5,2.463-5.5,5.5v28.514c0,3.038,2.462,5.5,5.5,5.5h429.151c3.038,0,5.5-2.462,5.5-5.5L440.139,410.75z"/>
		</g>
	</g>
</g>
<g>
</g>
<g>
</g>
<g>
</g>
<g>
</g>
<g>
</g>
<g>
</g>
<g>
</g>
<g>
</g>
<g>
</g>
<g>
</g>
<g>
</g>
<g>
</g>
<g>
</g>
<g>
</g>
<g>
</g>
</svg>
